<svg id="Слой_1" data-name="Слой 1" xmlns="http://www.w3.org/2000/svg" xmlns:xlink="http://www.w3.org/1999/xlink" viewBox="0 0 46 46"><defs><style>.cls-1{fill:none;}.cls-2{clip-path:url(#clip-path);}.cls-3{fill:url(#linear-gradient);}.cls-4{fill:#674434;}.cls-5{fill:#1b2320;}.cls-6{fill:#d4d6d5;}.cls-7{fill:#faa284;}.cls-8{fill:#ef8d72;}.cls-9{fill:#25302c;}.cls-10{fill:#f0f2f1;}.cls-11{opacity:0.9;}.cls-12,.cls-13,.cls-14,.cls-15,.cls-16,.cls-17,.cls-18,.cls-19,.cls-20,.cls-21,.cls-22,.cls-23{fill:#ea7460;}.cls-12{opacity:0;}.cls-13{opacity:0.09;}.cls-14{opacity:0.18;}.cls-15{opacity:0.27;}.cls-16{opacity:0.36;}.cls-17{opacity:0.45;}.cls-18{opacity:0.55;}.cls-19{opacity:0.64;}.cls-20{opacity:0.73;}.cls-21{opacity:0.82;}.cls-22{opacity:0.91;}.cls-24{fill:#56362e;}.cls-25{fill:#fff;}.cls-26{fill:#502f26;}.cls-27{fill:#d3755f;}</style><clipPath id="clip-path"><rect class="cls-1" width="46" height="46"/></clipPath><linearGradient id="linear-gradient" x1="345.61" y1="13.58" x2="345.87" y2="32.79" gradientTransform="matrix(-1, 0, 0, 1, 369.89, 0)" gradientUnits="userSpaceOnUse"><stop offset="0" stop-color="#502f26"/><stop offset="1" stop-color="#3b221d"/></linearGradient></defs><g class="cls-2"><path class="cls-3" d="M12.36,41.25s-2.3-21.13,2.89-31.4c4-8,8.79-3.94,8.79-3.94s4.59-3.16,7.69,1a23.66,23.66,0,0,1,1,26.69C25.54,45.7,12.36,41.25,12.36,41.25Z"/><path class="cls-4" d="M34.45,11.74a24.58,24.58,0,0,0-2.17-4,16.74,16.74,0,0,1-15.67-.1,13.93,13.93,0,0,0-1.36,2.23c-.28.55-.53,1.13-.77,1.73A71.28,71.28,0,0,0,34.45,11.74Z"/><path class="cls-5" d="M14.19,56.81l.09-9.52-.73-9.74S10.29,38,7.4,49c-2.71,10.26-1.86,13.6-1,14A33.16,33.16,0,0,0,14.19,56.81Z"/><path class="cls-6" d="M19.25,57.15,27.46,42.3l3.09-6a22.49,22.49,0,0,0-12.12-.13l-.9,6S17.54,51.92,19.25,57.15Z"/><path class="cls-7" d="M21.48,33.65l0,4.89,6,0,0-6.35A9,9,0,0,1,21.48,33.65Z"/><path class="cls-8" d="M27.46,32.21l0-4.9-6,0,0,6.36A9,9,0,0,0,27.46,32.21Z"/><path class="cls-9" d="M30.63,36.29,26.82,42.1,19.27,55.52c-1.71-5.23-1.05-13.32-1.05-13.32l.22-6c-3,.8-4.89,1.39-4.89,1.39l-.78,5.24c-3.1,4-4,6.27-4.06,7.42C8.65,52.8,11.6,55.1,11.6,55.1l1.76,13.29c10.29,4,17.54.23,17.54.23C32,60.85,35.69,49.5,35.69,49.5V38.34A22.78,22.78,0,0,0,30.63,36.29Z"/><path class="cls-10" d="M21.46,33.9s-.1,2.83,1.86,4c0,0,3.92-.86,4.2-4l2.15,2.21s-2.46,4.66-5.31,6.07L23.2,38.55l-3,3a17.8,17.8,0,0,1-1-5.79Z"/><path class="cls-5" d="M15.75,45l-1.39,1.51s1.82,8.09,4.76,12.36c0,0,8.31-7.56,10.55-11.51l-1.93-1.9,2.81-.07,2.78-8.11a23.84,23.84,0,0,0-2.78-1L26.78,42.1,19.25,55.52c-1.71-5.23-1-13.32-1-13.32l.22-6a22.25,22.25,0,0,0-2.33.64L14,44.47Z"/><path class="cls-7" d="M33.69,18.79l-.16.06h0s-.87,6.19-3-1.3A19.88,19.88,0,0,1,24,8c-1.89,4.19-6.5,10-8.87,11a42,42,0,0,0,.25,5.47c.34,3.75,2.29,6.49,6,7.36,8.86,2.09,11.36-6.33,11.36-6.33s3.34.07,3.72-4.24C36.79,17.71,33.69,18.79,33.69,18.79Z"/><path class="cls-8" d="M24.25,11.08s2.39,4.64,6.31,6.47A19.71,19.71,0,0,1,24,8c-1.68,3.73-5.5,8.75-8,10.48C17.73,17.8,20.7,16,24.25,11.08Z"/><path class="cls-8" d="M32,24.56s-2.4,6.23-7.37,6.9a10.48,10.48,0,0,1-7.2-1.95,7.39,7.39,0,0,0,4,2.3c8.86,2.09,11.36-6.33,11.36-6.33a3.76,3.76,0,0,0,3.49-3C34,25.59,32,24.56,32,24.56Z"/><g class="cls-11"><path class="cls-12" d="M22,24.85a3.59,3.59,0,1,1-3.57-3.61A3.59,3.59,0,0,1,22,24.85Z"/><path class="cls-13" d="M18.41,21.55a3.28,3.28,0,1,1-3.29,3.26A3.29,3.29,0,0,1,18.41,21.55Z"/><path class="cls-14" d="M18.41,21.87a3,3,0,1,1-3,2.94A3,3,0,0,1,18.41,21.87Z"/><path class="cls-15" d="M18.41,22.18a2.65,2.65,0,1,1-2.66,2.63A2.64,2.64,0,0,1,18.41,22.18Z"/><path class="cls-16" d="M18.4,22.5a2.33,2.33,0,1,1-2.34,2.31A2.33,2.33,0,0,1,18.4,22.5Z"/><path class="cls-17" d="M18.4,22.81a2,2,0,1,1-2,2A2,2,0,0,1,18.4,22.81Z"/><path class="cls-18" d="M18.4,23.13a1.7,1.7,0,1,1-1.7,1.69A1.7,1.7,0,0,1,18.4,23.13Z"/><path class="cls-19" d="M18.4,23.44A1.39,1.39,0,1,1,17,24.82,1.38,1.38,0,0,1,18.4,23.44Z"/><path class="cls-20" d="M18.4,23.76a1.06,1.06,0,0,1,1.06,1.07,1.08,1.08,0,0,1-1.07,1.06,1.07,1.07,0,0,1,0-2.13Z"/><path class="cls-21" d="M18.4,24.07a.76.76,0,0,1,0,1.51.76.76,0,0,1,0-1.51Z"/><path class="cls-22" d="M18.39,24.39a.44.44,0,0,1,.44.44.44.44,0,0,1-.87,0A.43.43,0,0,1,18.39,24.39Z"/><path class="cls-23" d="M18.51,24.83a.12.12,0,0,1-.12.12.12.12,0,0,1-.12-.13.11.11,0,0,1,.12-.11A.12.12,0,0,1,18.51,24.83Z"/></g><g class="cls-11"><path class="cls-12" d="M32,24.7a4.15,4.15,0,1,1-4.12-4.16A4.14,4.14,0,0,1,32,24.7Z"/><path class="cls-13" d="M27.89,20.9a3.78,3.78,0,1,1-3.81,3.76A3.77,3.77,0,0,1,27.89,20.9Z"/><path class="cls-14" d="M27.88,21.26a3.42,3.42,0,1,1-3.43,3.4A3.42,3.42,0,0,1,27.88,21.26Z"/><path class="cls-15" d="M27.88,21.63a3.05,3.05,0,1,1-3.07,3A3.05,3.05,0,0,1,27.88,21.63Z"/><path class="cls-16" d="M27.88,22a2.69,2.69,0,1,1-2.7,2.68A2.69,2.69,0,0,1,27.88,22Z"/><path class="cls-17" d="M27.88,22.36a2.32,2.32,0,1,1-2.34,2.31A2.32,2.32,0,0,1,27.88,22.36Z"/><path class="cls-18" d="M27.88,22.72a2,2,0,1,1-2,2A2,2,0,0,1,27.88,22.72Z"/><path class="cls-19" d="M27.87,23.09a1.6,1.6,0,1,1-1.6,1.58A1.6,1.6,0,0,1,27.87,23.09Z"/><path class="cls-20" d="M27.87,23.45a1.23,1.23,0,1,1-1.24,1.22A1.24,1.24,0,0,1,27.87,23.45Z"/><path class="cls-21" d="M27.87,23.81a.87.87,0,0,1,0,1.74.87.87,0,0,1,0-1.74Z"/><path class="cls-22" d="M27.87,24.18a.5.5,0,1,1,0,1,.5.5,0,0,1-.5-.5A.5.5,0,0,1,27.87,24.18Z"/><path class="cls-23" d="M28,24.68a.14.14,0,0,1-.14.14.13.13,0,0,1-.13-.14.14.14,0,0,1,.14-.14A.13.13,0,0,1,28,24.68Z"/></g><path class="cls-24" d="M20.27,26.51a13.2,13.2,0,0,0,5.95,0s-.89,3-3.38,2.78C20.61,29.11,20.27,26.51,20.27,26.51Z"/><path class="cls-25" d="M20.35,26.66a11,11,0,0,0,5.72,0s-.56,1.24-3.19,1.16C20.54,27.74,20.35,26.66,20.35,26.66Z"/><path class="cls-26" d="M20,17.66a4,4,0,0,0-3.63.69s0-.23.37-.63A3.25,3.25,0,0,1,19.49,17S20.24,17.42,20,17.66Z"/><path class="cls-26" d="M24.68,18.2a4.69,4.69,0,0,1,4.21.66s0-.27-.44-.71a3.77,3.77,0,0,0-3.22-.72S24.38,17.94,24.68,18.2Z"/><path class="cls-27" d="M23,25.4c-1.77.8-2.77,0-2.88-.85a1.23,1.23,0,0,1,.75-1.29,4.67,4.67,0,0,0,1.79-2.2h0A3.6,3.6,0,0,1,21,23.78c-.29.19-.47.38-.44.65.06.48.78,1.16,2.45,1Z"/><path class="cls-26" d="M27,19.69s-1.11,0-1.24-.46a.65.65,0,0,0,.49.8,1.71,1.71,0,0,0-.4,1c0,.79.42,1.46,1,1.48S28,22,28,21.17A1.29,1.29,0,0,0,27,19.69Z"/><path class="cls-26" d="M18.92,19.64s-1.11,0-1.24-.46a.66.66,0,0,0,.49.81,1.68,1.68,0,0,0-.4,1,1.3,1.3,0,0,0,1,1.48c.6,0,1.11-.59,1.14-1.38A1.29,1.29,0,0,0,18.92,19.64Z"/><path class="cls-9" d="M35.67,38.34c-2.74-.7-4.94,19.39-4.94,19.39L20.55,55.29a9.58,9.58,0,0,0-2,5.78c8.73,5.63,15.06,4.71,15.06,4.71s3.28.55,4.23-12.87S35.67,38.34,35.67,38.34Z"/></g></svg>