<svg id="Слой_1" data-name="Слой 1" xmlns="http://www.w3.org/2000/svg" xmlns:xlink="http://www.w3.org/1999/xlink" viewBox="0 0 46 46"><defs><style>.cls-1{fill:none;}.cls-2{clip-path:url(#clip-path);}.cls-3{fill:#d4d6d5;}.cls-4{fill:#c94949;}.cls-5{fill:#faa284;}.cls-6{fill:#ef8d72;}.cls-7{fill:#25302c;}.cls-8{fill:#f0f2f1;}.cls-9{fill:#1b2320;}.cls-10{fill:#3b221d;}.cls-11{fill:#502f26;}.cls-12{fill:#db7c65;}.cls-13{fill:#674434;}.cls-14{fill:#823321;}.cls-15{fill:#fff;}</style><clipPath id="clip-path"><rect class="cls-1" width="46" height="46"/></clipPath></defs><g class="cls-2"><path class="cls-3" d="M16.15,39a37,37,0,0,1,13.49-.56c0,3.19-.12,17-3.27,28C26.37,66.34,17.55,46.31,16.15,39Z"/><polygon class="cls-4" points="26.74 42.81 24.99 45.91 29.27 64.84 26.37 68.6 23.36 65.87 23.07 46.05 21.55 43.6 23.72 40.45 26.74 42.81"/><path class="cls-5" d="M26.57,36.12l.13,4.72-7.82.22-.17-6.14A15.37,15.37,0,0,0,26.57,36.12Z"/><path class="cls-6" d="M18.71,34.92l-.13-4.73L26.4,30l.17,6.15A15.37,15.37,0,0,1,18.71,34.92Z"/><path class="cls-7" d="M7,42a41.72,41.72,0,0,1,9.88-3.61c1.4,7.35,9.46,28,9.46,28,3.15-11,2.49-25,2.52-28.24a30.62,30.62,0,0,1,8,2S40.19,55,38.73,88.84c0,0-11,4-28.7.59,0,0,1.67-23.73-.63-33C9.4,56.41,7.76,47.83,7,42Z"/><path class="cls-7" d="M36.88,40.07s3.79-.22,6.68,12.8c2.24,10,1.63,16.66.4,17.07s-9,3.76-22.56-2.76L23,64.92l13.21-1.77-.11-12.8Z"/><path class="cls-8" d="M26.58,36.62a5.22,5.22,0,0,1-2.86,3.83s-4.66-.79-5-3.84L16.38,38.9s1.44,4.36,5.05,5.71l2.26-3.44L26.75,44s2.84-3.4,2.6-5.62Z"/><path class="cls-9" d="M31.3,48.51l1.37,1.24S29,64.1,26.39,69.31c0,0-7.57-12.68-9.95-18.22l1.14-1.81-2.5-.77a44.71,44.71,0,0,1-.72-9.46c.81-.25,1.67-.47,2.55-.66,1.4,7.35,9.46,28,9.46,28,3.15-11,2.49-25,2.52-28.24.73.12,1.52.29,2.34.49L33,46.88Z"/><path class="cls-7" d="M7,42c3.68-.79,7,22.18,7,22.18l11.81-2.07c1,1,2.87,3.71,2.7,6.44-11.72,6.26-18.36,4.59-18.36,4.59s-4.4.61-5.68-14.33S7,42,7,42Z"/><path class="cls-10" d="M16.7,12.44s7.53,3.58,9.35,3.39,7.62-3,7.62-3a9.79,9.79,0,0,1-1.09,6.51L16.22,23.14l-2.76.73a37.79,37.79,0,0,1-1.38-7.72A6.93,6.93,0,0,0,16.7,12.44Z"/><path class="cls-11" d="M14.15,10.45c1.47-5.93,11.59-6.33,11.59-6.33,5.32-3.24,3.32.9,3.32.9,8.9-3.18,4.66,4.83,4.66,4.83,3.3-.12,0,3,0,3s-5.81,2.78-7.62,3-9.35-3.39-9.35-3.39a6.93,6.93,0,0,1-4.62,3.71C12.1,10.87,14.15,10.45,14.15,10.45Z"/><path class="cls-5" d="M14.15,21.72l1.23,1a14.14,14.14,0,0,0,.64-1.9,30.45,30.45,0,0,0,.68-8.42,25.62,25.62,0,0,0,15.92.92c-.41,4.26,1,13.64-2.26,18.46a6.13,6.13,0,0,1-4.26,3c-9,1.41-11.29-7.38-11.29-7.38S12,28.15,11.42,24C10.94,20.56,14.15,21.72,14.15,21.72Z"/><path class="cls-6" d="M18,14a33.84,33.84,0,0,1-1.81,6.35,31.53,31.53,0,0,0,.54-7.88,25.62,25.62,0,0,0,15.92.92c0,.47-.06,1-.06,1.57C29.22,15.4,23.24,15.81,18,14Z"/><path class="cls-11" d="M27.66,22.81c0,.77.47,1.36,1.05,1.31s1-.71,1-1.48-.48-1.36-1.05-1.32A1.37,1.37,0,0,0,27.66,22.81Z"/><path class="cls-11" d="M19.81,22.58c0,.77.47,1.36,1,1.31s1-.71,1-1.48-.48-1.36-1.05-1.31A1.36,1.36,0,0,0,19.81,22.58Z"/><path class="cls-12" d="M24.87,27.19c1.74.7,2.68-.11,2.75-.94A1.19,1.19,0,0,0,26.85,25C25.79,24.63,25,23,25,23h0a3.53,3.53,0,0,0,1.72,2.56c.29.17.47.34.45.61,0,.46-.71,1.15-2.33,1Z"/><path class="cls-11" d="M31.19,18.82l.07-.52a13.46,13.46,0,0,0-4-.32v.82A17.44,17.44,0,0,1,31.19,18.82Z"/><path class="cls-11" d="M18.44,19.09a17.07,17.07,0,0,1,4-.65l-.17-.75a11.52,11.52,0,0,0-4,.95Z"/><path class="cls-13" d="M33,4.3S29.23,8,20.49,8A15.77,15.77,0,0,0,34,9.3S36,4.58,33,4.3Z"/><path class="cls-6" d="M15.49,26.36c.76,2.23,3.61,7.71,9.75,7.38,3.32-.18,5-2.37,6.11-3.9a8.94,8.94,0,0,1-1,2,6.13,6.13,0,0,1-4.26,3c-9,1.41-11.29-7.38-11.29-7.38s-2.16.6-3.11-2.14C13.38,28,15.49,26.36,15.49,26.36Z"/><path class="cls-14" d="M21.85,28.4a17.39,17.39,0,0,0,6.31,0s-.54,2.8-3.15,2.79A3.17,3.17,0,0,1,21.85,28.4Z"/><path class="cls-15" d="M25.08,29.73c2,0,2.6-.83,2.85-1.28a17.63,17.63,0,0,1-5.92,0C22.19,28.93,23.18,29.73,25.08,29.73Z"/></g></svg>