<?xml version="1.0" encoding="utf-8"?>
<!-- Generator: Adobe Illustrator 27.6.1, SVG Export Plug-In . SVG Version: 6.00 Build 0)  -->
<svg version="1.1" id="圖層_1" xmlns="http://www.w3.org/2000/svg" xmlns:xlink="http://www.w3.org/1999/xlink" x="0px" y="0px"
	 viewBox="0 0 50 50" style="enable-background:new 0 0 50 50;" xml:space="preserve">
<style type="text/css">
	.st0{fill:url(#Ellipse_29_00000160909547644710084220000012159608599420227747_);}
	.st1{fill:#FFFFFF;}
</style>
<g id="btn-add" transform="translate(-310 -732)">
	
		<linearGradient id="Ellipse_29_00000054948095693741430730000006835074830072966810_" gradientUnits="userSpaceOnUse" x1="-291.22" y1="1385.72" x2="-291.22" y2="1384.72" gradientTransform="matrix(50 0 0 -50 14896 70018)">
		<stop  offset="0" style="stop-color:#0E5DD8"/>
		<stop  offset="1" style="stop-color:#EB55FF"/>
	</linearGradient>
	
		<circle id="Ellipse_29" style="fill:url(#Ellipse_29_00000054948095693741430730000006835074830072966810_);" cx="335" cy="757" r="25"/>
</g>
<g>
	<path class="st1" d="M24.2,12.9h-4.1l1.3,0.3c-0.3,0.5-0.6,1-0.9,1.4h3v7.1c0,0.7-0.2,1.1-0.7,1.3c-0.5,0.2-1.3,0.2-2.4,0.2
		c-0.1-0.4-0.3-0.9-0.4-1.2c0.7,0,1.5,0,1.7,0c0.2,0,0.3-0.1,0.3-0.3v-5.7h-2.2v0.4c0,0.3,0,0.4,0.3,0.4h0.7c0.2,0,0.6,0,0.8-0.1
		c0,0.4,0,0.7,0.1,1.1c-0.2,0.1-0.6,0.1-0.9,0.1h-1.1c-1.1,0-1.3-0.5-1.3-1.5v-0.4h-1c-0.2,1-0.6,1.7-1.8,2.2h5.1v3.4h-4v0.6h-1.4
		v-3.9c-0.2,0-0.3,0.1-0.5,0.1c-0.1-0.3-0.4-0.8-0.7-1v5.9h-1.6v-8.6h2.9c-0.2-0.4-0.4-1-0.6-1.4l0.9-0.3h-3.8v-1.4h5.5
		c-0.1-0.4-0.2-0.7-0.3-1.1l1.6-0.4c0.2,0.4,0.4,1,0.5,1.5h5.2V12.9z M14,17.2c1.3-0.2,1.8-0.6,1.9-1.3H14V17.2z M19,14.6
		c0.3-0.5,0.6-1.2,0.7-1.7h-3.5c0.3,0.5,0.5,1,0.7,1.4L16,14.6H19z M16.6,19.2v1.1h2.7v-1.1H16.6z"/>
	<path class="st1" d="M26,16.9h5.3v6.2h-1.7v-0.6h-2.1v0.7H26V16.9z M27.6,18.5v2.4h2.1v-2.4H27.6z M36.1,15.7h-8.2v-5.1h8.2V15.7z
		 M34.4,12.3h-4.9v1.9h4.9V12.3z M38,16.9v6.2h-1.7v-0.6h-2.2v0.7h-1.6v-6.3H38z M36.3,20.9v-2.4h-2.2v2.4H36.3z"/>
	<path class="st1" d="M15.9,35.6c0-0.2-0.1-0.4-0.1-0.7c-3,0.4-3.5,0.5-3.9,0.7c-0.1-0.3-0.3-1.1-0.5-1.5c0.4-0.1,0.7-0.4,1.1-0.9
		c0.2-0.2,0.5-0.6,0.9-1.1c-1.1,0.1-1.5,0.2-1.7,0.3c-0.1-0.3-0.3-1-0.5-1.4c0.3-0.1,0.5-0.3,0.9-0.8c0.3-0.4,1.2-1.9,1.8-3.4
		l1.5,0.6c-0.5,1.1-1.3,2.4-2,3.4l1-0.1c0.4-0.6,0.7-1.2,1-1.8l1.4,0.9c-0.8,1.4-1.9,2.9-3,4.1l1.6-0.2c-0.1-0.4-0.2-0.7-0.3-1
		l1.2-0.4c0.4,0.9,0.7,2.2,0.9,2.9L15.9,35.6z M13.3,36.3c-0.1,1.2-0.3,2.6-0.6,3.4c-0.3-0.2-1-0.4-1.3-0.5c0.3-0.8,0.5-2.1,0.6-3.2
		L13.3,36.3z M15,36.1c0.2,1,0.4,2.2,0.4,3L14,39.4c0-0.8-0.2-2.1-0.3-3.1L15,36.1z M16.5,35.6c0.3,0.7,0.5,1.6,0.7,2.2l-1.3,0.4
		c-0.1-0.6-0.4-1.6-0.6-2.3L16.5,35.6z M24.5,38.3v1.5h-8v-1.5h1.1V27.6h6v10.6H24.5z M19.1,29.1v2H22v-2H19.1z M22,32.7h-2.9v2H22
		V32.7z M19.1,38.3H22v-2.1h-2.9V38.3z"/>
	<path class="st1" d="M33.6,27.6c-0.2,0.2-0.3,0.4-0.5,0.6c1.8,1.7,3.7,2.6,5.5,3.3c-0.4,0.4-0.9,1-1.1,1.5c-0.7-0.3-1.4-0.7-2-1
		v0.9h-7v-0.7c-0.6,0.4-1.2,0.7-1.9,1c-0.3-0.5-0.8-1.1-1.2-1.5c2.6-1,5.2-2.7,6.7-4.9L33.6,27.6z M27.6,34.1h9v5.8h-1.8v-0.6h-5.5
		V40h-1.7V34.1z M29.3,35.6v2.2h5.5v-2.2H29.3z M34.5,31.4c-0.8-0.5-1.6-1.2-2.4-2c-0.7,0.7-1.5,1.4-2.3,2H34.5z"/>
</g>
</svg>
