<svg id="Layer_1" enable-background="new 0 0 512 512" viewBox="0 0 512 512" xmlns="http://www.w3.org/2000/svg"><g><g><path clip-rule="evenodd" d="m455.042 127.905.002 278.489h.051c0 6.666-1.358 13.084-3.811 18.973-2.521 6.057-6.222 11.526-10.801 16.106-4.595 4.611-10.071 8.325-16.133 10.848-5.895 2.454-12.317 3.812-18.996 3.812h-75.907l-49.715 55.867-49.715-55.867h-75.907c-6.672 0-13.094-1.356-18.991-3.807-6.115-2.541-11.596-6.236-16.151-10.792-4.555-4.555-8.25-10.036-10.792-16.149-2.451-5.899-3.807-12.319-3.807-18.991v-170.077h-15.911c-4.221 0-8.299-.864-12.057-2.426-3.887-1.613-7.366-3.956-10.241-6.83l-3.738-3.738v-.837c-1.218-1.777-2.257-3.682-3.091-5.687-1.562-3.751-2.426-7.821-2.426-12.037v-64.435c0-4.217.864-8.286 2.426-12.037.833-2.006 1.873-3.91 3.091-5.686v-.837l3.738-3.738c2.875-2.874 6.354-5.217 10.241-6.829 3.758-1.562 7.836-2.426 12.057-2.426h15.911v-59.035c0-6.668 1.358-13.084 3.811-18.973 2.522-6.057 6.222-11.525 10.801-16.106 4.595-4.611 10.07-8.325 16.133-10.848 5.892-2.454 12.314-3.812 18.995-3.812h173.08c2.646 0 5.204.557 7.541 1.56l-.007.018c2.286.985 4.351 2.41 6.079 4.158l.02-.02 108.665 108.664c1.764 1.764 3.139 3.885 4.105 6.207l.018-.007c.987 2.379 1.483 4.875 1.483 7.325z" fill="#fff" fill-rule="evenodd"/></g><g><path clip-rule="evenodd" d="m129.878 124.333c0 3.521-2.856 6.378-6.378 6.378s-6.377-2.856-6.377-6.378v-71.391c0-10.155 4.165-19.401 10.873-26.112 6.686-6.712 15.936-10.873 26.113-10.873h173.08c1.815 0 3.454.76 4.617 1.978l108.664 108.665c1.244 1.244 1.868 2.876 1.868 4.508l.001 278.489c0 10.155-4.165 19.401-10.873 26.111-6.686 6.712-15.936 10.873-26.113 10.873h-69.33l11.35-12.755h57.981c6.658 0 12.716-2.729 17.109-7.122h.024c4.378-4.376 7.098-10.434 7.098-17.107v-275.85l-105.035-105.035h-170.441c-6.658 0-12.716 2.73-17.109 7.122h-.023c-4.378 4.376-7.099 10.433-7.099 17.107zm93.562 322.248-11.35-12.755h-57.981c-6.656 0-12.716-2.729-17.109-7.122-4.392-4.392-7.122-10.452-7.122-17.107v-189.009c0-3.521-2.856-6.377-6.378-6.377s-6.377 2.856-6.377 6.377v189.009c0 10.175 4.161 19.425 10.86 26.124s15.951 10.861 26.126 10.861h69.331z" fill="#4d4d4d" fill-rule="evenodd"/></g><g><path clip-rule="evenodd" d="m435.962 131.108h-78.164c-16.836 0-30.609-13.772-30.609-30.607v-78.166z" fill="#4d4d4d" fill-rule="evenodd"/></g><g><path clip-rule="evenodd" d="m435.962 137.485h-78.164c-10.177 0-19.427-4.161-26.126-10.86l-.355-.383c-6.495-6.679-10.506-15.771-10.506-25.741v-78.166c0-3.521 2.856-6.378 6.378-6.378 1.815 0 3.454.76 4.617 1.978l108.664 108.665c2.49 2.489 2.49 6.527 0 9.016-1.245 1.244-2.876 1.867-4.508 1.869zm-78.164-12.754h62.77l-87.002-87.001v62.772c0 6.535 2.609 12.478 6.826 16.831l.297.277c4.392 4.391 10.452 7.121 17.109 7.121z" fill="#4d4d4d" fill-rule="evenodd"/></g><g><path clip-rule="evenodd" d="m88.458 121.528h190.063c5.175 0 9.879 2.115 13.281 5.517v.025c3.402 3.404 5.517 8.1 5.517 13.257v64.435c0 5.157-2.115 9.852-5.517 13.257v.025c-3.402 3.402-8.106 5.517-13.281 5.517h-190.063c-5.176 0-9.879-2.115-13.281-5.517v-.025c-3.402-3.405-5.517-8.1-5.517-13.257v-64.435c0-5.157 2.115-9.853 5.517-13.257v-.025c3.402-3.402 8.105-5.517 13.281-5.517zm190.063 12.754h-190.063c-1.656 0-3.169.684-4.264 1.779-1.101 1.081-1.779 2.599-1.779 4.266v64.435c0 1.667.678 3.185 1.766 4.279 1.108 1.083 2.621 1.766 4.277 1.766h190.063c1.655 0 3.169-.683 4.264-1.779 1.101-1.081 1.779-2.599 1.779-4.266v-64.435c0-1.666-.678-3.185-1.766-4.278-1.109-1.083-2.622-1.767-4.277-1.767z" fill="#4d4d4d" fill-rule="evenodd"/></g><g><path clip-rule="evenodd" d="m124.784 181.001v20.04h-11.743v-56.993h22.231c4.274 0 8.044.788 11.29 2.35 3.245 1.564 5.744 3.794 7.494 6.681 1.75 2.885 2.618 6.171 2.618 9.859 0 5.586-1.911 9.995-5.73 13.226-3.822 3.22-9.113 4.838-15.873 4.838h-10.287zm0-9.539h10.488c3.1 0 5.464-.735 7.107-2.19 1.631-1.457 2.446-3.541 2.446-6.253 0-2.793-.83-5.051-2.473-6.774-1.643-1.724-3.914-2.606-6.813-2.659h-10.755zm39.961 29.579v-56.993h17.529c5.009 0 9.499 1.122 13.452 3.38 3.956 2.257 7.041 5.477 9.259 9.631 2.219 4.169 3.326 8.899 3.326 14.188v2.632c0 5.291-1.096 10.007-3.272 14.123-2.178 4.127-5.251 7.321-9.218 9.592-3.968 2.272-8.444 3.42-13.427 3.447zm11.743-47.455v37.995h5.68c4.582 0 8.094-1.495 10.528-4.489 2.417-3.006 3.66-7.293 3.713-12.865v-3.006c0-5.786-1.202-10.18-3.606-13.16-2.391-2.979-5.906-4.476-10.528-4.476h-5.787zm74.63 24.128h-22.539v23.326h-11.743v-56.993h37.1v9.539h-25.358v14.67h22.539v9.458z" fill="#e36b6b" fill-rule="evenodd"/></g><g><path clip-rule="evenodd" d="m250.959 373.93v45.519h-39.387l68.159 76.591 68.159-76.591h-39.387v-45.519zm0-86.069h57.544v-3.76h-57.544zm0 67.261h57.544c0-4.259 0-8.52 0-12.782-19.181 0-38.362 0-57.544 0zm0-16.815h57.544c0-3.509 0-7.017 0-10.526-19.181 0-38.362 0-57.544 0zm0-16.817h57.544c0-2.755 0-5.511 0-8.27-19.181 0-38.362 0-57.544 0zm0-16.814h57.544c0-2.005 0-4.01 0-6.014-19.181 0-38.362 0-57.544 0zm0 67.261h57.544v-15.037h-57.544z" fill="#e36b6b" fill-rule="evenodd"/></g></g></svg>