<?xml version="1.0" encoding="UTF-8"?><svg id="_圖層_1" xmlns="http://www.w3.org/2000/svg" viewBox="0 0 24 24"><defs><style>.cls-1{fill:#f0c74a;}</style></defs><path id="star" class="cls-1" d="m1.32,12.61l3.56,2.69-1.35,4.33c-.45,1.37.03,2.88,1.18,3.73,1.12.86,2.69.85,3.8-.02l3.48-2.65,3.48,2.64c1.12.86,2.67.86,3.8.02,1.14-.87,1.62-2.36,1.18-3.73l-1.35-4.33,3.56-2.69c1.13-.87,1.6-2.36,1.16-3.72-.41-1.35-1.65-2.28-3.06-2.3h-4.37l-1.33-4.27c-.49-1.7-2.26-2.68-3.96-2.19-1.06.3-1.88,1.13-2.19,2.19l-1.33,4.27H3.23c-1.41.02-2.66.95-3.07,2.3-.43,1.36.03,2.85,1.16,3.72h0Z"/></svg>