<?xml version="1.0" encoding="UTF-8"?><svg id="_圖層_1" xmlns="http://www.w3.org/2000/svg" viewBox="0 0 24 24"><defs><style>.cls-1{fill:#d7d7d7;}</style></defs><path id="star" class="cls-1" d="m23.83,8.88c-.4-1.36-1.65-2.3-3.07-2.3h-4.37l-1.33-4.27c-.49-1.7-2.27-2.67-3.97-2.18-1.05.31-1.87,1.13-2.18,2.18l-1.33,4.27H3.22c-1.41.02-2.65.95-3.06,2.3-.43,1.36.03,2.85,1.16,3.72l3.56,2.69-1.35,4.33c-.45,1.37.03,2.88,1.18,3.73,1.12.86,2.69.85,3.8-.02l3.48-2.65,3.48,2.64c1.12.86,2.67.87,3.8.02,1.14-.87,1.62-2.36,1.18-3.73l-1.35-4.33,3.56-2.69c1.15-.86,1.62-2.36,1.16-3.73Zm-2.34,2.06l-4.14,3.13c-.35.27-.5.73-.36,1.15l1.58,5.03c.16.52-.02,1.09-.45,1.42-.43.32-1.02.32-1.44,0l-4.08-3.1c-.35-.27-.83-.27-1.18,0l-4.08,3.1c-.43.33-1.02.34-1.45.01-.44-.33-.62-.9-.45-1.42l1.58-5.03c.13-.42-.01-.88-.36-1.15l-4.14-3.13c-.43-.33-.61-.9-.44-1.42.16-.51.63-.87,1.17-.87h5.1c.44,0,.83-.29.95-.72l1.55-4.99c.18-.65.86-1.02,1.5-.83.4.12.72.43.83.83l1.55,4.99c.12.42.51.71.95.72h5.1c.54,0,1.01.36,1.17.87.17.52-.01,1.08-.44,1.42h0Z"/></svg>