<?xml version="1.0" encoding="UTF-8"?>
<svg id="_圖層_1" data-name="圖層 1" xmlns="http://www.w3.org/2000/svg" viewBox="0 0 30 30">
  <defs>
    <style>
      .cls-1 {
        fill: #005798;
      }

      .cls-1, .cls-2 {
        stroke-width: 0px;
      }

      .cls-2 {
        fill: #fff;
      }
    </style>
  </defs>
  <circle id="Ellipse_82" data-name="Ellipse 82" class="cls-1" cx="15" cy="15" r="15"/>
  <g id="Solid">
    <path class="cls-2" d="M14.38,18.73c.34.34.9.34,1.24,0h0s3.32-3.32,3.32-3.32c.34-.34.34-.9,0-1.24-.34-.34-.9-.34-1.24,0l-1.82,1.82V6.38c0-.49-.39-.88-.88-.88s-.88.39-.88.88v9.6l-1.82-1.82c-.34-.34-.9-.34-1.24,0-.34.34-.34.9,0,1.24l3.32,3.32Z"/>
    <path class="cls-2" d="M22.62,13.12c-.49,0-.88.39-.88.88v6.74h-13.48v-6.74c0-.49-.39-.88-.88-.88s-.88.39-.88.88v7.03c0,.81.66,1.47,1.47,1.47h14.07c.81,0,1.47-.66,1.47-1.47v-7.03c0-.49-.39-.88-.88-.88Z"/>
  </g>
</svg>