<?xml version="1.0" encoding="UTF-8"?><svg id="_圖層_1" xmlns="http://www.w3.org/2000/svg" viewBox="0 0 30 30"><defs><style>.cls-1{fill:#fff;}.cls-2{fill:#005798;}</style></defs><g id="Group_143"><circle id="Ellipse_82" class="cls-2" cx="15" cy="15" r="15"/><path id="cross-small" class="cls-1" d="m23.78,15.29h0c0-.55-.45-1-1-1h-6.49v-6.49c0-.55-.45-1-1-1h0c-.55,0-1,.45-1,1v6.49s-6.49,0-6.49,0c-.55,0-1,.45-1,1h0c0,.55.45,1,1,1h6.49s0,6.49,0,6.49c0,.55.45,1,1,1h0c.55,0,1-.45,1-1v-6.49h6.49c.55,0,1-.45,1-1Z"/></g></svg>