<?xml version="1.0" encoding="UTF-8"?><svg id="_圖層_1" xmlns="http://www.w3.org/2000/svg" viewBox="0 0 30 30"><defs><style>.cls-1{fill:#fff;}.cls-2{fill:#e86a6a;}</style></defs><g id="Group_162"><circle id="Ellipse_78" class="cls-2" cx="15" cy="15.34" r="15"/><path id="cross-small" class="cls-1" d="m21.29,9.63h0c-.39-.39-1.02-.39-1.41,0l-4.59,4.59-4.59-4.59c-.39-.39-1.02-.39-1.41,0h0c-.39.39-.39,1.02,0,1.41l4.59,4.59-4.59,4.59c-.39.39-.39,1.02,0,1.41h0c.39.39,1.02.39,1.41,0l4.59-4.59,4.59,4.59c.39.39,1.02.39,1.41,0h0c.39-.39.39-1.02,0-1.41l-4.59-4.59,4.59-4.59c.39-.39.39-1.02,0-1.41Z"/></g></svg>