<?xml version="1.0" encoding="utf-8"?>
<!-- Generator: Adobe Illustrator 27.6.1, SVG Export Plug-In . SVG Version: 6.00 Build 0)  -->
<svg version="1.1" id="圖層_1" xmlns="http://www.w3.org/2000/svg" xmlns:xlink="http://www.w3.org/1999/xlink" x="0px" y="0px"
	 viewBox="0 0 50 50" style="enable-background:new 0 0 50 50;" xml:space="preserve">
<style type="text/css">
	.st0{fill:url(#Ellipse_29_00000096036752756662995410000006860944688805266085_);}
	.st1{fill:#FFFFFF;}
</style>
<g id="btn-add" transform="translate(-310 -732)">
	
		<linearGradient id="Ellipse_29_00000073704987535814213730000006860978333911142785_" gradientUnits="userSpaceOnUse" x1="-582.94" y1="24.56" x2="-582.94" y2="25.56" gradientTransform="matrix(50 0 0 50 29482 -496)">
		<stop  offset="0" style="stop-color:#0E5DD8"/>
		<stop  offset="1" style="stop-color:#EB55FF"/>
	</linearGradient>
	
		<circle id="Ellipse_29" style="fill:url(#Ellipse_29_00000073704987535814213730000006860978333911142785_);" cx="335" cy="757" r="25"/>
</g>
<g>
	<path class="st1" d="M24.8,20.9h-2.4v2.3h-1.6v-2.3h-2.6v-1.4h2.6v-1.3h-1.2c-0.2,0.4-0.4,0.8-0.6,1.1c-0.2-0.2-0.7-0.4-1.1-0.6v3
		c0,0.7-0.1,1.1-0.5,1.3c-0.4,0.2-1,0.3-1.9,0.3c0-0.4-0.3-1-0.5-1.4c0.6,0,1.1,0,1.3,0s0.2-0.1,0.2-0.2v-2h-2.8
		c-0.1,1.3-0.5,2.7-1.1,3.7c-0.2-0.2-0.8-0.6-1.1-0.7c0.9-1.4,1-3.5,1-5.1v-2.1c-0.3-0.3-0.8-0.7-1.1-0.9c1-1,1.7-2.7,2.1-4.3
		l1.5,0.3c-0.1,0.3-0.2,0.7-0.3,1h1.3l0.2-0.1l1,0.6c-0.2,0.5-0.5,1.2-0.8,1.8H18v0.9c1.2-0.5,1.6-1.3,1.8-2.4h-1.6v-1.4h6.2
		c0,0,0,0.4,0,0.5c-0.1,2.2-0.2,3.2-0.5,3.6c-0.2,0.3-0.5,0.4-0.9,0.5c-0.3,0-0.9,0.1-1.4,0c0-0.4-0.2-1-0.4-1.3
		c0.4,0,0.8,0.1,1,0.1c0.2,0,0.3,0,0.4-0.2c0.1-0.2,0.2-0.6,0.3-1.8h-1.6c-0.2,1.5-0.8,2.6-2.2,3.4l1.2,0.3
		c-0.1,0.3-0.1,0.6-0.2,0.9h0.7v-1.3h1.6v1.3h2.1v1.4h-2.1v1.3h2.4V20.9z M14.4,12.8c-0.2,0.4-0.3,0.7-0.5,1h1.2
		c0.1-0.3,0.3-0.7,0.4-1H14.4z M14,17.5c0,0.3,0,0.6,0,0.9h0.8v-1.2H14V17.5z M14,16.1h0.8V15H14V16.1z M15.9,16.1h0.8V15h-0.8V16.1
		z M16.7,18.4v-1.2h-0.8v1.2H16.7z M18,18.5c0.5-0.7,0.8-1.7,1-2.7c-0.1,0-0.2,0.1-0.3,0.1c-0.1-0.3-0.4-0.7-0.7-1V18.5z"/>
	<path class="st1" d="M28,19.7c-0.2,1.2-0.6,2.5-0.9,3.4c-0.3-0.2-1-0.4-1.4-0.5c0.4-0.8,0.7-2.1,0.9-3.2L28,19.7z M30.5,18.9
		c0-0.2-0.1-0.4-0.1-0.7c-3.2,0.5-3.7,0.6-4.1,0.8c-0.1-0.3-0.3-1.1-0.5-1.5c0.4-0.1,0.7-0.4,1.2-0.9c0.2-0.2,0.6-0.6,1-1.2
		c-1.2,0.2-1.6,0.2-1.8,0.3c-0.1-0.3-0.3-1.1-0.5-1.5c0.3-0.1,0.5-0.3,0.9-0.7c0.3-0.4,1.3-1.9,1.9-3.4l1.5,0.6
		c-0.6,1.1-1.4,2.3-2.1,3.3l1.2-0.1c0.4-0.5,0.8-1.2,1.1-1.8l1.4,0.9c-0.9,1.4-2,2.7-3.1,3.9l1.6-0.2c-0.1-0.4-0.2-0.7-0.3-1
		l1.3-0.3c0.4,1,0.8,2.2,0.9,3L30.5,18.9z M29.6,19.3c0.2,1,0.4,2.3,0.5,3.1l-1.4,0.4c0-0.9-0.2-2.2-0.4-3.2L29.6,19.3z M31.2,19
		c0.4,0.8,0.7,1.9,0.9,2.6L30.9,22c-0.1-0.7-0.5-1.8-0.8-2.6L31.2,19z M38.4,12.7c0,0,0,0.6,0,0.8c-0.2,6-0.3,8.2-0.9,8.9
		c-0.4,0.5-0.8,0.7-1.4,0.8c-0.5,0.1-1.4,0.1-2.2,0c0-0.5-0.3-1.2-0.5-1.7c0.9,0.1,1.6,0.1,2,0.1c0.3,0,0.4,0,0.6-0.2
		c0.4-0.4,0.5-2.4,0.7-7.1h-3.3c-0.3,0.7-0.7,1.3-1.1,1.9c-0.3-0.3-1-0.7-1.4-0.9c1-1.2,1.7-3.1,2.1-5l1.6,0.3
		c-0.2,0.7-0.4,1.5-0.6,2.2H38.4z M34.8,19.7c-0.4-0.9-1.5-2.1-2.4-3l1.1-0.9c0.9,0.9,2,2.1,2.5,2.9L34.8,19.7z"/>
	<path class="st1" d="M26.1,32.6v1.5h4.5v1.5h-2.2l1.4,0.5c-0.5,0.8-1,1.6-1.5,2.2h3v1.5H19.2v-1.5H22c-0.2-0.6-0.7-1.6-1.2-2.3
		l1.1-0.5h-2v-1.5h4.5v-1.5h-2.8v-0.7c-0.6,0.3-1.2,0.5-1.8,0.8c-0.2-0.5-0.7-1.1-1.1-1.5c2.6-0.8,5.2-2.2,6.5-4.3l1.6,0.7
		c-0.1,0.2-0.3,0.4-0.4,0.6c1.4,1.2,3.6,2.4,5.7,3c-0.4,0.4-0.9,1-1.1,1.5c-0.6-0.2-1.3-0.5-1.9-0.8v0.8H26.1z M22.2,35.6
		c0.5,0.7,1,1.6,1.2,2.2l-1.1,0.5h2v-2.7H22.2z M27.7,31.1c-0.9-0.5-1.7-1.2-2.4-1.8c-0.7,0.7-1.4,1.3-2.3,1.8H27.7z M26.1,35.6v2.7
		h1.8L27,37.9c0.4-0.6,1-1.6,1.2-2.3H26.1z"/>
</g>
</svg>
