<?xml version="1.0" encoding="UTF-8"?><svg id="_圖層_1" xmlns="http://www.w3.org/2000/svg" xmlns:xlink="http://www.w3.org/1999/xlink" viewBox="0 0 197 136"><defs><style>.cls-1{stroke:#f2e1c4;stroke-miterlimit:10;stroke-width:2px;}.cls-1,.cls-2{fill:none;}.cls-3{fill:url(#linear-gradient-12);}.cls-3,.cls-4,.cls-5,.cls-6,.cls-7,.cls-8,.cls-9,.cls-10,.cls-11,.cls-12,.cls-13,.cls-14,.cls-15,.cls-16,.cls-17,.cls-18,.cls-19,.cls-20,.cls-21,.cls-22,.cls-23,.cls-24,.cls-25,.cls-26,.cls-27,.cls-28,.cls-2,.cls-29,.cls-30,.cls-31,.cls-32,.cls-33,.cls-34,.cls-35,.cls-36,.cls-37,.cls-38,.cls-39,.cls-40,.cls-41,.cls-42,.cls-43,.cls-44,.cls-45,.cls-46,.cls-47,.cls-48,.cls-49,.cls-50,.cls-51,.cls-52,.cls-53,.cls-54,.cls-55,.cls-56,.cls-57,.cls-58,.cls-59,.cls-60,.cls-61,.cls-62,.cls-63,.cls-64,.cls-65,.cls-66,.cls-67,.cls-68,.cls-69,.cls-70,.cls-71,.cls-72{stroke-width:0px;}.cls-4{fill:#040f36;}.cls-4,.cls-8,.cls-11,.cls-12,.cls-16,.cls-18,.cls-19,.cls-20,.cls-21,.cls-22,.cls-23,.cls-26,.cls-29,.cls-30,.cls-32,.cls-33,.cls-36,.cls-47,.cls-50,.cls-51,.cls-53,.cls-56,.cls-58,.cls-60,.cls-62,.cls-63,.cls-65,.cls-67,.cls-69,.cls-70{fill-rule:evenodd;}.cls-5{fill:url(#linear-gradient-17);}.cls-6{fill:url(#linear-gradient-19);}.cls-7{fill:url(#linear-gradient);}.cls-8{fill:#8f3028;}.cls-73{mask:url(#mask-10);}.cls-9{fill:#fef2db;}.cls-10{fill:url(#linear-gradient-21);}.cls-74{mask:url(#mask-17);}.cls-11{fill:#041247;}.cls-12{fill:#3754b3;}.cls-13{fill:url(#linear-gradient-6);}.cls-14{fill:#ff570f;}.cls-15,.cls-26{fill:#ffcd36;}.cls-16{fill:#fa5a20;}.cls-17{fill:#dd3441;}.cls-75{mask:url(#mask-2);}.cls-18{fill:#ffae4c;}.cls-19{fill:#314da8;}.cls-20,.cls-34{fill:#85ccff;}.cls-22{fill:#ffac7f;}.cls-23{fill:#ffd7b8;}.cls-76{mask:url(#mask-13);}.cls-24{fill:url(#linear-gradient-15);}.cls-25{fill:url(#linear-gradient-11);}.cls-77{mask:url(#mask-3);}.cls-27{fill:url(#linear-gradient-5);}.cls-28{fill:#a1d8ff;}.cls-29,.cls-42{fill:#ffe57f;}.cls-30{fill:#2b84f0;}.cls-31{fill:#f74a23;}.cls-32{fill:#ff7f0f;}.cls-33{fill:#06aacf;}.cls-78{mask:url(#mask-9);}.cls-79{clip-path:url(#clippath-1);}.cls-80{mask:url(#mask-12);}.cls-81{mask:url(#mask-5);}.cls-35{fill:url(#linear-gradient-13);}.cls-36{fill:#1261c2;}.cls-37{fill:url(#linear-gradient-16);}.cls-38{fill:url(#linear-gradient-22);}.cls-39,.cls-47{fill:#fff;}.cls-40{fill:#314482;}.cls-41{fill:url(#linear-gradient-20);}.cls-82{mask:url(#mask-20);}.cls-43{fill:url(#linear-gradient-14);}.cls-44{fill:url(#linear-gradient-2);}.cls-45{fill:#ff2d03;}.cls-46{fill:#f70;}.cls-83{mask:url(#mask-8);}.cls-48{fill:url(#linear-gradient-7);}.cls-84{mask:url(#mask-4);}.cls-49{fill:url(#linear-gradient-3);}.cls-50,.cls-55{fill:#5c0f0f;}.cls-51{fill:#e02003;}.cls-85{clip-path:url(#clippath);}.cls-86{mask:url(#mask-19);}.cls-87{mask:url(#mask-15);}.cls-52{fill:url(#linear-gradient-9);}.cls-88{mask:url(#mask-6);}.cls-53{fill:#380000;}.cls-89{mask:url(#mask-16);}.cls-54{fill:url(#linear-gradient-8);}.cls-56{fill:#ff8a0d;}.cls-90{mask:url(#mask-18);}.cls-57{fill:url(#linear-gradient-18);}.cls-58{fill:#162e80;}.cls-91{mask:url(#mask-1);}.cls-92{mask:url(#mask);}.cls-59,.cls-67{fill:#fcb90f;}.cls-60,.cls-68{fill:#ffb68f;}.cls-93{mask:url(#mask-7);}.cls-61{fill:url(#linear-gradient-10);}.cls-62{fill:#ffb700;}.cls-63{fill:#48c8f2;}.cls-64{fill:#b8adff;}.cls-65{fill:#0298cf;}.cls-66{fill:url(#linear-gradient-4);}.cls-94{mask:url(#mask-14);}.cls-69{fill:#1d3275;}.cls-95{mask:url(#mask-21);}.cls-96{mask:url(#mask-11);}.cls-70{fill:#d61500;}.cls-71{fill:#050c26;}.cls-72{fill:#d1c0a2;}</style><clipPath id="clippath"><rect class="cls-2" width="197" height="136"/></clipPath><clipPath id="clippath-1"><path class="cls-2" d="m-13.38-122.16V214.75h237.59V-122.16H-13.38Zm226.76,7.38c2.84,0,5.14,2.3,5.14,5.14s-2.3,5.14-5.14,5.14-5.14-2.3-5.14-5.14,2.3-5.14,5.14-5.14Zm0,16.4c2.84,0,5.14,2.3,5.14,5.14s-2.3,5.14-5.14,5.14-5.14-2.3-5.14-5.14,2.3-5.14,5.14-5.14Zm0,59.49c-2.84,0-5.14-2.3-5.14-5.14s2.3-5.14,5.14-5.14,5.14,2.3,5.14,5.14-2.3,5.14-5.14,5.14Zm5.14,11.26c0,2.84-2.3,5.14-5.14,5.14s-5.14-2.3-5.14-5.14,2.3-5.14,5.14-5.14,5.14,2.3,5.14,5.14Zm0-49.21c0,2.84-2.3,5.14-5.14,5.14s-5.14-2.3-5.14-5.14,2.3-5.14,5.14-5.14,5.14,2.3,5.14,5.14Zm-5.14,109.67c2.84,0,5.14,2.3,5.14,5.14s-2.3,5.14-5.14,5.14-5.14-2.3-5.14-5.14,2.3-5.14,5.14-5.14Zm0,174.3c-2.84,0-5.14-2.3-5.14-5.14s2.3-5.14,5.14-5.14,5.14,2.3,5.14,5.14-2.3,5.14-5.14,5.14Zm0-16.4c-2.84,0-5.14-2.3-5.14-5.14s2.3-5.14,5.14-5.14,5.14,2.3,5.14,5.14-2.3,5.14-5.14,5.14Zm0-16.4c-2.84,0-5.14-2.3-5.14-5.14s2.3-5.14,5.14-5.14,5.14,2.3,5.14,5.14-2.3,5.14-5.14,5.14Zm0-16.4c-2.84,0-5.14-2.3-5.14-5.14s2.3-5.14,5.14-5.14,5.14,2.3,5.14,5.14-2.3,5.14-5.14,5.14Zm0-16.4c-2.84,0-5.14-2.3-5.14-5.14s2.3-5.14,5.14-5.14,5.14,2.3,5.14,5.14-2.3,5.14-5.14,5.14Zm0-16.4c-2.84,0-5.14-2.3-5.14-5.14s2.3-5.14,5.14-5.14,5.14,2.3,5.14,5.14-2.3,5.14-5.14,5.14Zm0-16.4c-2.84,0-5.14-2.3-5.14-5.14s2.3-5.14,5.14-5.14,5.14,2.3,5.14,5.14-2.3,5.14-5.14,5.14Zm0-16.4c-2.84,0-5.14-2.3-5.14-5.14s2.3-5.14,5.14-5.14,5.14,2.3,5.14,5.14-2.3,5.14-5.14,5.14Zm0-16.4c-2.84,0-5.14-2.3-5.14-5.14s2.3-5.14,5.14-5.14,5.14,2.3,5.14,5.14-2.3,5.14-5.14,5.14Zm0-16.4c-2.84,0-5.14-2.3-5.14-5.14s2.3-5.14,5.14-5.14,5.14,2.3,5.14,5.14-2.3,5.14-5.14,5.14Zm0-32.8c-2.84,0-5.14-2.3-5.14-5.14s2.3-5.14,5.14-5.14,5.14,2.3,5.14,5.14-2.3,5.14-5.14,5.14Zm0-16.4c-2.84,0-5.14-2.3-5.14-5.14S210.53.03,213.37.03s5.14,2.3,5.14,5.14-2.3,5.14-5.14,5.14Zm0-16.4c-2.84,0-5.14-2.3-5.14-5.14s2.3-5.14,5.14-5.14,5.14,2.3,5.14,5.14-2.3,5.14-5.14,5.14Zm0-49.2c-2.84,0-5.14-2.3-5.14-5.14s2.3-5.14,5.14-5.14,5.14,2.3,5.14,5.14-2.3,5.14-5.14,5.14Z"/></clipPath><linearGradient id="linear-gradient" x1="-263.94" y1="347.12" x2="-290.73" y2="309.75" gradientTransform="translate(352.03 -220.61)" gradientUnits="userSpaceOnUse"><stop offset="0" stop-color="#000"/><stop offset="1" stop-color="#fff"/></linearGradient><mask id="mask" x="51.66" y="81.91" width="32.28" height="32.62" maskUnits="userSpaceOnUse"><rect class="cls-7" x="52.37" y="82.61" width="30.86" height="31.21" transform="translate(-4.52 3.28) rotate(-2.68)"/></mask><linearGradient id="linear-gradient-2" x1="-406.14" y1="341.39" x2="-418.45" y2="331.95" gradientTransform="translate(498.67 -226.82)" xlink:href="#linear-gradient"/><mask id="mask-1" x="82.87" y="106.26" width="5.17" height="5.75" maskUnits="userSpaceOnUse"><rect class="cls-44" x="82.99" y="106.37" width="4.92" height="5.52" transform="translate(-5.01 4.12) rotate(-2.68)"/></mask><linearGradient id="linear-gradient-3" x1="-285.13" y1="463.91" x2="-317.85" y2="489.73" gradientTransform="translate(366.82 -422.06)" xlink:href="#linear-gradient"/><mask id="mask-2" x="53.37" y="46.31" width="11.72" height="26.55" maskUnits="userSpaceOnUse"><rect class="cls-49" x="53.98" y="46.54" width="10.51" height="26.08" transform="translate(-2.72 2.84) rotate(-2.68)"/></mask><linearGradient id="linear-gradient-4" x1="-319.43" y1="593.3" x2="-328.54" y2="583.85" gradientTransform="translate(387.06 -544.19)" xlink:href="#linear-gradient"/><mask id="mask-3" x="57.33" y="38.46" width="8.84" height="9.1" maskUnits="userSpaceOnUse"><rect class="cls-66" x="57.53" y="38.65" width="8.44" height="8.71" transform="translate(-1.94 2.94) rotate(-2.68)"/></mask><linearGradient id="linear-gradient-5" x1="-321.5" y1="601.56" x2="-329.45" y2="596.99" gradientTransform="translate(390.24 -554.8)" xlink:href="#linear-gradient"/><mask id="mask-4" x="58.08" y="40.51" width="7.99" height="4.83" maskUnits="userSpaceOnUse"><rect class="cls-27" x="58.18" y="40.69" width="7.79" height="4.48" transform="translate(-1.94 2.95) rotate(-2.68)"/></mask><linearGradient id="linear-gradient-6" x1="-249.97" y1="474.05" x2="-245.28" y2="463.1" gradientTransform="translate(288.16 -388.97)" xlink:href="#linear-gradient"/><mask id="mask-5" x="38.31" y="74.84" width="6.21" height="5.41" maskUnits="userSpaceOnUse"><rect class="cls-13" x="38.43" y="74.98" width="5.98" height="5.13" transform="translate(-3.58 2.02) rotate(-2.68)"/></mask><linearGradient id="linear-gradient-7" x1="-371.71" y1="489.88" x2="-385.38" y2="484.03" gradientTransform="translate(459.1 -422.66)" xlink:href="#linear-gradient"/><mask id="mask-6" x="72.67" y="53.05" width="7.53" height="18.95" maskUnits="userSpaceOnUse"><rect class="cls-48" x="73.1" y="53.2" width="6.66" height="18.66" transform="translate(-2.84 3.64) rotate(-2.68)"/></mask><linearGradient id="linear-gradient-8" x1="-371.71" y1="489.88" x2="-385.38" y2="484.03" gradientTransform="translate(459.1 -422.66)" xlink:href="#linear-gradient"/><mask id="mask-7" x="72.67" y="53.05" width="7.53" height="18.95" maskUnits="userSpaceOnUse"><rect class="cls-54" x="73.1" y="53.2" width="6.66" height="18.66" transform="translate(-2.84 3.64) rotate(-2.68)"/></mask><linearGradient id="linear-gradient-9" x1="-371.71" y1="489.88" x2="-385.38" y2="484.03" gradientTransform="translate(459.1 -422.66)" xlink:href="#linear-gradient"/><mask id="mask-8" x="72.67" y="53.05" width="7.53" height="18.95" maskUnits="userSpaceOnUse"><rect class="cls-52" x="73.1" y="53.2" width="6.66" height="18.66" transform="translate(-2.84 3.64) rotate(-2.68)"/></mask><linearGradient id="linear-gradient-10" x1="-333.62" y1="474.13" x2="-347.3" y2="478.16" gradientTransform="translate(409.45 -414.86)" xlink:href="#linear-gradient"/><mask id="mask-9" x="62.28" y="49.35" width="10.75" height="24.66" maskUnits="userSpaceOnUse"><rect class="cls-61" x="62.84" y="49.56" width="9.62" height="24.24" transform="translate(-2.81 3.23) rotate(-2.68)"/></mask><linearGradient id="linear-gradient-11" x1="-283.01" y1="497.7" x2="-294.16" y2="501.22" gradientTransform="translate(342.65 -439.97)" xlink:href="#linear-gradient"/><mask id="mask-10" x="48.57" y="50.33" width="8.8" height="19.01" maskUnits="userSpaceOnUse"><rect class="cls-25" x="49" y="50.5" width="7.94" height="18.66" transform="translate(-2.74 2.54) rotate(-2.68)"/></mask><linearGradient id="linear-gradient-12" x1="-236.44" y1="450.4" x2="-259.74" y2="462.54" gradientTransform="translate(300.49 -392.21)" xlink:href="#linear-gradient"/><mask id="mask-11" x="39.9" y="51.36" width="20.44" height="28.19" maskUnits="userSpaceOnUse"><rect class="cls-3" x="40.53" y="51.79" width="19.18" height="27.32" transform="translate(-3.01 2.42) rotate(-2.68)"/></mask><linearGradient id="linear-gradient-13" x1="-408.62" y1="470.53" x2="-398.73" y2="466.61" gradientTransform="translate(481.13 -403.66)" xlink:href="#linear-gradient"/><mask id="mask-12" x="77.13" y="51.42" width="7.36" height="24.33" maskUnits="userSpaceOnUse"><rect class="cls-35" x="77.68" y="51.55" width="6.24" height="24.06" transform="translate(-2.89 3.85) rotate(-2.68)"/></mask><linearGradient id="linear-gradient-14" x1="-374.5" y1="487.49" x2="-356.64" y2="483.31" gradientTransform="translate(435.79 -425.16)" xlink:href="#linear-gradient"/><mask id="mask-13" x="67.65" y="47.81" width="9.36" height="23.86" maskUnits="userSpaceOnUse"><rect class="cls-43" x="68.2" y="47.99" width="8.27" height="23.5" transform="translate(-2.72 3.45) rotate(-2.68)"/></mask><linearGradient id="linear-gradient-15" x1="-289.28" y1="478.83" x2="-269.67" y2="479.28" gradientTransform="translate(326.83 -417.68)" xlink:href="#linear-gradient"/><mask id="mask-14" x="45.25" y="49.01" width="19.67" height="25.09" maskUnits="userSpaceOnUse"><rect class="cls-24" x="45.81" y="49.44" width="18.56" height="24.24" transform="translate(-2.82 2.64) rotate(-2.68)"/></mask><linearGradient id="linear-gradient-16" x1="-331.5" y1="464.07" x2="-339.65" y2="467.81" gradientTransform="translate(401.99 -390.07)" xlink:href="#linear-gradient"/><mask id="mask-15" x="61.72" y="73.23" width="8" height="5.93" maskUnits="userSpaceOnUse"><rect class="cls-37" x="61.84" y="73.41" width="7.75" height="5.58" transform="translate(-3.49 3.16) rotate(-2.68)"/></mask><linearGradient id="linear-gradient-17" x1="-371.62" y1="484.6" x2="-360.79" y2="480.46" gradientTransform="translate(442.25 -410.09)" xlink:href="#linear-gradient"/><mask id="mask-16" x="69.95" y="71.1" width="9.67" height="3.64" maskUnits="userSpaceOnUse"><rect class="cls-5" x="70.02" y="71.33" width="9.53" height="3.19" transform="translate(-3.33 3.58) rotate(-2.68)"/></mask><linearGradient id="linear-gradient-18" x1="-364.14" y1="601.43" x2="-357.59" y2="598.05" gradientTransform="translate(425.89 -562.14)" xlink:href="#linear-gradient"/><mask id="mask-17" x="64.98" y="29.8" width="3.72" height="13.74" maskUnits="userSpaceOnUse"><rect class="cls-57" x="65.3" y="29.86" width="3.09" height="13.61" transform="translate(-1.64 3.17) rotate(-2.68)"/></mask><linearGradient id="linear-gradient-19" x1="-318.31" y1="611.66" x2="-326.35" y2="604.02" gradientTransform="translate(382.09 -571)" xlink:href="#linear-gradient"/><mask id="mask-18" x="55.97" y="29.95" width="5.81" height="12.11" maskUnits="userSpaceOnUse"><rect class="cls-6" x="56.24" y="30.06" width="5.26" height="11.88" transform="translate(-1.62 2.79) rotate(-2.68)"/></mask><linearGradient id="linear-gradient-20" x1="-321.15" y1="625.94" x2="-331.12" y2="619.5" gradientTransform="translate(385.88 -586.31)" xlink:href="#linear-gradient"/><mask id="mask-19" x="56.97" y="34.75" width="6.82" height="4.14" maskUnits="userSpaceOnUse"><rect class="cls-41" x="57.06" y="34.9" width="6.65" height="3.83" transform="translate(-1.66 2.86) rotate(-2.68)"/></mask><linearGradient id="linear-gradient-21" x1="-318" y1="627.5" x2="-315.27" y2="632.24" gradientTransform="translate(372.98 -599.53)" xlink:href="#linear-gradient"/><mask id="mask-20" x="53.97" y="26.34" width="5.85" height="9.91" maskUnits="userSpaceOnUse"><rect class="cls-10" x="54.19" y="26.47" width="5.4" height="9.67" transform="translate(-1.4 2.7) rotate(-2.68)"/></mask><linearGradient id="linear-gradient-22" x1="-351.22" y1="639.46" x2="-344.6" y2="639.46" gradientTransform="translate(413.72 -610.49)" xlink:href="#linear-gradient"/><mask id="mask-21" x="62.29" y="24.25" width="7.04" height="9.44" maskUnits="userSpaceOnUse"><rect class="cls-38" x="62.5" y="24.4" width="6.62" height="9.14" transform="translate(-1.28 3.11) rotate(-2.68)"/></mask></defs><g class="cls-85"><rect class="cls-17" x="-24.71" y="-129.97" width="252.16" height="356.79" rx="5.48" ry="5.48"/><path class="cls-72" d="m-13.38-120.03V219.02h237.59V-120.03H-13.38Zm226.76,7.38c2.84,0,5.14,2.3,5.14,5.14s-2.3,5.14-5.14,5.14-5.14-2.3-5.14-5.14,2.3-5.14,5.14-5.14Zm0,16.4c2.84,0,5.14,2.3,5.14,5.14s-2.3,5.14-5.14,5.14-5.14-2.3-5.14-5.14,2.3-5.14,5.14-5.14Zm0,59.49c-2.84,0-5.14-2.3-5.14-5.14s2.3-5.14,5.14-5.14,5.14,2.3,5.14,5.14-2.3,5.14-5.14,5.14Zm5.14,11.26c0,2.84-2.3,5.14-5.14,5.14s-5.14-2.3-5.14-5.14,2.3-5.14,5.14-5.14,5.14,2.3,5.14,5.14Zm0-49.21c0,2.84-2.3,5.14-5.14,5.14s-5.14-2.3-5.14-5.14,2.3-5.14,5.14-5.14,5.14,2.3,5.14,5.14Zm-5.14,109.67c2.84,0,5.14,2.3,5.14,5.14s-2.3,5.14-5.14,5.14-5.14-2.3-5.14-5.14,2.3-5.14,5.14-5.14Zm0,174.3c-2.84,0-5.14-2.3-5.14-5.14s2.3-5.14,5.14-5.14,5.14,2.3,5.14,5.14-2.3,5.14-5.14,5.14Zm0-16.4c-2.84,0-5.14-2.3-5.14-5.14s2.3-5.14,5.14-5.14,5.14,2.3,5.14,5.14-2.3,5.14-5.14,5.14Zm0-16.4c-2.84,0-5.14-2.3-5.14-5.14s2.3-5.14,5.14-5.14,5.14,2.3,5.14,5.14-2.3,5.14-5.14,5.14Zm0-16.4c-2.84,0-5.14-2.3-5.14-5.14s2.3-5.14,5.14-5.14,5.14,2.3,5.14,5.14-2.3,5.14-5.14,5.14Zm0-16.4c-2.84,0-5.14-2.3-5.14-5.14s2.3-5.14,5.14-5.14,5.14,2.3,5.14,5.14-2.3,5.14-5.14,5.14Zm0-16.4c-2.84,0-5.14-2.3-5.14-5.14s2.3-5.14,5.14-5.14,5.14,2.3,5.14,5.14-2.3,5.14-5.14,5.14Zm0-16.4c-2.84,0-5.14-2.3-5.14-5.14s2.3-5.14,5.14-5.14,5.14,2.3,5.14,5.14-2.3,5.14-5.14,5.14Zm0-16.4c-2.84,0-5.14-2.3-5.14-5.14s2.3-5.14,5.14-5.14,5.14,2.3,5.14,5.14-2.3,5.14-5.14,5.14Zm0-16.4c-2.84,0-5.14-2.3-5.14-5.14s2.3-5.14,5.14-5.14,5.14,2.3,5.14,5.14-2.3,5.14-5.14,5.14Zm0-16.4c-2.84,0-5.14-2.3-5.14-5.14s2.3-5.14,5.14-5.14,5.14,2.3,5.14,5.14-2.3,5.14-5.14,5.14Zm0-32.8c-2.84,0-5.14-2.3-5.14-5.14s2.3-5.14,5.14-5.14,5.14,2.3,5.14,5.14-2.3,5.14-5.14,5.14Zm0-16.4c-2.84,0-5.14-2.3-5.14-5.14s2.3-5.14,5.14-5.14,5.14,2.3,5.14,5.14-2.3,5.14-5.14,5.14Zm0-16.4c-2.84,0-5.14-2.3-5.14-5.14s2.3-5.14,5.14-5.14,5.14,2.3,5.14,5.14-2.3,5.14-5.14,5.14Zm0-49.2c-2.84,0-5.14-2.3-5.14-5.14s2.3-5.14,5.14-5.14,5.14,2.3,5.14,5.14-2.3,5.14-5.14,5.14Z"/><g class="cls-79"><path class="cls-9" d="m-13.38-122.16V214.75h237.59V-122.16H-13.38Zm226.76,7.38c2.84,0,5.14,2.3,5.14,5.14s-2.3,5.14-5.14,5.14-5.14-2.3-5.14-5.14,2.3-5.14,5.14-5.14Zm0,16.4c2.84,0,5.14,2.3,5.14,5.14s-2.3,5.14-5.14,5.14-5.14-2.3-5.14-5.14,2.3-5.14,5.14-5.14Zm0,59.49c-2.84,0-5.14-2.3-5.14-5.14s2.3-5.14,5.14-5.14,5.14,2.3,5.14,5.14-2.3,5.14-5.14,5.14Zm5.14,11.26c0,2.84-2.3,5.14-5.14,5.14s-5.14-2.3-5.14-5.14,2.3-5.14,5.14-5.14,5.14,2.3,5.14,5.14Zm0-49.21c0,2.84-2.3,5.14-5.14,5.14s-5.14-2.3-5.14-5.14,2.3-5.14,5.14-5.14,5.14,2.3,5.14,5.14Zm-5.14,109.67c2.84,0,5.14,2.3,5.14,5.14s-2.3,5.14-5.14,5.14-5.14-2.3-5.14-5.14,2.3-5.14,5.14-5.14Zm0,174.3c-2.84,0-5.14-2.3-5.14-5.14s2.3-5.14,5.14-5.14,5.14,2.3,5.14,5.14-2.3,5.14-5.14,5.14Zm0-16.4c-2.84,0-5.14-2.3-5.14-5.14s2.3-5.14,5.14-5.14,5.14,2.3,5.14,5.14-2.3,5.14-5.14,5.14Zm0-16.4c-2.84,0-5.14-2.3-5.14-5.14s2.3-5.14,5.14-5.14,5.14,2.3,5.14,5.14-2.3,5.14-5.14,5.14Zm0-16.4c-2.84,0-5.14-2.3-5.14-5.14s2.3-5.14,5.14-5.14,5.14,2.3,5.14,5.14-2.3,5.14-5.14,5.14Zm0-16.4c-2.84,0-5.14-2.3-5.14-5.14s2.3-5.14,5.14-5.14,5.14,2.3,5.14,5.14-2.3,5.14-5.14,5.14Zm0-16.4c-2.84,0-5.14-2.3-5.14-5.14s2.3-5.14,5.14-5.14,5.14,2.3,5.14,5.14-2.3,5.14-5.14,5.14Zm0-16.4c-2.84,0-5.14-2.3-5.14-5.14s2.3-5.14,5.14-5.14,5.14,2.3,5.14,5.14-2.3,5.14-5.14,5.14Zm0-16.4c-2.84,0-5.14-2.3-5.14-5.14s2.3-5.14,5.14-5.14,5.14,2.3,5.14,5.14-2.3,5.14-5.14,5.14Zm0-16.4c-2.84,0-5.14-2.3-5.14-5.14s2.3-5.14,5.14-5.14,5.14,2.3,5.14,5.14-2.3,5.14-5.14,5.14Zm0-16.4c-2.84,0-5.14-2.3-5.14-5.14s2.3-5.14,5.14-5.14,5.14,2.3,5.14,5.14-2.3,5.14-5.14,5.14Zm0-32.8c-2.84,0-5.14-2.3-5.14-5.14s2.3-5.14,5.14-5.14,5.14,2.3,5.14,5.14-2.3,5.14-5.14,5.14Zm0-16.4c-2.84,0-5.14-2.3-5.14-5.14S210.53.03,213.37.03s5.14,2.3,5.14,5.14-2.3,5.14-5.14,5.14Zm0-16.4c-2.84,0-5.14-2.3-5.14-5.14s2.3-5.14,5.14-5.14,5.14,2.3,5.14,5.14-2.3,5.14-5.14,5.14Zm0-49.2c-2.84,0-5.14-2.3-5.14-5.14s2.3-5.14,5.14-5.14,5.14,2.3,5.14,5.14-2.3,5.14-5.14,5.14Z"/><line class="cls-1" x1="-13.38" y1=".92" x2="224.21" y2=".92"/><line class="cls-1" x1="-13.38" y1="9.9" x2="224.21" y2="9.9"/><line class="cls-1" x1="-13.38" y1="18.88" x2="224.21" y2="18.88"/><line class="cls-1" x1="-13.38" y1="27.86" x2="224.21" y2="27.86"/><line class="cls-1" x1="-13.38" y1="36.84" x2="224.21" y2="36.84"/><line class="cls-1" x1="-13.38" y1="45.82" x2="224.21" y2="45.82"/><line class="cls-1" x1="-13.38" y1="54.8" x2="224.21" y2="54.8"/><line class="cls-1" x1="-13.38" y1="63.78" x2="224.21" y2="63.78"/><line class="cls-1" x1="-13.38" y1="72.76" x2="224.21" y2="72.76"/><line class="cls-1" x1="-13.38" y1="81.74" x2="224.21" y2="81.74"/><line class="cls-1" x1="-13.38" y1="90.72" x2="224.21" y2="90.72"/><line class="cls-1" x1="-13.38" y1="99.7" x2="224.21" y2="99.7"/><line class="cls-1" x1="-13.38" y1="108.68" x2="224.21" y2="108.68"/><line class="cls-1" x1="-13.38" y1="117.66" x2="224.21" y2="117.66"/><line class="cls-1" x1="-13.38" y1="126.64" x2="224.21" y2="126.64"/><line class="cls-1" x1="-13.38" y1="135.62" x2="224.21" y2="135.62"/><line class="cls-1" x1="197.83" y1="-122.34" x2="197.83" y2="214.75"/><line class="cls-1" x1="183.67" y1="-122.34" x2="183.67" y2="214.75"/><line class="cls-1" x1="169.52" y1="-122.34" x2="169.52" y2="214.75"/><line class="cls-1" x1="155.37" y1="-122.34" x2="155.37" y2="214.75"/><line class="cls-1" x1="141.22" y1="-122.34" x2="141.22" y2="214.75"/><line class="cls-1" x1="127.06" y1="-122.34" x2="127.06" y2="214.75"/><line class="cls-1" x1="112.91" y1="-122.34" x2="112.91" y2="214.75"/><line class="cls-1" x1="98.76" y1="-122.34" x2="98.76" y2="214.75"/><line class="cls-1" x1="84.6" y1="-122.34" x2="84.6" y2="214.75"/><line class="cls-1" x1="70.45" y1="-122.34" x2="70.45" y2="214.75"/><line class="cls-1" x1="56.3" y1="-122.34" x2="56.3" y2="214.75"/><line class="cls-1" x1="42.15" y1="-122.34" x2="42.15" y2="214.75"/><line class="cls-1" x1="27.99" y1="-122.34" x2="27.99" y2="214.75"/><line class="cls-1" x1="13.84" y1="-122.34" x2="13.84" y2="214.75"/><line class="cls-1" x1="-.31" y1="-122.34" x2="-.31" y2="214.75"/></g><rect class="cls-15" x="27.03" y="50.37" width="12.03" height=".81" rx=".41" ry=".41" transform="translate(-2.34 1.6) rotate(-2.68)"/><rect class="cls-15" x="27.13" y="52.53" width="18.33" height=".81" rx=".41" ry=".41" transform="translate(-2.44 1.76) rotate(-2.68)"/><rect class="cls-15" x="27.24" y="54.96" width="14.72" height=".81" rx=".41" ry=".41" transform="translate(-2.55 1.68) rotate(-2.68)"/><rect class="cls-34" x="114.39" y="82.13" width="6.08" height="32.2" transform="translate(-4.47 5.6) rotate(-2.68)"/><rect class="cls-34" x="125.12" y="88.17" width="6.08" height="25.66" transform="translate(-4.58 6.11) rotate(-2.68)"/><rect class="cls-34" x="135.24" y="87.7" width="6.08" height="25.66" transform="translate(-4.55 6.58) rotate(-2.68)"/><rect class="cls-34" x="145.13" y="70.91" width="6.08" height="41.98" transform="translate(-4.14 7.03) rotate(-2.68)"/><rect class="cls-34" x="155.81" y="62.82" width="6.08" height="49.56" transform="translate(-3.92 7.53) rotate(-2.68)"/><rect class="cls-34" x="166.88" y="62.3" width="6.08" height="49.56" transform="translate(-3.89 8.04) rotate(-2.68)"/><rect class="cls-34" x="177.36" y="48.53" width="6.08" height="62.83" transform="translate(-3.54 8.53) rotate(-2.68)"/><path class="cls-26" d="m98.22,90.83c3.96-2.11,7.82-4.51,7.08-9.46-.23-1.57-.8-3.44-1.71-5.6-2.63.34-4.77.84-6.41,1.51-1.42.58-2.36,1.26-3,2.06-1.07,1.36-1.28,3.54-1.38,5.27-.08,1.43-.28,2.62-.64,2.75-1.47.53-.81-5.49.02-7.09-1.11.54-3.22,2.08-4.61,3.75-2.44,2.94-1.05,5.4-.35,8.49.95,4.22-3.15.12-2.98-2.82-2.84,7,1.52,10.45,6.45,8.06-1.98,6.75,6.92,5.81,10.23.57-1.39.31-5.07.51-6.05-.76-.16-.21-.18-.4-.07-.55.14-.19.46-.26.83-.27,3.17-.13,6.38,1.25,8.34-2.71.56-1.13.92-2.4,1.1-3.27.23-1.14.3-2.32.21-3.49-1.2,1.63-5.63,5.02-7.64,4.79-.64-.07-.55-.65.57-1.23Z"/><path class="cls-39" d="m104.21,81.07c-.13-.05-.27.02-.31.15-.46,1.26-1.23,2.37-2.22,3.22-.93.81-2.06,1.39-3.29,1.69,1.57-2.8,3.16-5.86,4.79-9.2.07-.14,0-.31-.13-.37-.14-.07-.31,0-.37.13-2.23,4.57-4.4,8.64-6.51,12.18-.69-1.31-1.07-2.73-1.14-4.17-.07-1.6.24-3.21.94-4.7.06-.12,0-.27-.12-.32-.12-.06-.27,0-.32.12-.74,1.56-1.07,3.25-.99,4.93.07,1.61.52,3.2,1.33,4.63-1.5,2.49-2.96,4.72-4.39,6.69-1.23-1.92-1.95-4.07-2.16-6.28-.22-2.31.14-4.68,1.09-6.88.05-.12,0-.27-.13-.32-.12-.05-.27,0-.32.13-.98,2.28-1.35,4.72-1.13,7.11.22,2.34,1,4.63,2.33,6.65-4.16,5.63-8.06,9.05-11.68,10.25-.15.05-.23.21-.18.35.05.15.21.23.35.18,4.26-1.41,8.86-5.77,13.8-13.08.02.02.05.03.08.04,1.74.4,3.52.37,5.21-.06,1.68-.43,3.26-1.26,4.6-2.45.1-.09.11-.24.02-.34-.09-.1-.24-.11-.34-.02-1.27,1.14-2.78,1.93-4.39,2.34-1.58.4-3.25.44-4.89.07,1.42-2.13,2.88-4.51,4.36-7.12.05.03.11.04.17.03,1.4-.29,2.67-.94,3.72-1.85,1.05-.91,1.87-2.08,2.36-3.42.05-.13-.02-.27-.15-.31Z"/><polygon class="cls-36" points="115.46 54.09 123.46 85.35 130.92 85 122.92 53.74 115.46 54.09"/><polygon class="cls-36" points="147.18 37.62 159.61 59.86 167.26 59.5 154.83 37.26 147.18 37.62"/><polygon class="cls-30" points="89.38 113.98 96.97 113.62 122.85 53.74 115.25 54.1 89.38 113.98"/><polygon class="cls-30" points="126.52 85.21 134.11 84.85 154.67 37.27 147.08 37.63 126.52 85.21"/><polygon class="cls-30" points="171.5 23.6 174.84 24.74 159.66 59.86 167.26 59.5 181.32 26.96 184.57 28.08 180.93 17.41 171.5 23.6"/><path class="cls-26" d="m32.89,86.3c-.1-2.4.45-4.48-1.92-6.15-1.35-.95-3.19-1.67-4.11-1.85.93,1.01,2.59,5.29,1.41,5.19-.29-.02-.67-.85-1.01-1.89-.41-1.25-.99-2.81-2.04-3.59-.62-.46-1.44-.78-2.6-.92-1.33-.17-2.99-.12-4.99.15-.24,1.76-.29,3.24-.16,4.44.43,3.78,3.73,4.77,7.04,5.54.93.21,1.11.61.66.79-1.43.57-5.34-1.05-6.54-2.01.16.88.44,1.72.84,2.52.3.6.81,1.46,1.44,2.18,2.21,2.51,4.29.88,6.64.35.28-.06.53-.07.66.04.11.09.13.24.06.42-.47,1.12-3.21,1.7-4.28,1.75,3.45,3.2,10.15,2.14,7.38-2.42,4.08.78,6.6-2.6,3.15-7.17.71,2.12-1.5,5.93-1.63,2.65Z"/><path class="cls-39" d="m41.34,95.19c-2.89-.17-6.41-1.91-10.56-5.22.58-1.74.7-3.57.41-5.33-.31-1.8-1.05-3.52-2.22-4.99-.06-.08-.18-.09-.26-.03-.08.06-.09.18-.03.26,1.13,1.43,1.85,3.09,2.14,4.83.28,1.66.17,3.38-.35,5.02-1.44-1.16-2.95-2.51-4.53-4.04.31-1.21.33-2.46.07-3.66-.27-1.24-.84-2.42-1.69-3.42-.07-.08-.18-.09-.26-.02-.08.07-.09.18-.02.26.81.95,1.35,2.07,1.61,3.26.23,1.07.23,2.19-.01,3.28-2.24-2.18-4.62-4.73-7.16-7.65-.08-.09-.21-.1-.3-.02-.09.08-.1.21-.02.3,1.85,2.13,3.62,4.06,5.31,5.8-.96.03-1.9-.18-2.74-.59-.89-.43-1.67-1.09-2.26-1.92-.06-.08-.17-.1-.26-.05-.08.06-.1.17-.05.26.62.89,1.45,1.58,2.4,2.04.95.46,2.01.68,3.09.62.05,0,.09-.02.12-.05,1.6,1.63,3.13,3.08,4.59,4.37-1.13.59-2.36.89-3.59.9-1.26.01-2.52-.27-3.68-.85-.09-.05-.2,0-.25.08-.05.09,0,.2.08.25,1.21.61,2.53.91,3.85.89,1.32-.01,2.63-.34,3.82-.98.02-.01.04-.03.05-.04,5.05,4.38,9.27,6.68,12.67,6.88.12,0,.22-.08.23-.2,0-.12-.08-.22-.2-.22Z"/><path class="cls-56" d="m35.19,93.68c1.59,2.39.14,7.85-1.12,3.83-.93-2.94-.96-5.7-4.45-6.97-1.99-.73-4.52-.99-5.72-.9,1.49.94,4.99,5.68,3.49,5.95-.36.07-1.12-.83-1.88-2-.93-1.42-2.17-3.15-3.74-3.76-.93-.36-2.05-.48-3.53-.27-1.7.24-3.75.86-6.13,1.86.29,2.26.73,4.11,1.3,5.55,1.81,4.53,6.23,4.65,10.59,4.49,1.23-.06,1.58.38,1.08.75-1.58,1.18-6.97.5-8.78-.29.5,1.03,1.13,1.99,1.88,2.84.57.64,1.49,1.53,2.52,2.21,3.58,2.37,5.61-.36,8.34-1.8.32-.17.63-.27.83-.18.17.07.24.25.21.5-.21,1.55-3.4,3.19-4.72,3.61,5.35,2.8,13.3-.77,8.33-5.48,5.32-.41,7.3-5.44,1.48-9.94Z"/><path class="cls-39" d="m47.53,105.67c-3.64.76-8.59-.21-14.85-2.91.13-2.35-.33-4.66-1.29-6.74-.98-2.12-2.49-4-4.43-5.43-.11-.08-.25-.06-.33.05-.08.11-.06.25.05.33,1.87,1.39,3.33,3.2,4.28,5.25.91,1.96,1.35,4.12,1.26,6.34-2.17-.96-4.5-2.12-6.97-3.48-.02-1.61-.42-3.16-1.15-4.55-.76-1.45-1.86-2.71-3.25-3.66-.11-.07-.26-.05-.33.06-.07.11-.05.26.06.33,1.32.91,2.38,2.11,3.1,3.49.65,1.24,1.03,2.63,1.09,4.06-3.51-1.95-7.32-4.31-11.44-7.06-.13-.08-.29-.05-.38.07-.08.12-.05.29.07.38,3.01,2.01,5.85,3.81,8.54,5.39-1.18.36-2.42.41-3.6.19-1.25-.24-2.44-.78-3.44-1.62-.1-.08-.25-.07-.33.03-.08.1-.07.25.03.33,1.07.89,2.33,1.47,3.66,1.72,1.33.25,2.71.17,4.04-.27.06-.02.1-.06.13-.11,2.53,1.48,4.91,2.77,7.15,3.86-1.2,1.11-2.62,1.9-4.15,2.33-1.55.44-3.21.52-4.84.18-.13-.03-.25.06-.28.19-.03.13.06.25.19.28,1.7.35,3.44.27,5.07-.19,1.63-.46,3.14-1.31,4.41-2.5.02-.02.04-.04.05-.07,7.74,3.73,13.74,5.14,18.01,4.25.15-.03.24-.18.21-.32-.03-.15-.18-.24-.32-.21Z"/><path class="cls-63" d="m41.31,92.12c6.83-1.29,11.65-7.45,11.25-14.39,0,0-6.47,1.59-19.41,4.77,5.44,6.42,8.16,9.63,8.16,9.63Z"/><polygon class="cls-63" points="47.08 118.95 84.65 114.23 83.15 82.05 45.57 86.77 47.08 118.95"/><polygon class="cls-33" points="34.66 114.67 47.08 118.95 45.57 86.77 33.15 82.49 34.66 114.67"/><g class="cls-92"><path class="cls-65" d="m77.96,82.45c-21.62-.28-29.8,2.64-24.54,8.76,4.07,10.79,6.79,18.43,8.16,22.92,2.3-.38,4.33-1.72,5.6-3.68,2.38-3.69.73-6.84.34-10.35-.85-7.68,6.09-13.63,14.37-11.57.98-1.29,1.05-3.06.17-4.42-.88-1.36-2.52-2.03-4.1-1.66Z"/></g><rect class="cls-68" x="82.4" y="104.32" width="7.54" height="8.19" transform="translate(-4.98 4.15) rotate(-2.68)"/><g class="cls-91"><path class="cls-16" d="m83.09,111.32c1.11.71,2.52.78,3.7.18-.64-.77-.9-1.79-.7-2.77.19-.98.82-1.83,1.7-2.3-3.28.04-4.92.05-4.92.05.15,3.22.22,4.83.22,4.83Z"/></g><path class="cls-18" d="m53.51,47.67c-1.48,13.64-2.22,20.46-2.22,20.46,4.61,3.76,10.95,4.63,16.4,2.24.58-16.56.88-24.84.88-24.84-8.41-.76-13.43-.04-15.06,2.14Z"/><g class="cls-75"><path class="cls-32" d="m62.38,48.37c-3.01-1.36-4.87-1.93-5.58-1.7-1.53,16.14-2.3,24.22-2.3,24.22,1.53,1.42,3.65,2.02,5.7,1.64,2.05-.38,3.81-1.71,4.73-3.58-5.59-5.4-6.65-13.97-2.55-20.58Z"/></g><polygon class="cls-60" points="53.91 109.51 54.98 117.65 62.08 117.32 61.01 109.18 53.91 109.51"/><path class="cls-4" d="m82.59,72.72l-37.91,1.85c-2.59,1.09-4.25,3.66-4.16,6.47.09,2.81,1.9,5.27,4.55,6.2.72,3.77,3.76,12.3,9.12,25.58,2.59.57,5.29-.13,7.27-1.9-1.08-7.06-2.11-18.8-4.45-25.2,10.28-.29,16.99-.87,23.55-2.29-1.78,4.22.26,13.5.94,18.63.15,1.12.33,2.43.53,3.92,2.53,1.77,5.54,1.79,8.08.04l2.28-24.92c.61-2.17.1-4.5-1.37-6.21-2.45-2.85-5.19-2.31-8.44-2.18Z"/><path class="cls-40" d="m43.56,83.43c-.16-1.33.08-2.71.75-3.95.06-.11.02-.25-.09-.31-.11-.06-.25-.02-.31.09-.72,1.32-.98,2.8-.81,4.22.17,1.42.78,2.8,1.8,3.9.09.09.23.1.32.01.09-.09.1-.23.01-.32-.95-1.04-1.52-2.32-1.68-3.65Z"/><path class="cls-58" d="m38.62,86.29c.73-1.3,1.93-2.26,3.36-2.69-.63-2.88.63-5.85,3.14-7.4-2.11-1.28-3.16-1.93-3.16-1.93-3.97,2.71-4.84,7.54-3.34,12.02Z"/><path class="cls-40" d="m64.46,78.98c-.12-.05-.25,0-.3.12-.6,1.44-1.53,2.7-2.7,3.69-1.16.98-2.55,1.7-4.08,2.05-.01,0-.03,0-.04.01.09-1.25-.06-2.5-.42-3.68-.45-1.46-1.23-2.82-2.31-3.96-.09-.09-.23-.1-.32,0-.09.09-.1.23,0,.32,1.03,1.09,1.78,2.39,2.21,3.78.43,1.4.54,2.89.31,4.37-.02.12.07.24.19.26.12.02.24-.07.26-.19.03-.17.05-.33.07-.5.05.04.12.05.18.03,1.6-.37,3.05-1.12,4.27-2.15,1.22-1.03,2.19-2.35,2.82-3.86.05-.12,0-.25-.12-.3Z"/><path class="cls-40" d="m80.32,80.19c.16-1.05.62-2.05,1.37-2.87.74-.82,1.7-1.37,2.72-1.63,1.03-.26,2.13-.22,3.17.15.12.04.25-.02.29-.14.04-.12-.02-.25-.14-.29-1.13-.4-2.32-.44-3.43-.16-1.11.28-2.15.88-2.95,1.77-.8.89-1.31,1.97-1.48,3.1-.17,1.13-.02,2.32.49,3.4.05.11.19.16.3.11.11-.05.16-.19.11-.3-.47-1-.61-2.09-.45-3.14Z"/><path class="cls-40" d="m86.69,86.1c-.84.26-1.7.37-2.56.33-.86-.04-1.71-.22-2.53-.55-.12-.05-.25,0-.3.13-.05.12,0,.25.13.3.86.35,1.76.55,2.68.59.91.04,1.83-.08,2.72-.35.12-.04.19-.17.15-.29-.04-.12-.17-.19-.29-.15Z"/><path class="cls-40" d="m88.02,80.95c-.79,1.09-1.81,1.96-2.97,2.56-1.16.6-2.47.93-3.81.93-.13,0-.23.1-.23.23,0,.13.1.23.23.23,1.42,0,2.79-.35,4.02-.98,1.23-.63,2.31-1.55,3.13-2.7.07-.1.05-.25-.05-.32-.1-.07-.25-.05-.32.05Z"/><path class="cls-58" d="m75.3,69.99l-.02-.41c0-.06-.01-.11-.03-.16l-.05-1.07c.02-.08.04-.15.03-.24,0-.1-.01-.18-.05-.27-.02-.05-.04-.1-.07-.15-.02-.04-.04-.08-.07-.12-.02-.06-.06-.12-.1-.17-.02-.03-.03-.06-.05-.09-.01-.03-.03-.05-.04-.08,0-.01-.01-.03-.02-.04-.02-.05-.04-.09-.07-.13-.02-.05-.05-.09-.08-.13-.02-.03-.04-.07-.07-.1-.03-.05-.06-.1-.09-.14-.01-.02-.03-.04-.04-.06-.04-.06-.09-.11-.14-.16-.06-.08-.12-.13-.19-.2-.02-.02-.04-.04-.07-.05-.06-.07-.13-.12-.21-.17l.06.03s-.05-.06-.08-.09c0-.05-.02-.1-.04-.15-.02-.07-.06-.14-.11-.2-.01-.04-.03-.07-.05-.11-.01-.03-.03-.07-.05-.1,0-.02-.02-.04-.03-.06-.01-.06-.03-.11-.06-.16v-.04s-.03-.06-.04-.09c-.01-.06-.04-.11-.06-.17-.01-.03-.03-.07-.04-.1v-.02c-.13-.32-.5-.51-.8-.35-.25.14-.4.49-.35.79,0,.03.01.05.02.08.01.06.03.11.06.17.01.03.03.07.04.1,0,.03.01.06.02.1,0,.02,0,.04.01.05-.25.09-.42.33-.41.61l.02.37s-.02.07-.03.11c0,.03-.02.05-.03.08-.03.05-.04.11-.05.17-.02.04-.03.08-.03.12-.01.03-.02.07-.03.1-.02.03-.03.06-.04.09-.03.06-.05.13-.06.2,0,.02-.02.05-.02.08,0,.02-.01.04-.02.06,0,.02-.01.04-.02.06-.01.03-.02.06-.02.09-.02.06-.04.12-.04.19h0c-.02.06-.03.11-.03.17-.02.05-.03.11-.03.16,0,.03-.01.07-.02.1,0,.01,0,.03,0,.04-.02.04-.04.09-.05.13,0,.02-.01.03-.01.05-.02.04-.03.08-.04.12-.01.03-.02.06-.02.09-.02.03-.03.07-.04.1-.03.06-.06.13-.08.19-.01.03-.02.06-.02.09,0,.02-.02.04-.02.06-.03.05-.05.09-.07.14-.04.06-.06.13-.07.2-.01.03-.02.05-.03.08,0,.02-.02.04-.03.07-.01.02-.02.04-.03.06-.09.11-.13.25-.13.4l.02.46c0,.08.02.15.05.22.01.04.03.07.05.11,0,.03.01.06.02.09,0,.08.03.16.07.23.01.08.04.16.07.23,0,.02.01.03.02.05.02.07.06.14.11.2,0,0,.01.02.02.03.01.04.03.08.05.12,0,.03.02.06.03.09.02.06.06.13.09.19.02.03.04.07.06.1.03.06.07.14.11.19.04.07.07.12.12.18.01.01.02.03.03.04.01.02.03.04.04.06.04.06.07.09.12.14.11.1.26.16.4.16.05.01.11.02.16.01l.37-.02c.11.02.21.02.32-.02.04,0,.08-.01.12-.02.05,0,.1-.01.14-.03.06,0,.12-.01.17-.03.04,0,.08-.02.12-.03.04,0,.07-.02.11-.04l.5-.02c.13.1.26.13.42.12.33-.02.59-.29.58-.62.02-.07.03-.15.03-.22h0s0-.03,0-.03c.01-.05.01-.09.01-.14,0-.03.01-.06.01-.09.01-.05.02-.1.02-.17l-.07-1.56c0-.06-.02-.12-.03-.17,0-.05-.01-.1-.03-.14Z"/><path class="cls-58" d="m77.68,50.03c-.26-1.25-.69-2.23-1.44-2.99-1.38-1.42-5.55-2.42-7.46-3.03-1.89,2.63-2.49,5.11-1.81,7.44l-.9,9.88c-.6,1.46-1.31,3.7-2.11,6.71l-.68,2.43.18,1.14,12.8,4.81c.75,1.08,2.06,1.65,3.36,1.45,1.31-.2,2.38-1.13,2.78-2.39.11-.05.97-3,1.43-5.86.71-4.52-.11-4.88-1.83-8.8-1.5-3.41-2.76-6.55-4.31-10.79Zm-2.24,21.83c0,.06,0,.11-.02.17,0,.03,0,.06-.01.09,0,.05,0,.09-.01.14v.03s0,0,0,0c0,.07,0,.15-.03.22,0,.33-.25.61-.58.62-.16,0-.29-.03-.42-.12l-.5.02s-.07.03-.11.04c-.04.01-.08.02-.12.03-.06.02-.11.03-.17.03-.04.01-.09.02-.14.03-.04.01-.08.02-.12.02-.1.03-.21.04-.32.02l-.37.02c-.05,0-.11,0-.16-.01-.14,0-.29-.06-.4-.16-.05-.04-.09-.08-.12-.14-.02-.02-.03-.04-.04-.06-.01-.01-.02-.03-.03-.04-.05-.05-.09-.11-.12-.18-.04-.05-.09-.13-.11-.19-.02-.03-.04-.06-.06-.1-.04-.06-.07-.12-.09-.19-.01-.03-.02-.06-.03-.09-.02-.04-.03-.08-.05-.12,0,0-.01-.02-.02-.03-.05-.06-.08-.12-.11-.2,0-.02-.01-.03-.02-.05-.04-.07-.06-.14-.07-.23-.04-.07-.06-.15-.07-.23,0-.03-.02-.06-.02-.09-.02-.03-.04-.07-.05-.11-.03-.07-.05-.14-.05-.22l-.02-.46c0-.15.04-.29.13-.4,0-.02.02-.04.03-.06,0-.02.02-.05.03-.07,0-.03.02-.05.03-.08.01-.07.04-.14.07-.2.02-.05.04-.1.07-.14,0-.02.01-.04.02-.06,0-.03.01-.06.02-.09.01-.06.04-.14.08-.19.01-.03.03-.07.04-.1,0-.03.01-.06.02-.09,0-.04.02-.08.04-.12,0-.02,0-.03.01-.05.01-.05.03-.09.05-.13,0-.01,0-.03,0-.04,0-.03,0-.07.02-.1,0-.05.01-.11.03-.16,0-.05.01-.11.03-.16h0c0-.07.02-.13.04-.19,0-.03.01-.06.02-.09,0-.02.01-.04.02-.06,0-.02.01-.04.02-.06,0-.03.01-.05.02-.08,0-.07.03-.14.06-.2.01-.03.03-.06.04-.09,0-.03.02-.07.03-.1,0-.04.02-.08.03-.12,0-.06.03-.11.05-.17.01-.03.02-.05.03-.08,0-.04.01-.08.03-.11l-.02-.37c-.01-.28.16-.52.41-.61,0-.02,0-.03-.01-.05-.01-.03-.02-.06-.02-.1-.02-.03-.03-.06-.04-.1-.03-.05-.05-.11-.06-.17,0-.03-.02-.05-.02-.08-.05-.29.1-.65.35-.79.3-.16.67.03.79.35v.02s.04.06.05.1c.03.05.05.11.06.17.01.03.02.06.03.09v.04s.06.1.07.16c0,.02.02.04.03.06.02.03.03.06.05.1.02.03.04.07.05.11.05.06.09.13.11.2.02.05.04.09.04.15.03.03.06.06.08.09l-.06-.03c.09.04.15.09.21.17.02.02.05.03.07.05.07.06.14.12.19.2.06.05.1.09.14.16.02.02.03.04.04.06.04.04.07.09.09.14.02.03.05.06.07.1.03.04.06.08.08.13.03.04.05.09.07.13,0,.01.02.03.02.04.02.02.03.05.04.08.02.03.04.06.05.09.04.05.07.11.1.17.03.04.05.07.07.12.03.05.05.09.07.15.04.09.05.17.05.27,0,.09,0,.15-.03.24l.05,1.07c.01.06.03.1.03.16l.02.41s.02.09.03.14c.01.06.03.12.03.17l.07,1.56Z"/><path class="cls-47" d="m59.51,38.68c-.78,1.2-1.41,2.47-2.49,3.38-.41.35-1.18.45-1.62.77-.3.22-.65.48-.9.73,1.4,2.71,4.76,4.8,7.88,4.81,3.24.02,5.07-2.21,4.24-5.07-2.78-.84-5.24-2.46-7.11-4.62Z"/><path class="cls-22" d="m56.73,36.93s.01,1.66.04,4.97c0,0-.46.31-1.37.93,1.04,2.5,4.07,4.48,6.86,4.5,2.79.02,4.36-1.94,3.54-4.44-5.52-3.78-8.54-5.77-9.08-5.96Z"/><g class="cls-77"><path class="cls-16" d="m65.54,42.7c-4.59-2.83-7.32-4.1-8.2-3.83,2.11,5.47,3.17,8.2,3.17,8.2.57.16,1.17.25,1.77.26.66.02,1.31-.11,1.92-.37.55-.23,1.02-.62,1.35-1.11.31-.48.48-1.03.49-1.6,0-.46-.07-.92-.21-1.36-.18-.12-.27-.19-.27-.19Z"/></g><g class="cls-84"><path class="cls-70" d="m65.53,43.52c-4.38-1.86-6.86-2.74-7.45-2.64,1.57,2.87,4.73,4.49,7.98,4.08-.01-.42-.03-1.13-.16-1.52-.21-.14-.37.08-.37.08Z"/></g><path class="cls-58" d="m53.78,43.45c-4.77,1.63-7.15,2.44-7.15,2.44-1.54.62-2.8,1.31-3.77,2.05-1.58,1.21-2.23,2.58-2.54,4.1-.45,2.26-1.04,11.14-.58,16.97.23,2.92.51,4.35,1.6,5.33,2.9,2.61,15.23,4.3,19.5,5.47,1.13-.85,2.07-2.26,2.8-3.48,0,0,.42-1.55,1.26-4.64.19-.36.49-.66.85-.84,0,0-3.35-.55-10.05-1.65,3.74-14.59,3.1-23.18-1.93-25.77Z"/><path class="cls-47" d="m100.53,115l-1.39.07.21-.08c-.06.02-.13.04-.19.06-.12.04-.23.07-.36.09-.07.02-.14.03-.21.04-.02,0-.04.01-.06.02h-.02c-.14.08-.29.14-.45.18-.09.03-.19.06-.29.08-.14.05-.3.09-.45.11-.11.03-.23.05-.35.06-.09.02-.17.03-.26.04-.14.03-.28.05-.43.06l-.45.02c-1.11.05-2.08-.67-2.39-1.69-.09-.02-.19-.04-.28-.06-.06,0-.12-.01-.19-.02-.05,0-.1,0-.15-.02-.12,0-.23-.01-.34-.03-.04,0-.09,0-.13-.01-.12,0-.24,0-.36-.01-.28-.03-.55-.07-.82-.1-.12,0-.23,0-.35,0-.24-.02-.48-.05-.72-.08-.12-.01-.23-.04-.35-.06-.29-.03-.58-.05-.87-.07-.3-.02-.61-.04-.91-.06-.14-.01-.28-.04-.42-.06-.14,0-.28-.01-.42-.03l-.65-.09h-.22c-.17-.03-.34-.05-.51-.07l-.98-.08-.31-.02c-.23-.01-.45-.06-.65-.13l-.11-.03-.43-.09c-.17-.03-.31-.09-.47-.14-.29-.07-.52-.14-.78-.3-.19,1.02-.17,2.08.07,3.1l5.58.94c1.47-.27,2.98.09,4.16,1.01,2.11.23,8.64.73,9.51-1.67.09-.24,0-1.05-.19-1.36-.17.05-.42.51-.61.52Z"/><path class="cls-4" d="m95.75,111.65s-1.61-.95-4.84-2.86c-.47-.61-1.25-.87-1.97-.64-.72.22-1.24.88-1.31,1.66-1.67,1.18-3.95.8-5.18-.88-.76,1.62-.96,3.47-.57,5.23,3.72.66,5.58.99,5.58.99,1.47-.28,2.98.1,4.16,1.06,2.11.25,8.64.77,9.51-1.72-.23-2.72-3.4-2.55-5.39-2.83Z"/><path class="cls-39" d="m91.55,108.53l-2.03,2.16c-.08.09-.08.23.01.31.09.08.23.08.31-.01l2.03-2.16c.08-.09.08-.23-.01-.31-.09-.08-.23-.08-.31.01Z"/><path class="cls-39" d="m93.15,109.56l-1.75,2.04c-.08.09-.07.23.02.31.09.08.23.07.31-.02l1.75-2.04c.08-.09.07-.23-.02-.31-.09-.08-.23-.07-.31.02Z"/><path class="cls-39" d="m94.85,110.7l-1.37,1.86c-.07.1-.05.23.05.31.1.07.23.05.31-.05l1.37-1.86c.07-.1.05-.23-.05-.31-.1-.07-.23-.05-.31.05Z"/><path class="cls-47" d="m61.74,115.94c-.87.54-1.95.63-2.9.25-.65-.82-1.69-1.22-2.73-1.07-1.03.16-1.91.85-2.29,1.82,0,0-.66,1.21-1.97,3.64-1.17,1.14-1.76,1.71-1.76,1.71-.31.18-.61.48-.83.82-.14-.08-.3-.12-.46-.11.02.47,0,1.11.07,1.56.24,1.62,3.98,1.61,6.67.77,1.72-.54,2.66-1.27,3.45-2.25.07-.73.47-1.38,1.09-1.76,1.28-.84,1.92-1.26,1.92-1.26.17-.5.02-1.16-.07-1.56-.19-.87.21-1.74-.19-2.55Z"/><path class="cls-4" d="m58.77,114.62c-.65-.82-1.69-1.22-2.73-1.07-1.03.16-1.91.85-2.29,1.82,0,0-.66,1.21-1.97,3.63-1.17,1.14-1.76,1.71-1.76,1.71-.72.42-1.34,1.44-1.22,2.27.24,1.62,3.98,1.61,6.67.77,1.72-.54,2.66-1.27,3.45-2.25.07-.73.47-1.38,1.09-1.76,1.28-.84,1.92-1.26,1.92-1.26.46-1.35.36-2.83-.27-4.11-.87.54-1.95.63-2.9.25Z"/><path class="cls-39" d="m56.64,116.3l-3.03-.47c-.12-.02-.24.07-.26.19-.02.12.07.24.19.26l3.03.47c.12.02.24-.07.26-.19.02-.12-.07-.24-.19-.26Z"/><path class="cls-39" d="m55.79,117.76l-3.03-.47c-.12-.02-.24.07-.26.19-.02.12.07.24.19.26l3.03.47c.12.02.24-.07.26-.19.02-.12-.07-.24-.19-.26Z"/><path class="cls-39" d="m54.97,119.32l-3.03-.47c-.12-.02-.24.07-.26.19-.02.12.07.24.19.26l3.03.47c.12.02.24-.07.26-.19.02-.12-.07-.24-.19-.26Z"/><g class="cls-81"><path class="cls-11" d="m41.8,74.96c-1.73,1.27-2.9,3.17-3.25,5.29.71-1.58,2.36-2.52,4.08-2.32.4-.73.99-1.33,1.71-1.75-.36-.46-1.21-.87-2.55-1.22Z"/></g><g class="cls-88"><path class="cls-11" d="m76.02,54.25c.06-.33.11-.68.14-1.05-.06.37-.11.72-.14,1.05Z"/></g><g class="cls-93"><path class="cls-11" d="m78.78,71.12c.42.29.9.49,1.42.57-.45-.25-.93-.44-1.42-.57Z"/></g><g class="cls-83"><path class="cls-11" d="m77.71,69.87c-1.18-2.41,1.18-4.1,1.51-6.22.5-3.19-3.77-3.36-3.2-9.4-.27,1.45-.82,2.48-1.65,3.07-.82,3.97-1.23,5.95-1.23,5.95,1.61,2.53,2.42,3.8,2.42,3.8,0,0,.14,1.32.43,3.96.93-.18,1.89-.14,2.8.1-.45-.32-.82-.74-1.07-1.25Z"/></g><g class="cls-78"><path class="cls-11" d="m66.23,59.41c-1.65,6.27-2.48,9.41-2.48,9.41-.34,1.09-.51,1.64-.51,1.64,1.11.56,1.67.84,1.67.84.02-.17.05-.05.09.37,1.87,2.17,4.18,2.63,6.95,1.38-2.48-.32-4.47-2.16-5.08-4.58-.83-3.28,1.73-5.35,3.62-7.77.94-1.2,1.69-2.69,1.69-4.93,0-2.42-1.04-4.71-2.85-6.31-2.07,6.63-3.1,9.95-3.1,9.95Z"/></g><g class="cls-73"><path class="cls-11" d="m52.03,60.91c-2.5-3.46,2.06-8.9-3.46-10.21.86.95,1.32,1.91,1.36,2.86.71,9.75,1.07,14.63,1.07,14.63,0,0,1.62.29,4.85.86.79-2.11,1.2-4.11,1.25-6-1.95.29-3.91-.53-5.07-2.13Z"/></g><g class="cls-96"><path class="cls-11" d="m54.47,73.42c-1.44-1.39-3.27-1.14-5.08-.96-5.16.49-8.4-3.5-4.49-8.23,1.3-1.58,2.71-3.2,2.12-5.48-1.14-4.44-5.81-2.38-5.9-6.55-.47,4.61-1.09,14.15-.04,18.72.86,3.74,4.34,4.23,7.56,5.12,3.14.87,7.04,1.74,11.7,2.6,0,0-.05-.62-.14-1.86-3.69.32-4.24-1.92-5.73-3.36Z"/></g><g class="cls-80"><path class="cls-12" d="m82.98,62.95c-1.51-3.17-3.07-6.94-4.7-11.29-3.5,9.31,3.87,9.36,4.11,12.33.17,2.09-2.62,2.3-2.57,5.76.02,1.55.75,3,1.98,3.93.18,1.03.27,1.55.27,1.55-.07.09-.05.22.04.29.09.07.22.05.29-.03.6-1.63,1.12-3.86,1.55-6.7.17-1.47.18-2.53.02-3.17-.22-.96-.55-1.85-.99-2.67Z"/></g><g class="cls-76"><path class="cls-12" d="m73.49,47.93c-2.97,5,1.39,8.88-.42,12.67-1.25,2.63-4.56,3.65-4.51,6.91.03,1.72,1,3.28,2.54,4.06-.14-.96-.21-1.44-.21-1.44,0,0,1.26-4.31,3.78-12.92,1.14-1.36,1.67-3.14,1.44-4.9-.22-1.76-1.17-3.35-2.62-4.38Z"/></g><g class="cls-94"><path class="cls-12" d="m55.93,69.26c-3.05-.54-4.58-.8-4.58-.8-.17-.11-.25-.39-.25-.86,0,0-.39-4.48-1.16-13.43.08-1.88-1-3.61-2.72-4.37-2.3,5.51,4.26,7.19,1.79,11.86-1.05,1.98-3.3,3.11-2.92,5.73.27,1.88,1.95,3.52,4.98,3.22,1.03-.1,2.12-.27,3.22-.09,2.98.48,4.02,3.93,7.52,2.65,1.14-.96,2.15-1.66,3-2.07-1.04-.42-1.55-.63-1.55-.63-3.24-.53-5.68-.93-7.34-1.21Z"/></g><path class="cls-19" d="m54.13,42.71c-1.46,3.08-2.18,4.62-2.18,4.62,3.08.67,4.62,1.01,4.62,1.01-2.66,1.17-3.99,1.75-3.99,1.75,3.43,5.83,4.53,12.73,3.08,19.34,4.21-8.54,4.4-18.51.53-27.21-1.37.33-2.06.49-2.06.49Z"/><path class="cls-71" d="m41.2,68.41c.11.05.25,0,.3-.11.36-.79.92-1.45,1.6-1.94.68-.49,1.49-.81,2.35-.9.86-.09,1.72.04,2.49.37.77.33,1.46.86,1.98,1.55.08.1.22.12.32.04.1-.08.12-.22.04-.32-.57-.76-1.32-1.33-2.16-1.7-.84-.36-1.78-.51-2.72-.41-.94.1-1.82.45-2.57.98-.75.54-1.35,1.26-1.75,2.12-.05.11,0,.25.11.3Z"/><path class="cls-71" d="m80.49,64.33c-.76-.18-1.56-.18-2.34.03-.78.21-1.47.61-2.03,1.15-.47.45-.85,1-1.1,1.62l-2.11-3.09,1.88-6.55c1.19-1.51,1.68-3.36,1.5-5.14-.18-1.79-1.03-3.52-2.51-4.77-.1-.08-.24-.07-.32.03-.08.1-.07.24.03.32,1.39,1.17,2.19,2.79,2.35,4.47.17,1.68-.3,3.42-1.43,4.84-.02.02-.04.05-.04.08l-3.8,13.25c-.02.05-.02.11,0,.16l.78,1.87c.05.12.18.17.3.12.12-.05.17-.18.12-.3l-.75-1.79,1.73-6.02,2.14,3.13.1,3.9c0,.13.11.23.23.22.13,0,.23-.11.22-.23l-.1-3.97h0s0-.03,0-.05c.22-.68.6-1.29,1.1-1.77.51-.49,1.14-.85,1.84-1.04.7-.19,1.43-.19,2.11-.03.68.16,1.32.5,1.86.99.09.09.24.08.32-.02.09-.09.08-.24-.02-.32-.59-.54-1.31-.91-2.06-1.09Z"/><path class="cls-71" d="m75.63,64.28c-.3.54-.49,1.13-.56,1.75-.01.13.08.24.2.25.13.01.24-.08.25-.2.06-.56.24-1.1.51-1.58.27-.48.63-.92,1.08-1.27.44-.35.95-.61,1.48-.76.53-.15,1.1-.2,1.66-.13.13.01.24-.08.25-.2.01-.13-.08-.24-.2-.25-.62-.07-1.25-.02-1.84.15-.59.17-1.15.45-1.64.84-.49.39-.89.87-1.19,1.4Z"/><path class="cls-71" d="m45.19,75.98c-.66-.21-1.28-.45-1.86-.72-.58-.27-1.12-.57-1.62-.91-.11-.07-.25-.04-.32.06-.07.11-.04.25.06.32.52.35,1.08.66,1.68.94.6.28,1.24.53,1.91.74.12.04.25-.03.29-.15.04-.12-.03-.25-.15-.29Z"/><path class="cls-71" d="m55.75,69l-4.46-.86-1.16-14.79s0,0,0-.01h0c-.11-.83-.41-1.61-.87-2.29-.46-.68-1.07-1.25-1.8-1.65-.73-.41-1.54-.63-2.36-.67-.82-.04-1.64.12-2.4.46-.12.05-.17.19-.12.3.05.12.19.17.3.12.7-.31,1.45-.45,2.2-.42.74.03,1.48.24,2.15.61.67.37,1.23.89,1.65,1.51.42.62.7,1.33.8,2.09h0s1.15,14.65,1.15,14.65l-.31-.06c-.91-.51-1.92-.74-2.93-.71-1.02.03-2.02.34-2.91.92-.88.58-1.57,1.38-2.01,2.29-.44.92-.63,1.95-.53,3,.01.13.12.22.25.21.13-.01.22-.12.21-.25-.1-.97.08-1.92.48-2.76.4-.84,1.04-1.58,1.85-2.11.81-.53,1.74-.81,2.67-.84.93-.03,1.88.19,2.72.67.02.01.04.02.07.03l.63.12h0s4.63.89,4.63.89c.12.02.24-.06.27-.18.02-.12-.06-.24-.18-.27Z"/><path class="cls-71" d="m80.2,71.69c-.58-.43-1.23-.73-1.92-.89-.69-.16-1.41-.18-2.11-.04-.12.02-.21.14-.18.27.02.12.14.21.27.18.65-.12,1.3-.11,1.93.04.63.15,1.22.42,1.75.81.53.39.96.89,1.27,1.45.31.56.51,1.19.58,1.84.01.13.12.22.25.21.13-.01.22-.12.21-.25-.07-.72-.29-1.4-.63-2.02-.35-.62-.82-1.16-1.39-1.59Z"/><path class="cls-71" d="m64.65,71.08c-.84.28-1.61.72-2.26,1.29-.65.57-1.19,1.28-1.57,2.08-.38.8-.59,1.66-.63,2.53-.04.87.1,1.74.42,2.57.04.12.18.18.29.13.12-.04.18-.18.13-.29-.29-.77-.42-1.58-.39-2.39.03-.81.23-1.61.58-2.35.35-.74.85-1.4,1.46-1.93.61-.53,1.32-.95,2.1-1.2.12-.04.19-.17.15-.29-.04-.12-.17-.19-.29-.15Z"/><path class="cls-60" d="m78.65,71.89c-1.01-.71-2.31-.84-3.44-.35l-1.52,1c-.54,0-2.7-.11-3.26.08-.27.09-.53.24-.76.46-1.33-1.05-2.89-1.51-4.66-1.41-1.86.83-3.1,2.63-3.22,4.66l3.71.05c.35,1.07,1.02,2,1.92,2.68l-.64.28c-.21.14-.32.38-.28.63.04.25.22.44.46.51l.96.02c-.13.2-.16.45-.08.68.09.22.28.39.52.45-.03.22.04.43.18.6.14.16.35.25.57.25.9-.03,1.3-.05,1.2-.04.04.27.25.48.52.51,1.13-.15,1.69-.23,1.69-.23.56-.16,1.26-.31,1.84-.59.68-.33,1.62-1.42,2.08-1.98.36-.45.67-.89.77-1.19,0,0,.23-.95.85-2.42l2.09-1.5c.08-1.23-.48-2.41-1.49-3.12Z"/><g class="cls-87"><path class="cls-16" d="m68.94,76.81c-.08-.42.05-.85.35-1.16-.99.48-1.79.55-2.41.21-.28-.5.12-1.02,1.18-1.56,0,0-1.77-.25-5.31-.76-.49.7-.8,1.51-.91,2.35,0,0,1.35.09,4.05.27,0,0,.09.14.26.41.32.86.82,1.63,1.47,2.28.77.11,1.46-.25,2.07-1.09-.39-.19-.66-.54-.74-.97Z"/></g><g class="cls-89"><path class="cls-16" d="m76.21,71.27c-1.13.78-1.7,1.16-1.7,1.16,0,0-.27.11-.81.32-.04-.02-.96.02-2.75.13-.27.04-.58.19-.92.45,1.87-.7,3.97-.25,5.39,1.16,2.75-1.13,4.13-1.69,4.13-1.69-.74-1.1-2.03-1.69-3.34-1.53Z"/></g><path class="cls-45" d="m71.3,81.47h0s0,0,0,0l3.06-2.19c.09-.07.11-.2.05-.29-.07-.09-.2-.11-.29-.05l-3.02,2.16-2.78.3c-.11.01-.2.11-.18.23.01.11.11.2.23.18l2.83-.3s.07-.02.1-.04Z"/><path class="cls-45" d="m70.05,80.3l3.18-2.44c.09-.07.11-.2.04-.29-.07-.09-.2-.11-.29-.04l-3.15,2.41-1.96.33c-.11.02-.19.13-.17.24.02.11.13.19.24.17l2.01-.34s.07-.02.09-.04Z"/><path class="cls-45" d="m68.97,78.77l2.59-2.44s.04-.04.05-.07c.16-.36.2-.75.13-1.12-.07-.37-.26-.72-.55-.99-.08-.08-.21-.07-.29,0-.06.07-.07.17-.03.25-.23.13-.48.28-.73.44-.59.36-1.24.76-1.73.96-.16.06-.33.11-.5.12-.18.01-.36,0-.57-.06-.13-.04-.22-.08-.28-.14-.04-.04-.06-.08-.06-.13,0-.06.03-.13.08-.21.11-.16.31-.32.62-.48h0s.02-.01.04-.02l2.06-1.66c.09-.07.1-.2.03-.29-.07-.09-.2-.1-.29-.03l-2.04,1.64c-.36.19-.61.4-.75.6-.1.15-.16.3-.16.44,0,.16.06.3.18.42.11.11.26.2.46.25.26.07.49.09.71.07.22-.02.43-.07.62-.15.53-.21,1.19-.61,1.79-.99.28-.17.56-.34.79-.47.1.15.16.32.19.49.05.28.03.57-.09.84l-2.53,2.39-1.37.41c-.11.03-.17.15-.14.26.03.11.15.17.26.14l1.42-.42s.06-.03.09-.05Z"/><path class="cls-45" d="m73.18,76.81c.11.03.22-.04.25-.15.03-.11-.04-.22-.15-.25-.11-.03-.21-.1-.29-.18-.07-.09-.12-.19-.14-.31-.02-.11-.12-.19-.23-.18-.11.02-.19.12-.18.23.03.2.11.38.24.53.13.15.3.25.49.31Z"/><path class="cls-45" d="m66.62,76.17h-1.13c-.11,0-.21.09-.21.21,0,.11.09.21.21.21h1.13c.11,0,.21-.09.21-.21,0-.11-.09-.21-.21-.21Z"/><path class="cls-45" d="m75.46,72.21l-1.79.12c-.11,0-.2.11-.19.22,0,.11.11.2.22.19l1.79-.12c.11,0,.2-.11.19-.22,0-.11-.11-.2-.22-.19Z"/><path class="cls-45" d="m78.41,75.28c-.11-.03-.22.03-.26.14l-.3,1.03c-.03.11.03.22.14.26.11.03.22-.03.26-.14l.3-1.03c.03-.11-.03-.22-.14-.26Z"/><path class="cls-45" d="m74.85,79.91l-1.17.76s-.01,0-.02.01l-.92.6s-.01,0-.02.01l-1.33.86-1.11.05c-.11,0-.2.1-.2.22s.1.2.22.2l1.17-.05s.07-.01.1-.03l1.36-.89.55-.22s.05-.03.07-.05h0s.35-.37.35-.37l1.16-.75c.1-.06.12-.19.06-.29-.06-.1-.19-.12-.29-.06Z"/><path class="cls-45" d="m75.76,79.1c-.06,0-.11-.04-.14-.08-.04-.04-.06-.09-.06-.15,0-.11-.1-.2-.21-.2-.11,0-.2.1-.2.21,0,.16.07.3.17.41.1.11.24.19.39.21.11.02.22-.06.23-.18.02-.11-.06-.22-.18-.23Z"/><path class="cls-45" d="m74.66,78.49c.11.04.23,0,.27-.11.04-.11,0-.23-.11-.27-.17-.07-.32-.17-.44-.3-.12-.13-.21-.29-.27-.46-.04-.11-.15-.17-.26-.13-.11.04-.17.15-.13.26.08.23.2.44.36.61.16.17.36.31.59.4Z"/><path class="cls-19" d="m68.45,43.47s-.86-.14-2.59-.42c.53,9.23-.17,17.82-2.1,25.77,2.66-7.66,5.12-13.93,7.39-18.8,0,0-1.21-.37-3.64-1.11,0,0,1.19-.34,3.58-1.01,0,0-.88-1.48-2.64-4.43Z"/><path class="cls-60" d="m68.06,34.03c.09-.48,0-.97-.27-1.38-1.49-2.86-4.93-4.08-7.89-2.79-2.95,1.29-4.4,4.65-3.32,7.68.34,3.17,3.24,5.78,6.3,6.31,2.03.35,3.9-.14,4.21-2.33.45-1.48,1.78-4.38,1.11-5.73-.21-.38-.25-.96-.14-1.76Z"/><g class="cls-74"><path class="cls-23" d="m68.06,34.03c.09-.48,0-.97-.27-1.38-.64-1.23-1.64-2.15-2.8-2.71,2.31,4.19,2.61,9.14.85,13.58.65-.37,1.11-1.02,1.26-2.01.45-1.48,1.78-4.38,1.11-5.73-.21-.38-.25-.96-.14-1.76Z"/></g><g class="cls-90"><path class="cls-16" d="m61.3,31.4c-.29-.75-.98-1.27-1.78-1.35-.8-.08-1.58.28-2.02.95-.44.67-.48,1.53-.1,2.23-1.47,1.1-1.58,2.6-.32,4.49.24,1.43,1.06,2.83,2.43,4.2-.97-2.97,2.9-2.57,1.38-5.94-.45-.99-1.1-1.98-.9-2.94.15-.72.64-1.33,1.31-1.63Z"/></g><g class="cls-86"><path class="cls-70" d="m61.77,37.81c-.59-.39-.97-1.02-1.03-1.73-2.52-.68-3.78-1.02-3.78-1.02.31,1.02.46,1.52.46,1.52,0,0,.76.21,2.29.63.37.71,1.04,1.22,1.82,1.38.78.16,1.6-.04,2.22-.55-.67.24-1.4.15-2-.24Z"/></g><path class="cls-50" d="m67.25,28.24c2.27.4-.24-3.74-4.63-3.69-2.16.03-4.17,1.06-5.33,2.75-2.94.98-4.02,4.92-2.26,4.55-.09.87.02,1.74.34,2.56,1.14-.17,2.22.57,2.48,1.69-.67-2.43,1.94-3.09,1.74-5.67,2.21,1.69,3.51,2.01,3.89.94,1.07.9,2.55,1.7,3.72,1.98,3.45.84,1.95-4.01.05-5.11Z"/><g class="cls-82"><path class="cls-53" d="m58.04,26.41c-.28.27-.53.57-.76.89-2.94.98-4.02,4.92-2.26,4.55-.09.87.02,1.74.34,2.56,1.14-.17,2.22.57,2.48,1.69-.61-2.22,1.52-2.97,1.73-5.05-1.11-1.28-1.66-2.95-1.54-4.64Z"/></g><path class="cls-55" d="m64.09,33.21c-.57-.07-1.14-.02-1.68.14-.54.16-1.04.43-1.48.8-.09.08-.1.21-.03.3.08.09.21.1.3.03.39-.33.85-.57,1.33-.72.48-.14.99-.19,1.51-.13.12.01.22-.07.24-.19.01-.12-.07-.22-.19-.24Z"/><path class="cls-55" d="m67.09,33.26c-.43-.09-.89-.11-1.33-.05-.12.02-.2.12-.18.24.02.12.12.2.24.18.4-.06.8-.04,1.19.04.39.08.76.24,1.1.45.1.06.23.03.29-.07.06-.1.03-.23-.07-.29-.38-.24-.8-.41-1.23-.51Z"/><path class="cls-21" d="m62.94,35.37c-.17,0-.3.15-.3.33s.15.3.33.3.3-.15.3-.33-.15-.3-.33-.3Z"/><path class="cls-21" d="m67.05,35.17c-.16,0-.28.14-.28.3s.14.28.3.28.28-.14.28-.3-.14-.28-.3-.28Z"/><path class="cls-39" d="m67.17,33.81c-.54.03-1.01.28-1.35.66-.33.38-.53.9-.5,1.46s.27,1.05.63,1.4c.37.35.87.56,1.4.53s1.01-.28,1.35-.66c.33-.38.53-.9.5-1.46s-.27-1.05-.63-1.4c-.37-.35-.87-.56-1.4-.53Zm1.29,3.18c-.28.32-.67.53-1.12.55s-.86-.15-1.16-.44c-.31-.29-.51-.71-.53-1.18s.14-.91.42-1.23c.28-.32.67-.53,1.12-.55s.86.15,1.16.44c.31.29.51.71.53,1.18s-.14.91-.42,1.23Z"/><path class="cls-70" d="m66.38,39.63c-.46.39-1.03.56-1.59.52-.56-.04-1.1-.28-1.5-.73-.07-.08-.2-.09-.28-.01-.08.07-.09.2-.01.28.47.52,1.11.81,1.77.85.65.04,1.32-.16,1.86-.61.08-.07.09-.19.02-.28-.07-.08-.19-.09-.28-.02Z"/><path class="cls-16" d="m64.88,35.04c-.12.33-.03,1.97-.02,2.31-.24-.01-.48.11-.61.32-.15.24-.13.54.04.77.17.22.46.32.73.25.1-.09.36-.09.77-.03,1.6.13,1.42-.89.84-1.83-.19-.31-1.47-2.53-1.75-1.79Z"/><path class="cls-39" d="m66.13,35.72c-.22-.09-.46-.12-.69-.08-.14.02-.28.08-.41.15-.06-.55-.32-1.04-.71-1.39-.42-.38-.98-.6-1.59-.57s-1.15.3-1.53.72c-.32.35-.53.8-.57,1.3l-5.28-1.41s-.09,0-.13.02h0s-1.39.86-1.39.86c-.08.05-.1.15-.05.22.05.08.15.1.22.05l1.33-.82,5.3,1.41c.04.59.31,1.12.72,1.49.42.38.98.6,1.59.57s1.15-.3,1.53-.72c.33-.36.54-.83.57-1.35.13-.12.29-.19.46-.22.17-.03.34-.01.51.06.08.03.18,0,.21-.09.03-.08,0-.18-.09-.21Zm-1.91,1.59c-.33.36-.79.59-1.31.61s-1-.16-1.36-.49c-.36-.33-.59-.79-.61-1.31s.16-1,.49-1.36c.33-.36.79-.59,1.31-.61s1,.16,1.36.49c.36.33.59.79.61,1.31s-.16,1-.49,1.36Z"/><path class="cls-47" d="m63.54,34.64c-.22.01-.4.2-.39.43s.2.4.43.39.4-.2.39-.43-.2-.4-.43-.39Z"/><path class="cls-47" d="m67.58,34.37c-.22.01-.4.2-.39.43s.2.4.43.39.4-.2.39-.43-.2-.4-.43-.39Z"/><path class="cls-60" d="m55.42,33.98c-.88.25-1.27,1.38-.88,2.51.4,1.13,1.43,1.85,2.31,1.6.88-.25,1.27-1.38.88-2.51-.4-1.13-1.43-1.85-2.31-1.6Z"/><path class="cls-16" d="m55.49,34.87c-.58.17-.83.9-.57,1.64.26.74.94,1.21,1.51,1.05.58-.17.83-.9.57-1.64-.26-.74-.94-1.21-1.51-1.05Z"/><path class="cls-70" d="m56.05,35.21c-.35.1-.5.54-.35.99.16.45.56.73.91.63.35-.1.5-.54.35-.99-.16-.45-.56-.73-.91-.63Z"/><path class="cls-70" d="m65.52,40.82c-.2.17-.45.25-.7.23-.25-.02-.49-.12-.66-.32-.03-.04-.09-.04-.12,0-.04.03-.04.09,0,.12.21.23.49.36.78.38.29.02.58-.07.82-.27.04-.03.04-.09.01-.12-.03-.04-.09-.04-.12-.01Z"/><g class="cls-95"><path class="cls-8" d="m67.25,28.24c2.27.4-.24-3.74-4.63-3.69-.11,0-.22,0-.32.01,2.59.72,4.54,3.03,4.67,5.85.05.96-.13,1.88-.47,2.72.24.09.47.16.7.21,3.45.84,1.95-4.01.05-5.11Z"/></g><path class="cls-69" d="m59.57,116.78c-.38,1.01-.26,2.14.32,3.05,1.36-.9,2.04-1.34,2.04-1.34.42-1.24.38-2.6-.13-3.81-1.03.31-1.86,1.09-2.24,2.1Z"/><path class="cls-69" d="m81.83,110.8c-.22,1.11-.2,2.26.05,3.36,2.17.39,3.26.58,3.26.58.14-.97-.14-1.96-.77-2.71-.63-.75-1.56-1.2-2.54-1.22Z"/><rect class="cls-64" x="105.91" y="107.37" width="9.93" height="6.73" rx=".39" ry=".39" transform="translate(-5.06 5.31) rotate(-2.68)"/><rect class="cls-59" x="140.47" y="109.96" width="21.21" height="2.81" rx=".16" ry=".16" transform="translate(-5.04 7.19) rotate(-2.68)"/><rect class="cls-59" x="140.34" y="107.27" width="21.21" height="2.81" rx=".16" ry=".16" transform="translate(-4.92 7.18) rotate(-2.68)"/><rect class="cls-42" x="155.51" y="109.61" width="6.16" height="2.81" rx=".16" ry=".16" transform="translate(-5.02 7.54) rotate(-2.68)"/><rect class="cls-42" x="157.63" y="106.87" width="3.91" height="2.81" rx=".16" ry=".16" transform="translate(-4.89 7.58) rotate(-2.68)"/><rect class="cls-46" x="140.34" y="107.59" width="7.89" height="2.36" rx=".14" ry=".14" transform="translate(-4.93 6.87) rotate(-2.68)"/><rect class="cls-46" x="140.29" y="107.3" width="20.22" height=".67" rx=".04" ry=".04" transform="translate(-4.87 7.15) rotate(-2.68)"/><rect class="cls-46" x="140.46" y="110.27" width="7.89" height="2.23" rx=".13" ry=".13" transform="translate(-5.05 6.88) rotate(-2.68)"/><rect class="cls-46" x="140.42" y="109.98" width="20.22" height=".67" rx=".04" ry=".04" transform="translate(-5 7.16) rotate(-2.68)"/><rect class="cls-59" x="119.73" y="100.11" width="21.21" height="2.81" rx=".16" ry=".16" transform="translate(-4.61 6.21) rotate(-2.68)"/><rect class="cls-42" x="137.02" y="99.71" width="3.91" height="2.81" rx=".16" ry=".16" transform="translate(-4.58 6.61) rotate(-2.68)"/><rect class="cls-46" x="119.73" y="100.43" width="7.89" height="2.36" rx=".14" ry=".14" transform="translate(-4.62 5.9) rotate(-2.68)"/><rect class="cls-46" x="119.68" y="100.14" width="20.22" height=".67" rx=".04" ry=".04" transform="translate(-4.56 6.18) rotate(-2.68)"/><rect class="cls-31" x="119.81" y="102.83" width="20.22" height=".67" rx=".04" ry=".04" transform="translate(-4.68 6.19) rotate(-2.68)"/><rect class="cls-59" x="119.98" y="105.52" width="21.21" height="2.81" rx=".16" ry=".16" transform="translate(-4.86 6.23) rotate(-2.68)"/><rect class="cls-59" x="119.86" y="102.83" width="21.21" height="2.81" rx=".16" ry=".16" transform="translate(-4.73 6.22) rotate(-2.68)"/><rect class="cls-42" x="135.03" y="105.16" width="6.16" height="2.81" rx=".16" ry=".16" transform="translate(-4.83 6.58) rotate(-2.68)"/><rect class="cls-42" x="137.15" y="102.42" width="3.91" height="2.81" rx=".16" ry=".16" transform="translate(-4.7 6.62) rotate(-2.68)"/><rect class="cls-46" x="119.86" y="103.14" width="7.89" height="2.36" rx=".14" ry=".14" transform="translate(-4.74 5.91) rotate(-2.68)"/><rect class="cls-46" x="119.81" y="102.85" width="20.22" height=".67" rx=".04" ry=".04" transform="translate(-4.68 6.19) rotate(-2.68)"/><rect class="cls-46" x="119.98" y="105.83" width="7.89" height="2.23" rx=".13" ry=".13" transform="translate(-4.87 5.91) rotate(-2.68)"/><rect class="cls-46" x="119.94" y="105.54" width="20.22" height=".67" rx=".04" ry=".04" transform="translate(-4.81 6.2) rotate(-2.68)"/><rect class="cls-59" x="120.24" y="110.91" width="21.21" height="2.81" rx=".16" ry=".16" transform="translate(-5.11 6.24) rotate(-2.68)"/><rect class="cls-59" x="120.11" y="108.22" width="21.21" height="2.81" rx=".16" ry=".16" transform="translate(-4.98 6.23) rotate(-2.68)"/><rect class="cls-42" x="135.28" y="110.56" width="6.16" height="2.81" rx=".16" ry=".16" transform="translate(-5.09 6.59) rotate(-2.68)"/><rect class="cls-42" x="137.4" y="107.82" width="3.91" height="2.81" rx=".16" ry=".16" transform="translate(-4.96 6.64) rotate(-2.68)"/><rect class="cls-46" x="120.11" y="108.53" width="7.89" height="2.36" rx=".14" ry=".14" transform="translate(-5 5.92) rotate(-2.68)"/><rect class="cls-46" x="120.06" y="108.25" width="20.22" height=".67" rx=".04" ry=".04" transform="translate(-4.94 6.21) rotate(-2.68)"/><rect class="cls-46" x="120.23" y="111.22" width="7.89" height="2.23" rx=".13" ry=".13" transform="translate(-5.12 5.93) rotate(-2.68)"/><rect class="cls-46" x="120.19" y="110.93" width="20.22" height=".67" rx=".04" ry=".04" transform="translate(-5.06 6.22) rotate(-2.68)"/><path class="cls-67" d="m118.12,104.44c-1.27-1.68-2.35-3.51-3.23-5.45h0c-1.27-.76-2.46-1.59-3.57-2.51-.26-.19-.51-.38-.76-.58-.62-.42-1.22-.85-1.79-1.31-1.08-.78-2.08-1.62-3.02-2.51-.34-.29-.66-.59-.98-.89-.32-.28-.64-.57-.95-.87-4.1,2.56-6.74,7.19-6.5,12.36.36,7.61,6.82,13.49,14.43,13.14,4.66-.22,8.66-2.72,10.99-6.38-1.73-1.47-3.28-3.15-4.62-5Z"/><path class="cls-29" d="m110.45,88.26c-3.11.15-5.94,1.31-8.16,3.16l20.08,18.58c1.71-2.42,2.66-5.41,2.51-8.61-.36-7.61-6.82-13.49-14.43-13.14Z"/><circle class="cls-46" cx="111.1" cy="102.04" r="10.73" transform="translate(-13.62 17.18) rotate(-8.34)"/><path class="cls-39" d="m111.75,101.03l-.07-2.23c.6.14,1.24.43,1.84.81l.93-1.74c-.82-.53-1.71-.89-2.75-.99l-.03-.89-1.52.05.03.85c-1.84.25-3.03,1.35-2.98,2.96v.03c.05,1.74,1.12,2.5,3.24,3l.07,2.33c-.87-.15-1.61-.54-2.42-1.11l-1.09,1.7c.99.7,2.23,1.16,3.49,1.29l.05,1.48,1.52-.05-.04-1.45c1.84-.25,3.06-1.34,3.01-2.98v-.03c-.05-1.64-1.03-2.5-3.27-3.03Zm-1.38-.33c-.81-.27-1.03-.55-1.04-1.02v-.03c-.02-.47.27-.83.98-.94l.06,1.99Zm2.52,3.57c.02.53-.33.85-1.01.97l-.06-2.05c.8.27,1.06.57,1.07,1.05v.03Z"/><path class="cls-51" d="m115.84,92.41c-4.43-2.18-9.78-1.06-12.96,2.72-3.18,3.78-3.37,9.24-.46,13.23,2.91,3.99,8.16,5.48,12.74,3.62-4.13,1.42-8.7-.09-11.17-3.69-2.47-3.6-2.23-8.4.58-11.75,2.81-3.34,7.5-4.39,11.47-2.58,3.97,1.82,6.24,6.06,5.54,10.37,1.06-4.82-1.31-9.75-5.74-11.93Z"/><path class="cls-39" d="m71.81,98.39l-.13-4.13c1.11.14,2.29.55,3.38,1.13l1.7-3.43c-1.51-.82-3.15-1.3-5.06-1.27l-.05-1.65-2.8.4.05,1.57c-3.38.84-5.58,3.14-5.48,6.13v.05c.1,3.23,2.05,4.42,5.96,4.92l.13,4.32c-1.6-.1-2.96-.67-4.45-1.57l-2,3.39c1.82,1.1,4.1,1.7,6.43,1.67l.08,2.74,2.8-.4-.08-2.68c3.38-.84,5.63-3.12,5.54-6.16v-.05c-.09-3.04-1.89-4.44-6.02-4.97Zm-2.55-.32c-1.5-.33-1.89-.82-1.92-1.69v-.05c-.03-.87.49-1.59,1.8-1.94l.11,3.69Zm4.64,6.12c.03.98-.6,1.64-1.86,2.01l-.12-3.8c1.47.33,1.94.84,1.97,1.73v.05Z"/><path class="cls-34" d="m108.28,57.25l-.65-4.2-2.93.45c-.46-1.06-1.1-2.04-1.93-2.9l1.52-2.36-3.57-2.31-1.51,2.33c-1.16-.44-2.37-.64-3.57-.62l-.82-2.97-4.1,1.13.78,2.83c-.76.37-1.47.85-2.12,1.42l-2.45-1.63-2.35,3.55,2.3,1.53c-.43,1-.68,2.05-.76,3.1l-2.65.41.65,4.2,2.62-.4c.48,1.24,1.21,2.39,2.18,3.36l-1.57,2.42,3.57,2.31,1.58-2.45c1.21.44,2.47.62,3.72.56l.71,2.56,4.1-1.13-.7-2.54c.97-.51,1.86-1.19,2.62-2.02l2.58,1.62,2.27-3.6-2.73-1.72c.26-.83.4-1.68.43-2.53l2.78-.43Zm-6.94,3.68c-.99,1.53-2.5,2.51-4.15,2.87-1.65.35-3.44.08-4.96-.91-1.53-.99-2.51-2.5-2.87-4.15-.35-1.65-.08-3.44.91-4.96.99-1.53,2.5-2.51,4.15-2.87,1.65-.35,3.44-.08,4.96.91,1.53.99,2.51,2.5,2.87,4.15.35,1.65.08,3.44-.91,4.96Z"/><path class="cls-20" d="m95.67,52.69c-2.56.08-4.56,2.21-4.49,4.77.08,2.56,2.21,4.56,4.77,4.49,2.56-.08,4.56-2.21,4.49-4.77-.08-2.56-2.21-4.56-4.77-4.49Z"/><path class="cls-39" d="m97.22,57.16c-.38.02-.67.14-.87.37-.2.23-.29.55-.27.95s.14.71.36.92c.22.21.52.31.9.29s.67-.14.87-.37c.2-.23.29-.55.27-.95s-.14-.71-.36-.92c-.22-.21-.52-.3-.9-.29Zm.09,1.88c-.24.01-.37-.19-.39-.6s.09-.61.33-.62.37.19.39.59-.09.62-.33.63Z"/><path class="cls-39" d="m95.23,57.28c.2-.23.29-.55.27-.95s-.14-.71-.36-.92c-.22-.21-.52-.31-.9-.29s-.67.14-.87.38c-.2.23-.29.55-.27.95s.14.71.36.92c.22.21.52.31.9.29s.67-.14.87-.37Zm-1.29-.87c-.02-.41.09-.62.33-.63s.37.19.39.59-.09.61-.33.62-.37-.18-.39-.59Z"/><polygon class="cls-39" points="96.45 55.08 94.35 59.77 95.12 59.73 97.23 55.04 96.45 55.08"/><path class="cls-34" d="m117.99,44.6l-.38-2.47-1.72.27c-.27-.62-.65-1.2-1.14-1.7l.9-1.39-2.1-1.36-.89,1.37c-.68-.26-1.39-.38-2.1-.36l-.48-1.75-2.41.67.46,1.67c-.45.22-.87.5-1.25.84l-1.44-.96-1.38,2.09,1.36.9c-.25.59-.4,1.21-.45,1.82l-1.56.24.38,2.47,1.54-.24c.28.73.71,1.41,1.28,1.98l-.92,1.43,2.1,1.36.93-1.44c.71.26,1.45.36,2.19.33l.42,1.5,2.41-.67-.41-1.49c.57-.3,1.09-.7,1.54-1.19l1.52.96,1.33-2.12-1.6-1.01c.15-.49.23-.99.25-1.49l1.64-.25Zm-4.08,2.17c-.58.9-1.47,1.48-2.44,1.69-.97.21-2.02.05-2.92-.54-.9-.58-1.48-1.47-1.69-2.44-.21-.97-.05-2.02.54-2.92.58-.9,1.47-1.48,2.44-1.69.97-.21,2.02-.05,2.92.54.9.58,1.48,1.47,1.69,2.44.21.97.05,2.02-.54,2.92Z"/><path class="cls-20" d="m110.57,41.92c-1.5.05-2.69,1.3-2.64,2.81.05,1.5,1.3,2.69,2.81,2.64,1.5-.05,2.69-1.3,2.64-2.81-.05-1.5-1.3-2.69-2.81-2.64Z"/><path class="cls-39" d="m110.31,44.63c.12-.14.17-.32.16-.56s-.08-.42-.21-.54c-.13-.13-.31-.18-.53-.17s-.4.09-.51.22c-.12.14-.17.32-.16.56s.08.42.21.54c.13.12.31.18.53.17s.4-.08.51-.22Zm-.76-.51c-.01-.24.05-.36.19-.37s.22.11.23.35-.05.36-.19.37-.22-.11-.23-.35Z"/><polygon class="cls-39" points="111.03 43.33 109.79 46.09 110.25 46.07 111.49 43.31 111.03 43.33"/><path class="cls-39" d="m111.49,44.56c-.23.01-.4.08-.51.22-.12.14-.17.32-.16.56s.08.42.21.54c.13.12.31.18.53.17s.4-.08.51-.22c.12-.14.17-.32.16-.56s-.08-.42-.21-.54c-.13-.12-.31-.18-.53-.17Zm.05,1.1c-.14,0-.22-.11-.23-.35s.05-.36.19-.37.22.11.23.35-.05.37-.19.37Z"/><path class="cls-36" d="m144.22,25.68c-.1-.03-.2.02-.23.12l-.34,1.09c-1.42-2.99-3.81-5.26-6.65-6.56-2.94-1.35-6.37-1.65-9.67-.64-3.3,1.01-5.97,3.18-7.66,5.94-1.69,2.76-2.39,6.12-1.78,9.53.61,3.4,2.45,6.3,4.99,8.31,2.54,2,5.8,3.1,9.25,2.9.1,0,.18-.09.17-.19,0-.1-.09-.18-.19-.17-3.36.2-6.52-.87-9-2.82-2.48-1.95-4.26-4.77-4.86-8.08-.6-3.31.09-6.58,1.73-9.27,1.64-2.69,4.23-4.8,7.45-5.78,3.22-.98,6.54-.69,9.41.63,2.77,1.27,5.11,3.49,6.49,6.42l-1.15-.15c-.1-.01-.19.06-.21.16-.01.1.06.19.16.21l1.55.2h0c.09.01.17-.04.2-.13l.46-1.47c.03-.1-.02-.2-.12-.23Z"/><path class="cls-36" d="m130.84,30.24c-.4-1.02-.69-2.09-.86-3.21-.11-.29-.21-.57-.29-.86-1.93-.49-3.71-1.36-5.25-2.53-2.92,2.24-4.73,5.82-4.55,9.77.3,6.41,5.74,11.37,12.15,11.07l-.54-11.61.62-.03c-.1-.17-.2-.34-.29-.51-.38-.66-.71-1.36-.98-2.08Z"/><path class="cls-62" d="m134.29,44.96c5.57-.31,9.86-5.02,9.65-10.6,0,0-3.37.16-10.12.47,0,0,.16,3.37.47,10.12Z"/><path class="cls-30" d="m135.96,22.13c-4.15-1.73-8.93-.9-12.27,2.12,0,0,2.6,2.87,7.8,8.62,7.74-.36,11.61-.54,11.61-.54-.21-4.49-2.99-8.46-7.15-10.19Z"/><path class="cls-39" d="m124.8,31.71c.18-.19.26-.42.25-.71v-.23c-.02-.3-.13-.54-.32-.7-.19-.17-.45-.24-.77-.23s-.57.12-.75.3c-.18.19-.26.42-.25.71v.23c.02.3.13.54.33.7.2.17.46.24.77.23s.56-.11.74-.3Zm-.88-.3s-.03,0-.05-.01c-.15-.05-.27-.19-.28-.36v-.19c-.02-.17.08-.32.23-.39.04-.02.09-.03.15-.04s.11,0,.15.02c.15.05.26.19.27.36v.19c.02.14-.05.27-.16.35-.05.04-.12.07-.21.07-.03,0-.06,0-.09,0,0,0-.01,0-.02,0Z"/><path class="cls-39" d="m126.02,30.31c-.15,0-.18.09-.18.09l-2.09,3.73.68-.03,2.14-3.8s-.51.02-.55.02Z"/><path class="cls-39" d="m126.3,32.36c-.31.01-.56.11-.74.3-.18.18-.26.42-.25.71v.23c.03.3.13.54.33.7.2.17.46.24.77.23s.57-.11.75-.3c.18-.18.26-.42.25-.71v-.22c-.03-.31-.13-.55-.33-.71-.2-.17-.45-.24-.77-.22Zm.46,1.16c0,.11-.04.21-.1.29-.05.08-.14.13-.28.13h0s0,0-.01,0c-.02,0-.04,0-.06,0-.19-.02-.35-.18-.36-.38v-.19c-.02-.17.08-.32.23-.39.04-.02.09-.04.15-.04s.11,0,.16.02c.15.05.26.19.27.36v.19Z"/><path class="cls-15" d="m19.81,26.32c-2.55.12-4.51,2.28-4.39,4.82.11,2.26,1.82,4.05,3.97,4.35.02-.33.14-.63.32-.88h0c-.08-.26-.11-.55-.07-.81-1.36-.18-2.45-1.32-2.51-2.74-.07-1.6,1.16-2.96,2.76-3.04.27-.01.54.01.79.07.04-.28.16-.54.32-.76.03-.11.07-.21.11-.32.01-.05.03-.1.04-.15-.02-.14-.03-.28-.02-.42-.43-.11-.87-.15-1.33-.13Z"/><path class="cls-14" d="m21.14,26.45c-.46-.11-.92.17-1.03.62-.11.46.17.92.62,1.03.75.19,1.36.65,1.74,1.26.39.61.55,1.36.41,2.11-.15.76-.58,1.39-1.16,1.81-.58.42-1.32.62-2.09.51-.47-.06-.9.26-.96.73-.06.47.26.9.73.96,1.21.17,2.39-.15,3.32-.82.93-.66,1.61-1.67,1.84-2.87.23-1.21-.02-2.39-.64-3.36-.61-.96-1.59-1.7-2.78-2Z"/><rect class="cls-15" x="18.04" y="30.33" width="3.87" height=".26" rx=".13" ry=".13" transform="translate(-1.4 .97) rotate(-2.68)"/><rect class="cls-15" x="18.07" y="31.04" width="3.87" height=".26" rx=".13" ry=".13" transform="translate(-1.44 .97) rotate(-2.68)"/><path class="cls-15" d="m20.34,37.51c-2.55.12-4.51,2.28-4.39,4.83.11,2.26,1.82,4.05,3.97,4.35.02-.33.14-.63.32-.88h0c-.08-.26-.11-.55-.07-.81-1.36-.18-2.45-1.32-2.51-2.74-.07-1.6,1.16-2.96,2.76-3.04.27-.01.54.01.79.07.04-.28.16-.54.32-.76.03-.11.07-.21.11-.32.01-.05.03-.1.04-.15-.02-.14-.03-.28-.02-.42-.43-.11-.87-.15-1.33-.13Z"/><path class="cls-14" d="m21.67,37.64c-.46-.11-.92.17-1.03.62-.11.46.17.92.62,1.03.75.19,1.36.65,1.74,1.26.39.61.55,1.36.41,2.11-.15.76-.58,1.39-1.16,1.81-.58.42-1.32.62-2.09.51-.47-.06-.9.26-.96.73-.06.47.26.9.73.96,1.21.17,2.39-.15,3.32-.82.93-.66,1.61-1.67,1.84-2.88.23-1.21-.02-2.39-.64-3.36-.61-.96-1.59-1.7-2.78-2Z"/><rect class="cls-15" x="18.56" y="41.52" width="3.87" height=".26" rx=".13" ry=".13" transform="translate(-1.93 1) rotate(-2.68)"/><rect class="cls-15" x="18.59" y="42.23" width="3.87" height=".26" rx=".13" ry=".13" transform="translate(-1.96 1.01) rotate(-2.68)"/><path class="cls-15" d="m20.86,48.72c-2.55.12-4.51,2.28-4.39,4.82.11,2.26,1.82,4.05,3.97,4.35.02-.33.14-.63.32-.88h0c-.08-.26-.11-.55-.07-.81-1.36-.18-2.45-1.32-2.51-2.74-.07-1.6,1.16-2.96,2.76-3.04.27-.01.54.01.79.07.04-.28.16-.54.32-.76.03-.11.07-.21.11-.32.01-.05.03-.1.04-.15-.02-.14-.03-.28-.02-.42-.43-.11-.87-.15-1.33-.13Z"/><path class="cls-14" d="m22.19,48.86c-.46-.11-.92.17-1.03.62-.11.46.17.92.62,1.03.75.19,1.36.65,1.74,1.26.39.61.55,1.36.41,2.11-.15.76-.58,1.39-1.16,1.81-.58.42-1.32.62-2.09.51-.47-.06-.9.26-.96.73-.06.47.26.9.73.96,1.21.17,2.39-.15,3.32-.82.93-.66,1.61-1.67,1.84-2.87.23-1.21-.02-2.39-.64-3.36-.61-.96-1.59-1.7-2.78-2Z"/><rect class="cls-15" x="19.09" y="52.74" width="3.87" height=".26" rx=".13" ry=".13" transform="translate(-2.45 1.04) rotate(-2.68)"/><rect class="cls-15" x="19.12" y="53.45" width="3.87" height=".26" rx=".13" ry=".13" transform="translate(-2.48 1.04) rotate(-2.68)"/><rect class="cls-15" x="25.93" y="26.98" width="12.03" height=".81" rx=".41" ry=".41" transform="translate(-1.25 1.52) rotate(-2.68)"/><rect class="cls-15" x="26.04" y="29.15" width="18.33" height=".81" rx=".41" ry=".41" transform="translate(-1.34 1.68) rotate(-2.68)"/><rect class="cls-15" x="26.15" y="31.42" width="21.14" height=".81" rx=".41" ry=".41" transform="translate(-1.45 1.75) rotate(-2.68)"/><rect class="cls-15" x="26.49" y="38.88" width="12.03" height=".81" rx=".41" ry=".41" transform="translate(-1.8 1.56) rotate(-2.68)"/><rect class="cls-15" x="26.59" y="41.05" width="18.33" height=".81" rx=".41" ry=".41" transform="translate(-1.9 1.72) rotate(-2.68)"/><rect class="cls-15" x="26.71" y="43.47" width="14.72" height=".81" rx=".41" ry=".41" transform="translate(-2.02 1.64) rotate(-2.68)"/><rect class="cls-28" x="81.38" y="36.39" width="3.91" height=".57" transform="translate(-1.62 3.94) rotate(-2.68)"/><polygon class="cls-28" points="79.18 31.49 81.13 31.39 81.27 34.22 85.18 34.04 85.04 31.21 87 31.12 82.82 25.65 79.18 31.49"/><rect class="cls-28" x="81.32" y="34.69" width="3.91" height="1.13" transform="translate(-1.56 3.93) rotate(-2.68)"/><rect class="cls-28" x="90.39" y="35.97" width="3.91" height=".57" transform="translate(-1.59 4.36) rotate(-2.68)"/><rect class="cls-28" x="90.33" y="34.27" width="3.91" height="1.13" transform="translate(-1.53 4.35) rotate(-2.68)"/><polygon class="cls-28" points="88.19 31.06 90.14 30.97 90.28 33.8 94.18 33.62 94.05 30.79 96.01 30.7 91.83 25.23 88.19 31.06"/><rect class="cls-28" x="99.41" y="35.54" width="3.91" height=".57" transform="translate(-1.56 4.78) rotate(-2.68)"/><polygon class="cls-28" points="97.21 30.64 99.16 30.55 99.29 33.38 103.2 33.19 103.07 30.37 105.02 30.28 100.85 24.81 97.21 30.64"/><rect class="cls-28" x="99.34" y="33.85" width="3.91" height="1.13" transform="translate(-1.5 4.78) rotate(-2.68)"/></g></svg>