<svg xmlns="http://www.w3.org/2000/svg" version="1.1" xmlns:xlink="http://www.w3.org/1999/xlink" xmlns:svgjs="http://svgjs.com/svgjs" width="512" height="512" x="0" y="0" viewBox="0 0 30 30" style="enable-background:new 0 0 512 512" xml:space="preserve"><g><g fill="#464646"><path d="M21.5 27h-15A3.5 3.5 0 0 1 3 23.5v-15A3.5 3.5 0 0 1 6.5 5H13a1 1 0 0 1 0 2H6.5A1.5 1.5 0 0 0 5 8.5v15A1.5 1.5 0 0 0 6.5 25h15a1.5 1.5 0 0 0 1.5-1.5V17a1 1 0 0 1 2 0v6.5a3.5 3.5 0 0 1-3.5 3.5zM25.42 10l1.23-1.23a2.51 2.51 0 0 0 0-3.54l-1.88-1.88a2.57 2.57 0 0 0-3.54 0L20 4.58z" fill="#ffffff" data-original="#464646" opacity="1"></path><path d="m18.58 6-6.29 6.29a1 1 0 0 0-.27.51l-1 5a1 1 0 0 0 .27.91A1 1 0 0 0 12 19h.2l5-1a1 1 0 0 0 .51-.27L24 11.42z" fill="#ffffff" data-original="#464646" opacity="1"></path></g></g></svg>