<svg fill="none" height="512" viewBox="0 0 20 20" width="512" xmlns="http://www.w3.org/2000/svg" xmlns:xlink="http://www.w3.org/1999/xlink"><linearGradient id="paint0_linear_3139_251" gradientUnits="userSpaceOnUse" x1="10" x2="10" y1="0" y2="20"><stop offset="0" stop-color="#ee9ae5"/><stop offset="1" stop-color="#5961f9"/></linearGradient><path clip-rule="evenodd" d="m0 10c0 5.514 4.486 10 10 10s10-4.486 10-10-4.486-10-10-10-10 4.486-10 10zm15.2071-1.79289c.3905-.39053.3905-1.02369 0-1.41422-.3905-.39052-1.0237-.39052-1.4142 0l-4.7929 4.79291-2.29289-2.29291c-.39053-.39052-1.02369-.39052-1.41422 0-.39052.39053-.39052 1.02371 0 1.41421l3 3c.39053.3905 1.02369.3905 1.41422 0z" fill="url(#paint0_linear_3139_251)" fill-rule="evenodd"/></svg>