<?xml version="1.0" encoding="UTF-8"?><svg id="_圖層_1" xmlns="http://www.w3.org/2000/svg" viewBox="0 0 50 50"><defs><style>.cls-1{fill:#1877f2;}.cls-2{fill:#4d98d1;opacity:.1;}</style></defs><circle class="cls-2" cx="24.9" cy="25" r="25"/><path class="cls-1" d="m33.97,13H15.82c-1.61,0-2.92,1.31-2.92,2.92v18.15c0,1.61,1.31,2.92,2.92,2.92h9.3c.39,0,.71-.32.71-.71v-8.59c0-.39-.32-.71-.71-.71h-2.55v-2.02h2.55c.39,0,.71-.32.71-.71v-2.87c0-1.55,1.26-2.82,2.82-2.82h2.46v2.02h-2.46c-.44,0-.8.36-.8.8v2.87c0,.39.32.71.71.71h2.55v2.02h-2.55c-.39,0-.71.32-.71.71v8.59c0,.39.32.71.71.71h5.41c1.61,0,2.92-1.31,2.92-2.92V15.92c0-1.61-1.31-2.92-2.92-2.92Z"/><path class="cls-1" d="m35.48,34.08c0,.83-.68,1.51-1.51,1.51h-4.71v-7.18h2.55c.39,0,.71-.32.71-.71v-3.43c0-.39-.32-.71-.71-.71h-2.55v-1.54h2.55c.39,0,.71-.32.71-.71v-3.43c0-.39-.32-.71-.71-.71h-3.17c-2.33,0-4.23,1.9-4.23,4.23v2.16h-2.55c-.39,0-.71.32-.71.71v3.43c0,.39.32.71.71.71h2.55v7.18h-8.6c-.83,0-1.51-.68-1.51-1.51V15.92c0-.83.68-1.51,1.51-1.51h18.15c.83,0,1.51.68,1.51,1.51v18.15Z"/></svg>