<?xml version="1.0" encoding="UTF-8"?><svg id="_圖層_1" xmlns="http://www.w3.org/2000/svg" xmlns:xlink="http://www.w3.org/1999/xlink" viewBox="0 0 60 60"><defs><style>.cls-1{fill:#6cc;}.cls-1,.cls-2,.cls-3,.cls-4,.cls-5,.cls-6{stroke-width:0px;}.cls-2{fill:none;}.cls-3{fill:#fff;}.cls-4{fill:#fcc557;}.cls-5{fill:#414042;}.cls-6{fill:#9ecfef;}</style><clipPath id="clippath"><rect class="cls-2" x="-160" y="-198" width="360" height="100"/></clipPath></defs><path class="cls-3" d="m33.03,59.73h-6.13V4.51c0-1.69,1.37-3.06,3.06-3.06h0c1.69,0,3.06,1.37,3.06,3.06v55.22Z"/><path class="cls-5" d="m34.21,59.73h-2.36V4.25c0-.9-.73-1.63-1.63-1.63h-.52c-.9,0-1.63.73-1.63,1.63v55.48h-2.36V4.25c0-2.2,1.79-3.98,3.98-3.98h.52c2.2,0,3.98,1.79,3.98,3.98v55.48Z"/><rect class="cls-5" x="8.5" y="13.95" width="42.93" height="2.36"/><path class="cls-4" d="m36.44,14.75c0,3.55-2.88,6.44-6.44,6.44s-6.44-2.88-6.44-6.44,2.88-6.44,6.44-6.44,6.44,2.88,6.44,6.44Z"/><path class="cls-5" d="m30,22.36c-4.2,0-7.61-3.42-7.61-7.62s3.42-7.61,7.61-7.61,7.62,3.42,7.62,7.61-3.42,7.62-7.62,7.62Zm0-12.87c-2.9,0-5.26,2.36-5.26,5.26s2.36,5.26,5.26,5.26,5.26-2.36,5.26-5.26-2.36-5.26-5.26-5.26Z"/><rect class="cls-5" x="50.66" y="12.38" width="2.36" height="24.54" transform="translate(-5.28 18.93) rotate(-19.71)"/><rect class="cls-5" x="33.07" y="23.47" width="24.78" height="2.36" transform="translate(6.03 58.1) rotate(-68.78)"/><path class="cls-1" d="m58.82,35.28c0,5.68-4.6,10.28-10.28,10.28s-10.28-4.6-10.28-10.28h20.57Z"/><rect class="cls-5" x="-4.1" y="23.47" width="24.54" height="2.36" transform="translate(-17.79 24.02) rotate(-70.29)"/><rect class="cls-5" x="13.36" y="12.26" width="2.36" height="24.78" transform="translate(-7.94 6.94) rotate(-21.24)"/><path class="cls-6" d="m1.18,35.28c0,5.68,4.6,10.28,10.28,10.28s10.28-4.6,10.28-10.28H1.18Z"/><path class="cls-5" d="m57.21,42.78l-1.78-1.54c.52-.61.97-1.28,1.31-1.99l2.12,1.03c-.44.9-.99,1.75-1.65,2.51Z"/><path class="cls-5" d="m48.54,46.75c-6.32,0-11.46-5.14-11.46-11.46v-1.18h22.93v1.18c0,1.4-.25,2.77-.74,4.07l-2.21-.84c.25-.66.42-1.35.51-2.05h-18.06c.58,4.47,4.41,7.93,9.03,7.93.8,0,1.59-.1,2.35-.31,1.01-.27,1.96-.71,2.82-1.31l1.34,1.94c-1.09.75-2.28,1.31-3.56,1.64-.96.26-1.96.39-2.96.39Z"/><path class="cls-1" d="m1.18,35.28c0,5.68,4.6,10.28,10.28,10.28s10.28-4.6,10.28-10.28H1.18Z"/><path class="cls-5" d="m11.46,46.75c-6.32,0-11.46-5.14-11.46-11.46v-1.18h22.93v1.18c0,6.32-5.14,11.46-11.46,11.46Zm-9.03-10.28c.58,4.47,4.41,7.93,9.03,7.93s8.45-3.46,9.03-7.93H2.43Z"/><path class="cls-4" d="m51.26,15.13c0,1.49-1.21,2.7-2.7,2.7s-2.7-1.21-2.7-2.7,1.21-2.7,2.7-2.7,2.7,1.21,2.7,2.7Z"/><path class="cls-5" d="m48.56,19.01c-2.14,0-3.88-1.74-3.88-3.88s1.74-3.88,3.88-3.88,3.88,1.74,3.88,3.88-1.74,3.88-3.88,3.88Zm0-5.41c-.84,0-1.52.68-1.52,1.52s.68,1.52,1.52,1.52,1.52-.68,1.52-1.52-.68-1.52-1.52-1.52Z"/><path class="cls-4" d="m14.17,15.13c0,1.49-1.21,2.7-2.7,2.7s-2.7-1.21-2.7-2.7,1.21-2.7,2.7-2.7,2.7,1.21,2.7,2.7Z"/><path class="cls-5" d="m11.46,19.01c-2.14,0-3.88-1.74-3.88-3.88s1.74-3.88,3.88-3.88,3.88,1.74,3.88,3.88-1.74,3.88-3.88,3.88Zm0-5.41c-.84,0-1.52.68-1.52,1.52s.68,1.52,1.52,1.52,1.52-.68,1.52-1.52-.68-1.52-1.52-1.52Z"/></svg>