<?xml version="1.0" encoding="UTF-8"?><svg id="_圖層_1" xmlns="http://www.w3.org/2000/svg" viewBox="0 0 60 60"><defs><style>.cls-1{fill:#fff;}.cls-1,.cls-2,.cls-3,.cls-4,.cls-5{stroke-width:0px;}.cls-2{fill:#e86a6a;}.cls-3{fill:#fcc557;}.cls-4{fill:#414042;}.cls-5{fill:#ce5252;}</style></defs><path class="cls-1" d="m25.13,39.85h-4.95v-6.87h4.76l1.81,4.46c.47,1.15-.38,2.42-1.63,2.42Z"/><path class="cls-4" d="m25.13,40.9h-6v-8.97h6.52l2.08,5.11c.35.86.25,1.84-.27,2.62-.52.77-1.39,1.24-2.32,1.24Zm-3.9-2.1h3.9c.34,0,.52-.22.59-.31s.2-.35.07-.66l-1.55-3.81h-3.01v4.78Z"/><path class="cls-3" d="m24.43,52.77h-5.9c-.75,0-1.41-.51-1.6-1.24l-4.54-17.41h9.32l4.32,16.58c.27,1.05-.52,2.07-1.6,2.07Z"/><path class="cls-4" d="m24.43,53.82h-5.9c-1.23,0-2.3-.83-2.61-2.02l-4.88-18.73h11.48l4.53,17.36c.21.82.04,1.67-.48,2.33-.51.67-1.29,1.05-2.14,1.05Zm-10.69-18.65l4.2,16.1c.07.27.31.45.59.45h5.9c.26,0,.41-.15.48-.24.07-.09.17-.27.11-.52l-4.12-15.8h-7.15Z"/><path class="cls-1" d="m56.42,41.8l-28.12-7.23V14.63l28.12-7.23c1.28-.33,2.53.64,2.53,1.96v30.47c0,1.33-1.25,2.29-2.53,1.96Z"/><path class="cls-1" d="m13.78,24.6c0,3.52-2.85,6.37-6.37,6.37s-6.37-2.85-6.37-6.37,2.85-6.37,6.37-6.37,6.37,2.85,6.37,6.37Z"/><path class="cls-4" d="m7.41,32.01c-4.09,0-7.41-3.33-7.41-7.41s3.33-7.41,7.41-7.41,7.41,3.33,7.41,7.41-3.33,7.41-7.41,7.41Zm0-12.73c-2.93,0-5.32,2.39-5.32,5.32s2.39,5.32,5.32,5.32,5.32-2.39,5.32-5.32-2.39-5.32-5.32-5.32Z"/><path class="cls-4" d="m57.27,43.01c-.23,0-.46-.03-.69-.09l-29.33-7.54V13.81l13.3-3.42.52,2.03-11.72,3.01v18.31l27.76,7.14c.27.07.46-.04.55-.11.09-.07.25-.23.25-.51V8.92c0-.27-.16-.44-.25-.51-.09-.07-.29-.18-.55-.11l-5.67,1.46-.52-2.03,5.67-1.46c.82-.21,1.68-.04,2.36.49.67.52,1.06,1.31,1.06,2.16v31.34c0,.85-.39,1.64-1.06,2.16-.49.38-1.07.57-1.67.57Z"/><rect class="cls-4" x="43.56" y="9.13" width="4.06" height="2.1" transform="translate(-1.1 11.65) rotate(-14.4)"/><rect class="cls-2" x="7.22" y="14.63" width="21.83" height="19.94"/><rect class="cls-5" x="7.22" y="26.37" width="21.83" height="8.19"/><path class="cls-4" d="m30.09,35.61H9.73c-1.96,0-3.56-1.6-3.56-3.56v-14.92c0-1.96,1.6-3.56,3.56-3.56h20.37v22.03ZM9.73,15.67c-.81,0-1.46.66-1.46,1.46v14.92c0,.81.66,1.46,1.46,1.46h18.27V15.67H9.73Z"/></svg>