<?xml version="1.0" encoding="UTF-8"?><svg id="_圖層_1" xmlns="http://www.w3.org/2000/svg" viewBox="0 0 24 24"><defs><style>.cls-1{fill:#5d5d5d;}</style></defs><path class="cls-1" d="m17.25,3.75H6.75c-2.07,0-3.75,1.68-3.75,3.75v9c0,2.07,1.68,3.75,3.75,3.75h10.5c2.07,0,3.75-1.68,3.75-3.75V7.5c0-2.07-1.68-3.75-3.75-3.75Zm-10.5,1.5h10.5c.92,0,1.74.56,2.09,1.42l-5.74,5.74c-.88.88-2.3.88-3.18,0l-5.74-5.74c.34-.85,1.17-1.41,2.08-1.42Zm10.5,13.5H6.75c-1.24,0-2.25-1.01-2.25-2.25v-7.88l4.85,4.85c1.47,1.46,3.84,1.46,5.3,0l4.85-4.85v7.88c0,1.24-1.01,2.25-2.25,2.25Z"/></svg>