<?xml version="1.0" encoding="UTF-8"?><svg xmlns="http://www.w3.org/2000/svg" xmlns:xlink="http://www.w3.org/1999/xlink" viewBox="0 0 60 60"><defs><style>.cls-1{fill:#fbfbfb;opacity:.07;}.cls-1,.cls-2,.cls-3,.cls-4,.cls-5,.cls-6,.cls-7,.cls-8,.cls-9,.cls-10{stroke-width:0px;}.cls-2{fill:#fdf0c6;}.cls-3{fill:#fcfcfc;opacity:.05;}.cls-11{isolation:isolate;}.cls-4{fill:#fefefe;opacity:.02;}.cls-5{fill:none;}.cls-6{fill:#fdfdfd;opacity:.04;}.cls-7{fill:#e86a6a;}.cls-12{clip-path:url(#clippath);}.cls-8{fill:#fcc557;}.cls-9{fill:#414042;}.cls-13{opacity:.41;}.cls-14{mix-blend-mode:multiply;}.cls-10{fill:#fff;opacity:0;}</style><clipPath id="clippath"><rect class="cls-5" x="-80" y="-198" width="360" height="100"/></clipPath></defs><g class="cls-11"><g id="_圖層_1"><g class="cls-12"><g class="cls-13"><g class="cls-14"><path class="cls-10" d="m-237.32-51.35c-15.88-9.89-14.34-18.62-.42-40.99l37.99-91.97c13.93-22.37,42.96-28.08,58.84-18.19L-4.66-150.54c15.87,9.89,7.91-14.5-6.03,7.87L-72.99,8.52c-13.93,22.36-81.16,3.49-97.03-6.4l-67.3-53.47Z"/><path class="cls-4" d="m-235.27-51.76c-15.75-9.81-14.18-18.55-.44-40.57l37.79-91.09c13.82-22.2,42.49-28.11,58.24-18.3L-5.52-150.02c15.75,9.81,8.08-14.08-5.74,8.12L-72.81,7.57c-13.82,22.19-79.99,4.23-95.73-5.58l-66.72-53.74Z"/><path class="cls-6" d="m-233.21-52.16c-15.63-9.73-14.01-18.47-.46-40.16l37.6-90.21c13.71-22.02,42.01-28.14,57.64-18.41L-6.37-149.49c15.63,9.73,8.26-13.65-5.46,8.37L-72.63,6.62c-13.72,22.01-78.82,4.97-94.44-4.77l-66.14-54.02Z"/><path class="cls-3" d="m-231.15-52.57c-15.51-9.66-13.84-18.4-.48-39.74l37.4-89.33c13.6-21.85,41.54-28.17,57.04-18.52L-7.23-148.97c15.5,9.66,8.43-13.23-5.17,8.62L-72.46,5.68c-13.61,21.84-77.64,5.71-93.14-3.95l-65.56-54.3Z"/><path class="cls-1" d="m-229.1-52.97c-15.38-9.58-13.68-18.33-.5-39.33l37.2-88.45c13.5-21.67,41.06-28.2,56.44-18.62L-8.08-148.45c15.38,9.58,8.61-12.81-4.89,8.86L-72.28,4.73c-13.5,21.67-76.47,6.45-91.84-3.13l-64.98-54.57Z"/></g></g></g><path class="cls-7" d="m49.74,26.35l.46,6.27c.03.45-.44.78-.85.58l-11.66-5.63c-.35-.17-.39-.65-.06-.87l5.33-3.62c2.77-1.88,6.54-.06,6.78,3.28Z"/><path class="cls-9" d="m49.61,34.29c-.24,0-.48-.05-.71-.16l-11.66-5.63c-.49-.24-.83-.73-.87-1.27-.04-.55.22-1.08.67-1.39l5.33-3.62c1.61-1.1,3.62-1.24,5.37-.4,1.75.85,2.89,2.51,3.03,4.45l.46,6.27c.04.58-.23,1.14-.71,1.47-.27.19-.59.28-.92.28Zm-10.64-7.26l10.14,4.9-.41-5.51c-.09-1.19-.78-2.22-1.86-2.74-1.08-.52-2.31-.43-3.3.24l-4.57,3.11Z"/><path class="cls-7" d="m10.26,26.35l-.46,6.27c-.03.45.44.78.85.58l11.66-5.63c.35-.17.39-.65.06-.87l-5.33-3.62c-2.77-1.88-6.54-.06-6.78,3.28Z"/><path class="cls-9" d="m10.39,34.29c-.32,0-.64-.1-.92-.28-.48-.33-.75-.89-.71-1.47l.46-6.27c.14-1.94,1.27-3.61,3.03-4.45,1.75-.85,3.76-.7,5.37.4l5.33,3.62c.45.31.71.84.67,1.39s-.37,1.04-.87,1.27l-11.66,5.63c-.22.11-.47.16-.71.16Zm4.21-10.94c-.49,0-.98.11-1.45.34-1.08.52-1.78,1.54-1.86,2.74l-.41,5.51,10.14-4.9-4.57-3.1c-.56-.38-1.21-.58-1.86-.58Z"/><path class="cls-8" d="m30.27,1.04c-5.36.11-9.63,4.54-9.52,9.91.11,5.36,4.54,9.63,9.91,9.52,5.36-.11,9.62-4.54,9.52-9.91-.11-5.36-4.54-9.63-9.91-9.52Z"/><path class="cls-9" d="m30.46,21.5c-2.79,0-5.42-1.06-7.44-3-2.07-1.99-3.24-4.67-3.3-7.54-.06-2.87,1.01-5.59,3-7.66C24.7,1.23,27.38.06,30.25,0c2.06-.04,4.02.49,5.76,1.54l-1.07,1.77c-1.4-.84-2.99-1.28-4.65-1.24-2.32.05-4.48.99-6.08,2.66-1.61,1.67-2.47,3.87-2.42,6.19.05,2.32.99,4.48,2.66,6.09,1.67,1.61,3.88,2.47,6.19,2.42,2.32-.05,4.48-.99,6.08-2.66,1.61-1.67,2.46-3.87,2.42-6.19-.02-.91-.18-1.81-.47-2.66l1.96-.68c.36,1.06.56,2.16.58,3.29.06,2.87-1.01,5.59-3,7.66-1.99,2.07-4.67,3.24-7.54,3.3-.07,0-.15,0-.22,0Z"/><path class="cls-9" d="m37.96,6.39c-.34-.59-.76-1.14-1.23-1.63l1.5-1.43c.58.61,1.1,1.29,1.52,2.02l-1.79,1.05Z"/><path class="cls-9" d="m31.52,15.46h-4.95v-2.07h4.95c.44,0,.8-.36.8-.8s-.36-.8-.8-.8h-1.98c-1.59,0-2.87-1.29-2.87-2.87s1.29-2.87,2.87-2.87h4.81v2.07h-4.81c-.44,0-.8.36-.8.8s.36.8.8.8h1.98c1.59,0,2.87,1.29,2.87,2.87s-1.29,2.87-2.87,2.87Z"/><rect class="cls-9" x="29.43" y="4.03" width="2.07" height="13.44"/><polygon class="cls-7" points="26.64 58.96 20.95 58.96 20.36 50.6 26.64 50.6 26.64 58.96"/><polygon class="cls-7" points="34.49 58.96 40.19 58.96 40.78 50.6 34.49 50.6 34.49 58.96"/><path class="cls-9" d="m27.68,60h-7.7l-.73-10.44h8.43v10.44Zm-5.77-2.07h3.7v-6.3h-4.14l.44,6.3Z"/><path class="cls-9" d="m41.15,60h-7.7v-10.44h8.43l-.73,10.44Zm-5.63-2.07h3.7l.44-6.3h-4.14v6.3Z"/><ellipse class="cls-7" cx="30.64" cy="39.64" rx="17.41" ry="15.85"/><path class="cls-2" d="m35.58,43.17c0,2.83-2.29,5.12-5.12,5.12s-5.12-2.29-5.12-5.12,2.29-5.12,5.12-5.12,5.12,2.29,5.12,5.12Z"/><path class="cls-9" d="m30.64,56.53c-10.17,0-18.45-7.58-18.45-16.89s8.28-16.89,18.45-16.89,18.45,7.58,18.45,16.89-8.28,16.89-18.45,16.89Zm0-31.7c-9.03,0-16.38,6.65-16.38,14.82s7.35,14.82,16.38,14.82,16.38-6.65,16.38-14.82-7.35-14.82-16.38-14.82Z"/><path class="cls-9" d="m30.46,52.86c-2.21,0-4.29-.86-5.86-2.43l1.46-1.46c1.17,1.17,2.73,1.82,4.39,1.82s3.22-.65,4.39-1.82l1.46,1.46c-1.56,1.56-3.64,2.43-5.86,2.43Z"/><path class="cls-9" d="m30.46,49.33c-3.39,0-6.15-2.76-6.15-6.15s2.76-6.15,6.15-6.15,6.15,2.76,6.15,6.15-2.76,6.15-6.15,6.15Zm0-10.24c-2.25,0-4.08,1.83-4.08,4.08s1.83,4.08,4.08,4.08,4.08-1.83,4.08-4.08-1.83-4.08-4.08-4.08Z"/><path class="cls-9" d="m28.34,36.06h-2.07c0-.77-.62-1.39-1.39-1.39s-1.39.62-1.39,1.39h-2.07c0-1.91,1.55-3.46,3.46-3.46s3.46,1.55,3.46,3.46Z"/><path class="cls-9" d="m39.51,36.06h-2.07c0-.77-.62-1.39-1.39-1.39s-1.39.62-1.39,1.39h-2.07c0-1.91,1.55-3.46,3.46-3.46s3.46,1.55,3.46,3.46Z"/><rect class="cls-9" x="27.73" y="42.38" width="1.57" height="2.07"/><rect class="cls-9" x="31.87" y="42.38" width="1.57" height="2.07"/></g></g></svg>