<?xml version="1.0" encoding="UTF-8"?><svg id="_圖層_1" xmlns="http://www.w3.org/2000/svg" viewBox="0 0 24 24"><defs><style>.cls-1{fill:#005798;}</style></defs><path class="cls-1" d="m23.27,9.41c-.9-1.48-2.04-2.8-3.37-3.91l2.8-2.8c.38-.4.37-1.03-.02-1.41-.39-.37-1-.37-1.39,0l-3.04,3.05c-1.89-1.12-4.04-1.7-6.24-1.69C5.81,2.65,2.28,6.88.73,9.41c-.98,1.58-.98,3.58,0,5.16.9,1.48,2.04,2.8,3.37,3.91l-2.8,2.8c-.4.38-.41,1.02-.02,1.41.38.4,1.02.41,1.41.02,0,0,.02-.02.02-.02l3.05-3.05c1.88,1.12,4.04,1.71,6.23,1.69,6.19,0,9.72-4.24,11.27-6.76.98-1.58.98-3.58,0-5.16ZM2.44,13.52c-.58-.94-.58-2.13,0-3.07,1.33-2.17,4.35-5.81,9.56-5.81,1.66,0,3.3.39,4.76,1.16l-2.01,2.01c-2.3-1.52-5.39-.9-6.92,1.4-1.11,1.67-1.11,3.85,0,5.52l-2.31,2.31c-1.22-.99-2.27-2.18-3.09-3.53Zm12.56-1.53c0,1.66-1.34,3-3,3-.45,0-.88-.1-1.28-.3l3.98-3.98c.2.4.3.84.3,1.28Zm-6,0c0-1.66,1.34-3,3-3,.45,0,.88.1,1.28.3l-3.98,3.98c-.2-.4-.3-.84-.3-1.28Zm12.56,1.53c-1.33,2.17-4.35,5.81-9.56,5.81-1.66,0-3.3-.39-4.76-1.16l2.01-2.01c2.3,1.52,5.39.9,6.92-1.4,1.11-1.67,1.11-3.85,0-5.52l2.31-2.31c1.22.99,2.27,2.18,3.09,3.53.58.94.58,2.13,0,3.07h0Z"/></svg>