<?xml version="1.0" encoding="UTF-8"?>
<svg id="_圖層_1" data-name="圖層_1" xmlns="http://www.w3.org/2000/svg" viewBox="0 0 50 50">
  <defs>
    <style>
      .cls-1 {
        opacity: .1;
      }

      .cls-1, .cls-2 {
        fill: #4d98d1;
      }
    </style>
  </defs>
  <circle class="cls-1" cx="24.99" cy="25" r="25"/>
  <path class="cls-2" d="M34,25.06v-1.56c0-4.97-4.03-9-9-9s-9,4.03-9,9v1.56c-1.83.88-2.99,2.73-3,4.76v.36c0,2.94,2.38,5.31,5.32,5.32h.18c1.38,0,2.5-1.12,2.5-2.5v-6c0-1.19-.84-2.21-2-2.45v-1.06c0-3.31,2.69-6,6-6s6,2.69,6,6v1.06c-1.16.24-2,1.26-2,2.45v5.5h-1.5c-.83,0-1.5.67-1.5,1.5s.67,1.5,1.5,1.5h4.18c2.94,0,5.31-2.38,5.32-5.32v-.36c0-2.03-1.17-3.88-3-4.76ZM18,32.48c-1.15-.16-2-1.14-2-2.3v-.36c0-1.16.85-2.14,2-2.3v4.96ZM34,30.18c0,1.16-.85,2.14-2,2.3v-4.96c1.15.16,2,1.14,2,2.3v.36Z"/>
</svg>