<?xml version="1.0" encoding="UTF-8"?><svg xmlns="http://www.w3.org/2000/svg" xmlns:xlink="http://www.w3.org/1999/xlink" viewBox="0 0 60 60"><defs><style>.cls-1{fill:#e1e1e1;opacity:.56;}.cls-1,.cls-2,.cls-3,.cls-4,.cls-5,.cls-6,.cls-7,.cls-8,.cls-9,.cls-10,.cls-11,.cls-12,.cls-13,.cls-14,.cls-15,.cls-16,.cls-17,.cls-18,.cls-19,.cls-20,.cls-21,.cls-22,.cls-23,.cls-24,.cls-25,.cls-26,.cls-27,.cls-28,.cls-29,.cls-30,.cls-31,.cls-32,.cls-33,.cls-34,.cls-35,.cls-36,.cls-37,.cls-38,.cls-39,.cls-40,.cls-41,.cls-42{stroke-width:0px;}.cls-2{fill:#e4e4e4;opacity:.51;}.cls-3{fill:#f8f8f8;opacity:.13;}.cls-4{fill:#fbfbfb;opacity:.07;}.cls-5{fill:#fdf0c6;}.cls-6{fill:#fcfcfc;opacity:.05;}.cls-7{fill:#6cc;}.cls-8{fill:#f1f1f2;opacity:.25;}.cls-9{fill:#fafafa;opacity:.09;}.cls-10{fill:#0686d8;}.cls-43{isolation:isolate;}.cls-11{fill:#fefefe;opacity:.02;}.cls-12{fill:none;}.cls-13{fill:#edeeee;opacity:.33;}.cls-14{fill:#e6e7e7;opacity:.45;}.cls-15{fill:#f4f4f4;opacity:.2;}.cls-16{fill:#eeefef;opacity:.31;}.cls-17{fill:#fdfdfd;opacity:.04;}.cls-18{fill:#f2f2f3;opacity:.24;}.cls-19,.cls-39{fill:#fff;}.cls-20{fill:#5fb0e5;}.cls-21{fill:#e7e8e8;opacity:.44;}.cls-44{clip-path:url(#clippath);}.cls-22{fill:#f3f3f3;opacity:.22;}.cls-23{fill:#f7f7f7;opacity:.15;}.cls-24{fill:#fcc557;}.cls-25{fill:#414042;}.cls-45{opacity:.41;}.cls-26{fill:#e8e9e9;opacity:.42;}.cls-27{fill:#f9f9f9;opacity:.11;}.cls-28{fill:#efeff0;opacity:.29;}.cls-29{fill:#e2e2e2;opacity:.55;}.cls-30{fill:#f0f0f1;opacity:.27;}.cls-31{fill:#f5f5f5;opacity:.18;}.cls-32{fill:#e6e6e6;opacity:.47;}.cls-33{fill:#e5e5e5;opacity:.49;}.cls-34{fill:#f6f6f6;opacity:.16;}.cls-35{fill:#ebecec;opacity:.36;}.cls-36{fill:#e3e3e3;opacity:.53;}.cls-46{mix-blend-mode:multiply;}.cls-37{fill:#e9eaea;opacity:.4;}.cls-38{fill:#e0e0e0;opacity:.58;}.cls-39{opacity:0;}.cls-40{fill:#eaebeb;opacity:.38;}.cls-41{fill:#eceded;opacity:.35;}.cls-42{fill:#dfdfdf;opacity:.6;}</style><clipPath id="clippath"><rect class="cls-12" y="-198" width="360" height="100"/></clipPath></defs><g class="cls-43"><g id="_圖層_1"><g class="cls-44"><g class="cls-45"><g class="cls-46"><path class="cls-39" d="m-157.32-51.35c-15.88-9.89-14.34-18.62-.42-40.99l37.99-91.97c13.93-22.37,42.96-28.08,58.84-18.19l136.25,51.96c15.87,9.89,7.91-14.5-6.03,7.87L7.01,8.52c-13.93,22.36-81.16,3.49-97.03-6.4l-67.3-53.47Z"/><path class="cls-11" d="m-155.27-51.76c-15.75-9.81-14.18-18.55-.44-40.57l37.79-91.09c13.82-22.2,42.49-28.11,58.24-18.3l134.16,51.7c15.75,9.81,8.08-14.08-5.74,8.12L7.19,7.57C-6.64,29.76-72.8,11.8-88.55,1.99l-66.72-53.74Z"/><path class="cls-17" d="m-153.21-52.16c-15.63-9.73-14.01-18.47-.46-40.16l37.6-90.21c13.71-22.02,42.01-28.14,57.64-18.41l132.06,51.44c15.63,9.73,8.26-13.65-5.46,8.37L7.37,6.62C-6.35,28.64-71.45,11.59-87.07,1.86l-66.14-54.02Z"/><path class="cls-6" d="m-151.15-52.57c-15.51-9.66-13.84-18.4-.48-39.74l37.4-89.33c13.6-21.85,41.54-28.17,57.04-18.52l129.97,51.19c15.5,9.66,8.43-13.23-5.17,8.62L7.54,5.68C-6.06,27.52-70.1,11.38-85.6,1.73l-65.56-54.3Z"/><path class="cls-4" d="m-149.1-52.97c-15.38-9.58-13.68-18.33-.5-39.33l37.2-88.45c13.5-21.67,41.06-28.2,56.44-18.62l127.87,50.93c15.38,9.58,8.61-12.81-4.89,8.86L7.72,4.73C-5.78,26.4-68.74,11.18-84.12,1.6l-64.98-54.57Z"/><path class="cls-9" d="m-147.04-53.38c-15.26-9.5-13.51-18.25-.52-38.91l37.01-87.57c13.39-21.5,40.58-28.23,55.84-18.73l125.78,50.67c15.26,9.5,8.78-12.39-4.61,9.11L7.9,3.78C-5.49,25.28-67.39,10.97-82.64,1.47l-64.4-54.85Z"/><path class="cls-27" d="m-144.98-53.78c-15.14-9.43-13.35-18.18-.55-38.5l36.81-86.69c13.28-21.33,40.11-28.26,55.24-18.84l123.68,50.41c15.13,9.43,8.96-11.97-4.32,9.36L8.08,2.84c-13.28,21.32-74.12,7.93-89.25-1.5l-63.81-55.12Z"/><path class="cls-3" d="m-142.93-54.19c-15.01-9.35-13.18-18.11-.57-38.08l36.62-85.81c13.17-21.15,39.63-28.29,54.64-18.95l121.59,50.16c15.01,9.35,9.14-11.55-4.04,9.61L8.26,1.89c-13.18,21.15-72.95,8.67-87.95-.68l-63.23-55.4Z"/><path class="cls-23" d="m-140.87-54.59c-14.89-9.27-13.02-18.03-.59-37.67l36.42-84.93c13.06-20.98,39.15-28.33,54.04-19.06l119.5,49.9c14.89,9.27,9.31-11.12-3.76,9.86L8.44.94c-13.07,20.97-71.77,9.41-86.66.14l-62.65-55.68Z"/><path class="cls-34" d="m-138.82-55c-14.77-9.19-12.85-17.96-.61-37.25l36.22-84.05c12.96-20.81,38.68-28.36,53.44-19.16l117.4,49.64c14.77,9.19,9.49-10.7-3.47,10.1L8.61,0C-4.34,20.8-61.98,10.15-76.74.95l-62.07-55.95Z"/><path class="cls-31" d="m-136.76-55.41c-14.64-9.12-12.69-17.89-.63-36.84l36.03-83.17c12.85-20.63,38.2-28.39,52.84-19.27l115.31,49.38c14.64,9.12,9.66-10.28-3.19,10.35L8.79-.95C-4.06,19.68-60.63,9.94-75.27.82l-61.49-56.23Z"/><path class="cls-15" d="m-134.7-55.81c-14.52-9.04-12.52-17.81-.65-36.42l35.83-82.29c12.74-20.46,37.72-28.42,52.24-19.38l113.21,49.12c14.52,9.04,9.84-9.86-2.9,10.6L8.97-1.9C-3.77,18.55-59.28,9.73-73.79.69l-60.91-56.5Z"/><path class="cls-22" d="m-132.65-56.22c-14.4-8.96-12.36-17.74-.68-36.01l35.64-81.41c12.63-20.28,37.25-28.45,51.64-19.49l111.12,48.87c14.4,8.96,10.01-9.44-2.62,10.85L9.15-2.84C-3.48,17.43-57.93,9.53-72.32.56l-60.33-56.78Z"/><path class="cls-18" d="m-130.59-56.62c-14.27-8.89-12.19-17.67-.7-35.59l35.44-80.54c12.52-20.11,36.77-28.48,51.04-19.59l109.02,48.61c14.27,8.89,10.19-9.02-2.34,11.1L9.33-3.79C-3.2,16.31-56.58,9.32-70.84.43l-59.75-57.06Z"/><path class="cls-8" d="m-128.53-57.03c-14.15-8.81-12.03-17.59-.72-35.18l35.24-79.66c12.41-19.94,36.29-28.51,50.44-19.7l106.93,48.35c14.15,8.81,10.37-8.59-2.05,11.34L9.51-4.74C-2.91,15.19-55.22,9.12-69.37.3l-59.17-57.33Z"/><path class="cls-30" d="m-126.48-57.43c-14.03-8.73-11.86-17.52-.74-34.76l35.05-78.78c12.31-19.76,35.82-28.54,49.84-19.81l104.83,48.09c14.03,8.73,10.54-8.17-1.77,11.59L9.68-5.69C-2.63,14.07-53.87,8.91-67.89.17l-58.59-57.61Z"/><path class="cls-28" d="m-124.42-57.84c-13.9-8.66-11.7-17.44-.76-34.35l34.85-77.9c12.2-19.59,35.34-28.57,49.24-19.92l102.74,47.84c13.9,8.66,10.72-7.75-1.49,11.84L9.86-6.63C-2.34,12.95-52.52,8.7-66.42.05l-58-57.88Z"/><path class="cls-16" d="m-122.37-58.24c-13.78-8.58-11.53-17.37-.78-33.93l34.66-77.02c12.09-19.42,34.86-28.6,48.64-20.02l100.65,47.58c13.78,8.58,10.89-7.33-1.2,12.09L10.04-7.58C-2.05,11.83-51.17,8.5-64.94-.08l-57.42-58.16Z"/><path class="cls-13" d="m-120.31-58.65c-13.66-8.5-11.36-17.3-.81-33.52l34.46-76.14c11.98-19.24,34.39-28.63,48.04-20.13l98.55,47.32c13.66,8.5,11.07-6.91-.92,12.34L10.22-8.53C-1.77,10.71-49.82,8.29-63.47-.21l-56.84-58.44Z"/><path class="cls-41" d="m-118.25-59.05c-13.53-8.43-11.2-17.22-.83-33.11l34.26-75.26c11.87-19.07,33.91-28.66,47.44-20.24l96.46,47.06c13.53,8.43,11.24-6.48-.63,12.58L10.4-9.47C-1.48,9.59-48.46,8.08-61.99-.34l-56.26-58.71Z"/><path class="cls-35" d="m-116.2-59.46c-13.41-8.35-11.03-17.15-.85-32.69l34.07-74.38c11.77-18.89,33.43-28.69,46.84-20.35l94.36,46.8c13.41,8.35,11.42-6.06-.35,12.83L10.57-10.42C-1.19,8.47-47.11,7.88-60.52-.47l-55.68-58.99Z"/><path class="cls-40" d="m-114.14-59.86c-13.29-8.27-10.87-17.08-.87-32.28l33.87-73.5c11.66-18.72,32.96-28.73,46.24-20.45l92.27,46.55c13.29,8.27,11.59-5.64-.07,13.08L10.75-11.37C-.91,7.35-45.76,7.67-59.04-.6l-55.1-59.26Z"/><path class="cls-37" d="m-112.09-60.27c-13.16-8.2-10.7-17-.89-31.86l33.68-72.62c11.55-18.55,32.48-28.76,45.64-20.56l90.17,46.29c13.16,8.2,11.77-5.22.22,13.33L10.93-12.31C-.62,6.23-44.41,7.47-57.57-.73l-54.52-59.54Z"/><path class="cls-26" d="m-110.03-60.68c-13.04-8.12-10.54-16.93-.91-31.45l33.48-71.74c11.44-18.37,32.01-28.79,45.04-20.67l88.08,46.03c13.04,8.12,11.95-4.8.5,13.57L11.11-13.26C-.33,5.11-43.06,7.26-56.09-.86l-53.94-59.81Z"/><path class="cls-21" d="m-107.97-61.08c-12.92-8.04-10.37-16.86-.94-31.03l33.28-70.86c11.33-18.2,31.53-28.82,44.44-20.78l85.98,45.77c12.92,8.04,12.12-4.38.79,13.82L11.29-14.21C-.05,3.99-41.71,7.05-54.62-.99l-53.36-60.09Z"/><path class="cls-14" d="m-105.92-61.49c-12.79-7.97-10.21-16.78-.96-30.62l33.09-69.98c11.22-18.03,31.05-28.85,43.84-20.88l83.89,45.52c12.79,7.97,12.3-3.95,1.07,14.07L11.47-15.15C.24,2.87-40.35,6.85-53.14-1.12l-52.77-60.37Z"/><path class="cls-32" d="m-103.86-61.89c-12.67-7.89-10.04-16.71-.98-30.2l32.89-69.11c11.12-17.85,30.58-28.88,43.24-20.99l81.8,45.26c12.67,7.89,12.47-3.53,1.35,14.32L11.64-16.1C.53,1.75-39,6.64-51.67-1.25l-52.19-60.64Z"/><path class="cls-33" d="m-101.8-62.3c-12.55-7.81-9.88-16.64-1-29.79l32.7-68.23c11.01-17.68,30.1-28.91,42.64-21.1l79.7,45c12.55,7.81,12.65-3.11,1.64,14.57L11.82-17.05C.81.63-37.65,6.43-50.19-1.38l-51.61-60.92Z"/><path class="cls-2" d="m-99.75-62.7c-12.42-7.74-9.71-16.56-1.02-29.37l32.5-67.35c10.9-17.5,29.62-28.94,42.04-21.21l77.61,44.74c12.42,7.73,12.82-2.69,1.92,14.81L12-17.99C1.1-.49-36.3,6.23-48.72-1.51l-51.03-61.19Z"/><path class="cls-36" d="m-97.69-63.11c-12.3-7.66-9.55-16.49-1.04-28.96l32.3-66.47c10.79-17.33,29.15-28.97,41.44-21.31l75.51,44.48c12.3,7.66,13-2.27,2.2,15.06L12.18-18.94C1.39-1.61-34.95,6.02-47.24-1.64l-50.45-61.47Z"/><path class="cls-29" d="m-95.64-63.51c-12.18-7.58-9.38-16.42-1.07-28.54l32.11-65.59c10.68-17.16,28.67-29,40.84-21.42l73.42,44.23c12.18,7.58,13.18-1.85,2.49,15.31L12.36-19.89C1.67-2.73-33.59,5.82-45.77-1.77l-49.87-61.75Z"/><path class="cls-1" d="m-93.58-63.92c-12.05-7.51-9.22-16.34-1.09-28.13l31.91-64.71c10.58-16.98,28.19-29.03,40.24-21.53l71.32,43.97c12.05,7.5,13.35-1.42,2.77,15.56L12.54-20.83C1.96-3.85-32.24,5.61-44.29-1.9l-49.29-62.02Z"/><path class="cls-38" d="m-91.52-64.32c-11.93-7.43-9.05-16.27-1.11-27.71l31.72-63.83c10.47-16.81,27.72-29.06,39.64-21.64l69.23,43.71c11.93,7.43,13.53-1,3.06,15.81L12.71-21.78C2.24-4.97-30.89,5.4-42.82-2.03l-48.71-62.3Z"/><path class="cls-42" d="m-89.47-64.73c-11.81-7.35-8.89-16.2-1.13-27.3l31.52-62.95c10.36-16.64,27.24-29.09,39.04-21.74l67.13,43.45c11.81,7.35,13.7-.58,3.34,16.05L12.89-22.73C2.53-6.09-29.54,5.2-41.34-2.16l-48.13-62.57Z"/></g></g></g><rect class="cls-19" x="8.64" y="1.16" width="42.73" height="53.29" rx="1.81" ry="1.81"/><path class="cls-25" d="m9.8,34.59h-2.32V4.02c0-2.21,1.8-4.02,4.02-4.02h6.37v2.32h-6.37c-.94,0-1.7.76-1.7,1.7v30.57Z"/><path class="cls-25" d="m52.52,34.59h-2.32V4.02c0-.94-.76-1.7-1.7-1.7h-17.98V0h17.98c2.21,0,4.02,1.8,4.02,4.02v30.57Z"/><rect class="cls-25" x="21.36" width="5.74" height="2.32"/><rect class="cls-7" x="14.49" y="25.29" width="4.41" height="4.41"/><rect class="cls-7" x="23.36" y="25.29" width="4.41" height="4.41"/><rect class="cls-7" x="32.23" y="25.29" width="4.41" height="4.41"/><rect class="cls-7" x="41.1" y="25.29" width="4.41" height="4.41"/><rect class="cls-7" x="14.49" y="33.38" width="4.41" height="4.41"/><rect class="cls-7" x="23.36" y="33.38" width="4.41" height="4.41"/><rect class="cls-7" x="32.23" y="33.38" width="4.41" height="4.41"/><rect class="cls-7" x="41.1" y="33.38" width="4.41" height="4.41"/><rect class="cls-20" x="14.49" y="41.47" width="4.41" height="4.41"/><rect class="cls-20" x="23.36" y="41.47" width="4.41" height="4.41"/><rect class="cls-20" x="32.23" y="41.47" width="4.41" height="4.41"/><rect class="cls-20" x="41.1" y="41.47" width="4.41" height="4.41"/><path class="cls-10" d="m20.06,47.05h-6.73v-6.73h6.73v6.73Zm-4.41-2.32h2.09v-2.09h-2.09v2.09Z"/><path class="cls-10" d="m28.93,47.05h-6.73v-6.73h6.73v6.73Zm-4.41-2.32h2.09v-2.09h-2.09v2.09Z"/><path class="cls-10" d="m37.8,47.05h-6.73v-6.73h6.73v6.73Zm-4.41-2.32h2.09v-2.09h-2.09v2.09Z"/><path class="cls-10" d="m46.67,47.05h-6.73v-6.73h6.73v6.73Zm-4.41-2.32h2.09v-2.09h-2.09v2.09Z"/><rect class="cls-24" x="14.49" y="8.88" width="31.01" height="10.6"/><polygon class="cls-5" points="17.2 19.48 28.23 19.48 38.83 8.88 27.8 8.88 17.2 19.48"/><polygon class="cls-5" points="36.42 19.48 45.51 10.4 45.51 8.88 41.13 8.88 30.52 19.48 36.42 19.48"/><path class="cls-25" d="m46.67,20.64H13.33V7.72h33.33v12.92Zm-31.02-2.32h28.7v-8.28H15.65v8.28Z"/><path class="cls-24" d="m3.63,59.77v-19.86c0-1.66,1.34-3,3-3h46.74c1.66,0,3,1.34,3,3v19.86H3.63Z"/><path class="cls-25" d="m57.53,59.77h-2.32v-19.85c0-1.02-.83-1.85-1.85-1.85H6.64c-1.02,0-1.85.83-1.85,1.85v19.85h-2.32v-19.85c0-2.3,1.87-4.16,4.16-4.16h46.73c2.3,0,4.16,1.87,4.16,4.16v19.85Z"/><path class="cls-19" d="m29.91,60c-5.16-.1-9.26-4.37-9.15-9.53.1-5.16,4.37-9.26,9.53-9.16,5.16.1,9.26,4.37,9.15,9.53-.1,5.16-4.37,9.26-9.53,9.16Z"/><path class="cls-19" d="m44.62,52.91c-1.39-.03-2.49-1.18-2.47-2.57.03-1.39,1.18-2.49,2.57-2.47,1.39.03,2.49,1.18,2.47,2.57-.03,1.39-1.18,2.49-2.57,2.47Z"/><path class="cls-19" d="m14.91,52.91c-1.39-.03-2.49-1.18-2.47-2.57.03-1.39,1.18-2.49,2.57-2.47,1.39.03,2.49,1.18,2.47,2.57-.03,1.39-1.18,2.49-2.57,2.47Z"/><path class="cls-25" d="m24.05,59.25c-2.86-2.01-4.53-5.3-4.46-8.8.06-2.8,1.2-5.42,3.22-7.36,2.02-1.94,4.75-2.98,7.49-2.93,5.79.11,10.41,4.92,10.29,10.71-.06,2.8-1.2,5.42-3.22,7.36l-1.61-1.67c1.58-1.52,2.47-3.55,2.51-5.74.09-4.51-3.51-8.26-8.02-8.35-2.2-.07-4.26.77-5.83,2.28-1.58,1.51-2.47,3.55-2.51,5.74-.05,2.72,1.24,5.29,3.47,6.86l-1.33,1.9Z"/><path class="cls-25" d="m31.12,55.35h-4.76v-2.32h4.76c.34,0,.61-.27.61-.61s-.27-.61-.61-.61h-1.9c-1.61,0-2.93-1.31-2.93-2.93s1.31-2.93,2.93-2.93h4.63v2.32h-4.63c-.34,0-.61.27-.61.61s.27.61.61.61h1.9c1.62,0,2.93,1.31,2.93,2.93s-1.31,2.93-2.93,2.93Z"/><rect class="cls-25" x="28.94" y="44.19" width="2.32" height="12.93"/><path class="cls-25" d="m48.51,59.87l-2.31-.2c.24-2.79,2.29-5.02,4.99-5.53v-6.96c-2.5-.47-4.44-2.41-4.91-4.91h-3.37v-2.32h4.03c.83,0,1.5.63,1.56,1.47.14,1.86,1.66,3.38,3.52,3.54.84.06,1.48.75,1.48,1.58v8.23c0,.84-.64,1.52-1.49,1.58-1.87.15-3.35,1.63-3.52,3.51Z"/><path class="cls-25" d="m11.11,59.87c-.16-1.88-1.64-3.35-3.52-3.51-.84-.06-1.48-.75-1.48-1.58v-8.23c0-.84.64-1.52,1.49-1.58,1.86-.15,3.37-1.67,3.52-3.54.06-.83.74-1.46,1.56-1.46h4.03v2.32h-3.37c-.47,2.5-2.41,4.44-4.91,4.91v6.96c2.7.51,4.75,2.75,4.99,5.53l-2.31.2Z"/></g></g></svg>