<?xml version="1.0" encoding="UTF-8"?><svg id="_圖層_1" xmlns="http://www.w3.org/2000/svg" viewBox="0 0 24 24"><defs><style>.cls-1{fill:#005798;stroke-width:0px;}</style></defs><path class="cls-1" d="m11.95,0c-2.95,0-5.79,1.09-7.99,3.04l-1.34-1.33c-.39-.39-1.03-.39-1.42,0-.19.19-.29.44-.29.71v4.59c0,.55.45,1,1,1h4.61c.55,0,1-.45,1-1,0-.27-.11-.52-.29-.71l-1.14-1.14c3.8-3.23,9.5-2.78,12.74,1,1.46,1.7,2.23,3.87,2.16,6.1-.14,4.97-4.3,8.88-9.29,8.74-4.38-.12-8.04-3.36-8.68-7.68-.1-.75-.74-1.31-1.49-1.32h0C.69,11.99.01,12.65,0,13.47c0,.06,0,.13.01.19.87,6.1,6.23,10.56,12.41,10.33,6.26-.3,11.27-5.28,11.57-11.52C24.25,5.84,19.06.26,12.4,0c-.15,0-.3,0-.45,0Z"/><path class="cls-1" d="m11.45,7h0c-.83,0-1.51.67-1.51,1.5v4.29c0,.53.21,1.04.59,1.41l1.8,1.79c.6.58,1.55.56,2.13-.04.56-.58.56-1.5,0-2.08l-1.51-1.5v-3.88c0-.83-.67-1.5-1.51-1.5Z"/></svg>