<?xml version="1.0" encoding="UTF-8"?><svg id="_圖層_1" xmlns="http://www.w3.org/2000/svg" viewBox="0 0 60 60"><defs><style>.cls-1{fill:#fff;}.cls-1,.cls-2,.cls-3,.cls-4{stroke-width:0px;}.cls-2{fill:#e86a6a;}.cls-3{fill:#414042;}.cls-4{fill:#fbda73;}</style></defs><rect class="cls-4" x="3.73" y="9.96" width="52.83" height="37.97" rx="1" ry="1"/><rect class="cls-3" x="35.74" y="8.93" width="3.65" height="2.05"/><path class="cls-3" d="m55.24,48.96H5.04c-1.29,0-2.34-1.05-2.34-2.34V11.27c0-1.29,1.05-2.34,2.34-2.34h27.05v2.05H5.04c-.15,0-.29.13-.29.29v35.35c0,.15.13.29.29.29h50.2c.16,0,.29-.13.29-.29V11.27c0-.15-.13-.29-.29-.29h-11.69v-2.05h11.69c1.29,0,2.34,1.05,2.34,2.34v35.35c0,1.29-1.05,2.34-2.34,2.34Z"/><rect class="cls-1" x="6.29" y="12.95" width="47.41" height="30.81"/><path class="cls-1" d="m55.63,50.04H4.07c-1.24,0-2.29-.9-2.49-2.12l-.37-2.24h23.9l.91,1.31h6.6l.99-1.31h25.18l-.32,1.95c-.23,1.39-1.43,2.41-2.84,2.41Z"/><path class="cls-3" d="m55.63,51.07H4.07c-1.75,0-3.22-1.25-3.51-2.98l-.56-3.43h25.64l.91,1.31h5.56l.99-1.31h26.9l-.51,3.14c-.31,1.89-1.93,3.27-3.85,3.27ZM2.42,46.71l.17,1.05c.12.73.74,1.26,1.48,1.26h51.56c.91,0,1.68-.65,1.82-1.55l.12-.76h-23.46l-.99,1.31h-7.65l-.91-1.31H2.42Z"/><polygon class="cls-2" points="35.52 34.27 28.75 27.27 20.47 34.26 16.61 30.41 13.39 33.89 9.78 33.89 9.78 31.84 12.49 31.84 16.56 27.45 20.59 31.47 28.89 24.46 35.66 31.47 48.03 21.11 49.35 22.69 35.52 34.27"/><polygon class="cls-2" points="50.66 25.04 48.6 25.04 48.6 21.93 45.69 21.93 45.69 19.87 50.66 19.87 50.66 25.04"/><rect class="cls-3" x="13.77" y="16.67" width="10.1" height="2.05"/><rect class="cls-3" x="13.77" y="20.87" width="5.05" height="2.05"/><polygon class="cls-3" points="47.39 42.15 8.72 42.15 8.75 16.33 10.8 16.33 10.78 40.1 47.39 40.1 47.39 42.15"/></svg>