<?xml version="1.0" encoding="UTF-8"?><svg id="_圖層_1" xmlns="http://www.w3.org/2000/svg" viewBox="0 0 24 24"><defs><style>.cls-1{fill:#005798;}</style></defs><path id="users" class="cls-1" d="m7.5,13c-2.49,0-4.5-2.01-4.5-4.5s2.01-4.5,4.5-4.5,4.5,2.01,4.5,4.5-2.01,4.5-4.5,4.5Zm0-7c-1.38,0-2.5,1.12-2.5,2.5s1.12,2.5,2.5,2.5,2.5-1.12,2.5-2.5-1.12-2.5-2.5-2.5Zm7.5,17v-.5c0-4.14-3.36-7.5-7.5-7.5S0,18.36,0,22.5v.5c0,.55.45,1,1,1s1-.45,1-1v-.5c0-3.04,2.46-5.5,5.5-5.5s5.5,2.46,5.5,5.5v.5c0,.55.45,1,1,1s1-.45,1-1Zm9-5c0-3.87-3.13-7-7-7-1.72,0-3.38.63-4.67,1.78-.41.36-.46,1-.09,1.41.36.41,1,.46,1.41.09,0,0,0,0,.01-.01,2.06-1.84,5.22-1.66,7.06.39.82.92,1.27,2.1,1.27,3.33,0,.55.45,1,1,1s1-.45,1-1Zm-6.5-9c-2.49,0-4.5-2.01-4.5-4.5S15.01,0,17.5,0s4.5,2.01,4.5,4.5-2.01,4.5-4.5,4.5Zm0-7c-1.38,0-2.5,1.12-2.5,2.5s1.12,2.5,2.5,2.5,2.5-1.12,2.5-2.5-1.12-2.5-2.5-2.5Z"/></svg>