<?xml version="1.0" encoding="UTF-8"?><svg id="_圖層_1" xmlns="http://www.w3.org/2000/svg" viewBox="0 0 50 50"><defs><style>.cls-1{stroke:#4d98d1;}.cls-1,.cls-2{fill:none;stroke-miterlimit:10;}.cls-1,.cls-2,.cls-3{stroke-linecap:round;stroke-width:1.5px;}.cls-2,.cls-3{stroke:#005798;}.cls-3{stroke-linejoin:round;}.cls-3,.cls-4{fill:#4d98d1;}.cls-4{opacity:.1;}</style></defs><circle class="cls-4" cx="24.99" cy="25" r="25"/><line class="cls-1" x1="24.99" y1="31.5" x2="24.99" y2="38"/><line class="cls-1" x1="24.99" y1="12" x2="24.99" y2="18.5"/><line class="cls-1" x1="18.49" y1="25" x2="11.99" y2="25"/><line class="cls-1" x1="37.99" y1="25" x2="31.49" y2="25"/><path class="cls-2" d="m24.99,21.75c-1.79,0-3.25,1.46-3.25,3.25s1.46,3.25,3.25,3.25,3.25-1.46,3.25-3.25"/><path class="cls-1" d="m31.49,25c0,3.59-2.91,6.5-6.5,6.5s-6.5-2.91-6.5-6.5,2.91-6.5,6.5-6.5"/><path class="cls-1" d="m28.24,35.34c4.4-1.38,7.58-5.49,7.58-10.34"/><path class="cls-1" d="m14.65,28.25c1.38,4.39,5.49,7.58,10.34,7.58"/><path class="cls-1" d="m21.74,14.66c-4.4,1.38-7.58,5.49-7.58,10.34"/><line class="cls-2" x1="24.99" y1="25" x2="30.41" y2="19.58"/><polygon class="cls-3" points="32.57 20.48 30.27 19.71 29.51 17.42 33.34 13.59 34.1 15.88 36.4 16.65 32.57 20.48"/></svg>