<?xml version="1.0" encoding="UTF-8"?><svg id="_圖層_1" xmlns="http://www.w3.org/2000/svg" viewBox="0 0 24 24"><defs><style>.cls-1{fill:#fff;}</style></defs><path class="cls-1" d="m8.97,24h-4.97c-2.21,0-4-1.79-4-4v-5c0-2.21,1.79-4,4-4h8.86c1.1,0,2.12.58,2.69,1.52l3.22-3.53c1.12-1.23,3.02-1.32,4.25-.2,0,0,0,0,0,0,1.21,1.11,1.31,3,.22,4.23l-6.8,7.64c-1.9,2.13-4.62,3.35-7.47,3.35Zm-4.97-11c-1.1,0-2,.9-2,2v5c0,1.1.9,2,2,2h4.97c2.28,0,4.45-.98,5.97-2.68l6.81-7.64c.37-.41.34-1.05-.07-1.42-.2-.18-.46-.27-.73-.26-.27.01-.52.13-.7.33l-4.43,4.87c-.4,1.1-1.36,1.88-2.52,2.05l-5.16.74c-.55.08-1.05-.3-1.13-.85-.08-.55.3-1.05.85-1.13l5.16-.74c.62-.09,1.06-.66.97-1.29-.08-.56-.56-.98-1.13-.98H4Zm7-3.93c-.45,0-.89-.15-1.25-.44-1.71-1.37-3.75-3.44-3.75-5.44-.05-1.71,1.29-3.14,3-3.2.75,0,1.46.3,2,.82.54-.52,1.25-.81,2-.82,1.71.06,3.05,1.49,3,3.2,0,2-2.04,4.06-3.75,5.44-.35.28-.79.44-1.25.44h0Zm-2-7.07c-.6.06-1.05.59-1,1.2,0,.9,1.15,2.39,3.01,3.88,1.84-1.49,2.99-2.98,2.99-3.88.05-.61-.4-1.14-1-1.2-.6.06-1.05.59-1,1.2,0,.55-.45,1-1,1s-1-.45-1-1c.05-.61-.4-1.14-1-1.2Z"/></svg>