<?xml version="1.0" encoding="UTF-8"?><svg id="_圖層_1" xmlns="http://www.w3.org/2000/svg" viewBox="0 0 24 24"><defs><style>.cls-1{fill:#5d5d5d;}</style></defs><path class="cls-1" d="m19,8.42v-1.42c0-3.87-3.13-7-7-7s-7,3.13-7,7v1.42c-1.82.79-3,2.59-3,4.58v6c0,2.76,2.24,5,5,5h10c2.76,0,5-2.24,5-5v-6c0-1.99-1.18-3.78-3-4.58Zm-12-1.42c0-2.76,2.24-5,5-5s5,2.24,5,5v1H7v-1Zm13,12c0,1.66-1.34,3-3,3H7c-1.66,0-3-1.34-3-3v-6c0-1.66,1.34-3,3-3h10c1.66,0,3,1.34,3,3v6Z"/><path class="cls-1" d="m12,14c-.55,0-1,.45-1,1v2c0,.55.45,1,1,1s1-.45,1-1v-2c0-.55-.45-1-1-1Z"/></svg>