<?xml version="1.0" encoding="UTF-8"?><svg id="_圖層_1" xmlns="http://www.w3.org/2000/svg" viewBox="0 0 60 60"><defs><style>.cls-1{fill:#fdf0c6;}.cls-1,.cls-2,.cls-3{stroke-width:0px;}.cls-2{fill:#fcc557;}.cls-3{fill:#414042;}</style></defs><path class="cls-2" d="m48.37,25.96h-31.69v9.63c0,6.85,2.57,13.45,7.21,18.49h0v4.81h17.26v-4.81h0c4.64-5.04,7.21-11.64,7.21-18.49v-9.63Z"/><path class="cls-1" d="m41.51,25.96v9.63c0,6.85-2.57,13.45-7.21,18.49h0v4.81h3.72v-4.81h0c4.64-5.04,7.21-11.64,7.21-18.49v-9.63h-3.72Z"/><path class="cls-3" d="m41.93,60h-19.47v-5.49c-4.65-5.22-7.21-11.92-7.21-18.92v-10.74h33.9v10.74c0,2.03-.22,4.07-.65,6.06l-2.16-.47c.4-1.83.6-3.71.6-5.59v-8.53h-29.48v8.53c0,6.59,2.46,12.89,6.92,17.74l.29.32v4.13h15.05v-4.14l.29-.32c.85-.92,1.64-1.91,2.35-2.95l1.82,1.25c-.69,1-1.44,1.97-2.25,2.88v5.49Z"/><path class="cls-3" d="m45.36,49.75l-1.92-1.1c.87-1.52,1.6-3.14,2.15-4.8l2.1.7c-.6,1.8-1.38,3.56-2.33,5.2Z"/><path class="cls-3" d="m17.95,45.3h-5.21c-4.34,0-7.88-3.54-7.88-7.88s3.53-7.88,7.88-7.88h3.35v2.21h-3.35c-3.13,0-5.67,2.54-5.67,5.67s2.54,5.67,5.67,5.67h5.21v2.21Z"/><path class="cls-3" d="m29.29,22.53h-2.21v-1.89c0-3.41,2.77-6.19,6.19-6.19h4.68c.4,0,.72-.33.72-.72s-.32-.72-.72-.72h-14.72c-1.53,0-2.77-1.24-2.77-2.77s1.24-2.77,2.77-2.77h6.19v2.21h-6.19c-.31,0-.56.25-.56.56s.25.56.56.56h14.72c1.62,0,2.93,1.32,2.93,2.93s-1.32,2.93-2.93,2.93h-4.68c-2.19,0-3.98,1.78-3.98,3.98v1.89Z"/><path class="cls-3" d="m37.28,10.02h-5.32v-2.21h5.32c.42,0,.77-.35.77-.77s-.34-.77-.77-.77h-13.69c-1.73,0-3.14-1.41-3.14-3.14s1.41-3.14,3.14-3.14h19.91v2.21h-19.91c-.51,0-.93.41-.93.93s.42.93.93.93h13.69c1.64,0,2.98,1.34,2.98,2.98s-1.34,2.98-2.98,2.98Z"/></svg>