<svg xmlns="http://www.w3.org/2000/svg" width="18" height="18" viewBox="0 0 18 18">
  <path id="icon-web" d="M9,0a9,9,0,1,0,9,9A9,9,0,0,0,9,0Zm6.493,5.25h-2.42A14.756,14.756,0,0,0,10.95,1.756,7.531,7.531,0,0,1,15.493,5.25ZM12.375,9a7.657,7.657,0,0,1-.355,2.25H5.98A7.657,7.657,0,0,1,5.625,9,7.657,7.657,0,0,1,5.98,6.75h6.04A7.657,7.657,0,0,1,12.375,9ZM6.581,12.75H11.42A14.671,14.671,0,0,1,9,16.191,14.672,14.672,0,0,1,6.581,12.75Zm0-7.5A14.672,14.672,0,0,1,9,1.809,14.672,14.672,0,0,1,11.42,5.25ZM7.05,1.756A14.775,14.775,0,0,0,4.927,5.25H2.507A7.531,7.531,0,0,1,7.05,1.756ZM1.845,6.75H4.419a8.757,8.757,0,0,0,0,4.5H1.845a7.51,7.51,0,0,1,0-4.5Zm.662,6H4.927A14.756,14.756,0,0,0,7.05,16.244,7.531,7.531,0,0,1,2.507,12.75Zm8.443,3.493a14.775,14.775,0,0,0,2.123-3.493h2.419A7.531,7.531,0,0,1,10.95,16.243Zm5.2-4.993H13.581a8.757,8.757,0,0,0,0-4.5h2.574A7.51,7.51,0,0,1,16.155,11.25Z" fill="#aea8e6"/>
</svg>
