<?xml version="1.0" encoding="UTF-8"?>
<svg id="_圖層_1" data-name="圖層 1" xmlns="http://www.w3.org/2000/svg" viewBox="0 0 24 24">
  <defs>
    <style>
      .cls-1 {
        isolation: isolate;
        opacity: .1;
      }

      .cls-1, .cls-2 {
        fill: #005798;
        stroke-width: 0px;
      }
    </style>
  </defs>
  <circle id="Ellipse_19" data-name="Ellipse 19" class="cls-1" cx="12" cy="12" r="12"/>
  <path class="cls-2" d="M18.71,17.87c0,.46-.37.84-.84.84H6.13c-.46,0-.84-.37-.84-.84s.37-.84.84-.84h11.74c.46,0,.84.37.84.84ZM6.96,11.85c-.54-.54-.7-1.34-.41-2.05s.97-1.16,1.73-1.16h.92v-1.4c0-1.08.88-1.96,1.96-1.96h1.68c1.08,0,1.96.88,1.96,1.96v1.4h.92c.77,0,1.44.46,1.73,1.16.29.7.13,1.51-.41,2.05l-3.34,3.35h0c-.47.47-1.08.7-1.7.7s-1.23-.23-1.7-.7l-3.34-3.35ZM8.15,10.67l3.34,3.35c.28.28.74.28,1.02,0l3.34-3.35c.07-.07.08-.14.04-.22s-.1-.13-.19-.13h-1.75c-.46,0-.84-.37-.84-.84v-2.23c0-.15-.13-.28-.28-.28h-1.68c-.16,0-.28.12-.28.28v2.24c0,.46-.37.84-.84.84h-1.76c-.09,0-.15.04-.18.13s-.02.16.04.22h0Z"/>
</svg>