<svg xmlns="http://www.w3.org/2000/svg" version="1.1" xmlns:xlink="http://www.w3.org/1999/xlink" xmlns:svgjs="http://svgjs.com/svgjs" width="512" height="512" x="0" y="0" viewBox="0 0 24 24" style="enable-background:new 0 0 512 512" xml:space="preserve" class=""><g><path d="M23.98 21.566 16.756 1.967A2.975 2.975 0 0 0 15.2.279a2.97 2.97 0 0 0-2.294-.094l-.939.345a3.002 3.002 0 0 0-.778.423A2.992 2.992 0 0 0 9 .001H3A3.002 3.002 0 0 0 0 3v21h12V9.305l5.408 14.672 6.572-2.41Zm-5.387-.154-.965-2.619 2.816-1.033.965 2.619-2.816 1.033Zm-1.657-4.495-3.489-9.466 2.816-1.034 3.489 9.466-2.816 1.033ZM12.093 2.925a.994.994 0 0 1 .563-.519l.939-.345a1.005 1.005 0 0 1 .764.031.995.995 0 0 1 .52.564l.694 1.884-2.816 1.034-.695-1.885a.995.995 0 0 1 .031-.765ZM10 3v2H7V2h2c.551 0 1 .448 1 1ZM7 7h3v10H7V7ZM5 17H2V7h3v10ZM3 2h2v3H2V3c0-.552.449-1 1-1ZM2 19h3v3H2v-3Zm5 3v-3h3v3H7Z" fill="#005798" data-original="#000000"></path></g></svg>