<?xml version="1.0" encoding="UTF-8"?><svg id="_圖層_1" xmlns="http://www.w3.org/2000/svg" viewBox="0 0 24 24"><defs><style>.cls-1{fill:#005798;}</style></defs><path class="cls-1" d="m16.5,0c-4.21,0-7.5,1.98-7.5,4.5v2.59c-.48-.06-.98-.09-1.5-.09-4.21,0-7.5,1.98-7.5,4.5v8c0,2.52,3.29,4.5,7.5,4.5,3.41,0,6.22-1.3,7.16-3.13.6.09,1.21.13,1.84.13,4.21,0,7.5-1.98,7.5-4.5V4.5c0-2.52-3.29-4.5-7.5-4.5Zm5.5,12.5c0,1.18-2.35,2.5-5.5,2.5-.51,0-1.01-.03-1.5-.1v-1.98c.49.06.99.09,1.5.09,2.19,0,4.14-.54,5.5-1.41v.91ZM2,14.59c1.36.87,3.31,1.41,5.5,1.41s4.14-.54,5.5-1.41v.91c0,1.18-2.35,2.5-5.5,2.5s-5.5-1.32-5.5-2.5v-.91Zm20-6.09c0,1.18-2.35,2.5-5.5,2.5-.53,0-1.06-.04-1.57-.11-.19-.89-.8-1.68-1.71-2.32.98.28,2.09.44,3.27.44,2.19,0,4.14-.54,5.5-1.41v.91Zm-5.5-6.5c3.15,0,5.5,1.32,5.5,2.5s-2.35,2.5-5.5,2.5-5.5-1.32-5.5-2.5,2.35-2.5,5.5-2.5Zm-9,7c3.15,0,5.5,1.32,5.5,2.5s-2.35,2.5-5.5,2.5-5.5-1.32-5.5-2.5,2.35-2.5,5.5-2.5Zm0,13c-3.15,0-5.5-1.32-5.5-2.5v-.91c1.36.87,3.31,1.41,5.5,1.41s4.14-.54,5.5-1.41v.91c0,1.18-2.35,2.5-5.5,2.5Zm9-3c-.51,0-1.01-.03-1.5-.1v-1.98c.49.06.99.09,1.5.09,2.19,0,4.14-.54,5.5-1.41v.91c0,1.18-2.35,2.5-5.5,2.5Z"/></svg>