<?xml version="1.0" encoding="UTF-8"?><svg id="_圖層_1" xmlns="http://www.w3.org/2000/svg" viewBox="0 0 50 50"><defs><style>.cls-1{fill:#005798;}.cls-1,.cls-2,.cls-3{stroke-width:0px;}.cls-2,.cls-3{fill:#4d98d1;}.cls-3{opacity:.1;}</style></defs><circle class="cls-3" cx="25" cy="25" r="25"/><path class="cls-2" d="m14,17.75h2.74c.54,1.99,2.59,3.16,4.57,2.62,1.28-.35,2.27-1.34,2.62-2.62h12.07c.55,0,1-.45,1-1s-.45-1-1-1h-12.07c-.54-1.99-2.59-3.16-4.57-2.62-1.28.35-2.27,1.34-2.62,2.62h-2.74c-.55,0-1,.45-1,1s.45,1,1,1Z"/><path class="cls-1" d="m20.33,15c.97,0,1.75.78,1.75,1.75s-.78,1.75-1.75,1.75-1.75-.78-1.75-1.75c0-.97.78-1.75,1.75-1.75Z"/><path class="cls-2" d="m36,24h-2.74c-.54-1.99-2.59-3.16-4.57-2.62-1.28.35-2.27,1.34-2.62,2.62h-12.07c-.55,0-1,.45-1,1s.45,1,1,1h12.07c.54,1.99,2.59,3.16,4.57,2.62,1.28-.35,2.27-1.34,2.62-2.62h2.74c.55,0,1-.45,1-1s-.45-1-1-1Z"/><path class="cls-1" d="m29.67,26.75c-.97,0-1.75-.78-1.75-1.75s.78-1.75,1.75-1.75,1.75.78,1.75,1.75c0,.97-.78,1.75-1.75,1.75Z"/><path class="cls-2" d="m36,32.25h-12.07c-.54-1.99-2.59-3.16-4.57-2.62-1.28.35-2.27,1.34-2.62,2.62h-2.74c-.55,0-1,.45-1,1s.45,1,1,1h2.74c.54,1.99,2.59,3.16,4.57,2.62,1.28-.35,2.27-1.34,2.62-2.62h12.07c.55,0,1-.45,1-1s-.45-1-1-1Z"/><path class="cls-1" d="m20.33,35c-.97,0-1.75-.78-1.75-1.75s.78-1.75,1.75-1.75,1.75.78,1.75,1.75c0,.97-.78,1.75-1.75,1.75Z"/></svg>