<?xml version="1.0" encoding="UTF-8"?><svg id="_圖層_1" xmlns="http://www.w3.org/2000/svg" viewBox="0 0 24 24"><defs><style>.cls-1{fill:#fff;}</style></defs><path id="file-invoice" class="cls-1" d="m19.95,5.54l-3.49-3.48C15.16.73,13.37,0,11.51,0h-4.52C4.24,0,2,2.24,2,5v14c0,2.76,2.24,5,5,5h10c2.76,0,5-2.24,5-5v-8.52c0-1.86-.73-3.64-2.05-4.95h0Zm-1.41,1.41c.31.31.58.67.81,1.05h-4.34c-.55,0-1-.45-1-1V2.66c.38.22.74.49,1.05.81l3.48,3.48h0Zm1.46,12.05c0,1.66-1.34,3-3,3H7c-1.66,0-3-1.34-3-3V5c0-1.66,1.34-3,3-3h4.51c.16,0,.32,0,.48.02v4.98c0,1.66,1.34,3,3,3h4.98c.01.16.02.32.02.48v8.52Zm-4.5-6h-7c-1.38,0-2.5,1.12-2.5,2.5v2c0,1.38,1.12,2.5,2.5,2.5h7c1.38,0,2.5-1.12,2.5-2.5v-2c0-1.38-1.12-2.5-2.5-2.5Zm.5,4.5c0,.28-.22.5-.5.5h-7c-.28,0-.5-.22-.5-.5v-2c0-.28.22-.5.5-.5h7c.28,0,.5.22.5.5v2Zm-10-7.5c0-.55.45-1,1-1h2c.55,0,1,.45,1,1s-.45,1-1,1h-2c-.55,0-1-.45-1-1Zm0-4c0-.55.45-1,1-1h2c.55,0,1,.45,1,1s-.45,1-1,1h-2c-.55,0-1-.45-1-1Z"/></svg>