<svg xmlns="http://www.w3.org/2000/svg" width="20" height="24" viewBox="0 0 20 24">
  <g id="icon-del" transform="translate(-42.667)">
    <path id="Path_43" data-name="Path 43" d="M61.667,4h-3.1a5.009,5.009,0,0,0-4.9-4h-2a5.009,5.009,0,0,0-4.9,4h-3.1a1,1,0,0,0,0,2h1V19a5.006,5.006,0,0,0,5,5h6a5.006,5.006,0,0,0,5-5V6h1a1,1,0,0,0,0-2Zm-10,13a1,1,0,0,1-2,0V11a1,1,0,1,1,2,0v6Zm4,0a1,1,0,0,1-2,0V11a1,1,0,1,1,2,0ZM48.838,4a3.006,3.006,0,0,1,2.829-2h2A3.006,3.006,0,0,1,56.5,4Z" transform="translate(0)" fill="#e86a6a"/>
  </g>
</svg>
