<?xml version="1.0" encoding="UTF-8"?>
<svg id="_圖層_1" data-name="圖層 1" xmlns="http://www.w3.org/2000/svg" viewBox="0 0 50 50">
  <defs>
    <style>
      .cls-1 {
        fill: #005798;
      }

      .cls-1, .cls-2, .cls-3 {
        stroke-width: 0px;
      }

      .cls-2, .cls-3 {
        fill: #4d98d1;
      }

      .cls-3 {
        opacity: .1;
      }
    </style>
  </defs>
  <circle class="cls-3" cx="24.99" cy="25" r="25"/>
  <g>
    <path class="cls-2" d="M30.31,12.23h-10.65c-2.94,0-5.32,2.38-5.32,5.32v14.9c0,2.94,2.38,5.32,5.32,5.32h10.65c2.94,0,5.32-2.38,5.32-5.32v-14.9c0-2.94-2.38-5.32-5.32-5.32ZM19.67,14.35h10.65c1.76,0,3.19,1.43,3.19,3.19v6.39h-17.03v-6.39c0-1.76,1.43-3.19,3.19-3.19ZM30.31,35.65h-10.65c-1.76,0-3.19-1.43-3.19-3.19v-6.39h17.03v6.39c0,1.76-1.43,3.19-3.19,3.19Z"/>
    <path class="cls-1" d="M23.92,19.68h2.13c.59,0,1.06-.48,1.06-1.06s-.48-1.06-1.06-1.06h-2.13c-.59,0-1.06.48-1.06,1.06s.48,1.06,1.06,1.06Z"/>
    <path class="cls-1" d="M26.05,30.32h-2.13c-.59,0-1.06.48-1.06,1.06s.48,1.06,1.06,1.06h2.13c.59,0,1.06-.48,1.06-1.06s-.48-1.06-1.06-1.06Z"/>
  </g>
</svg>