<?xml version="1.0" encoding="UTF-8"?><svg id="_圖層_1" xmlns="http://www.w3.org/2000/svg" viewBox="0 0 50 50"><defs><style>.cls-1,.cls-2,.cls-3,.cls-4,.cls-5{stroke-width:1.5px;}.cls-1,.cls-2,.cls-5{stroke-miterlimit:10;}.cls-1,.cls-3,.cls-5{stroke:#005798;}.cls-1,.cls-6{fill:#4d98d1;}.cls-2,.cls-3,.cls-4,.cls-5{fill:none;}.cls-2,.cls-4{stroke:#4d98d1;stroke-linecap:round;}.cls-3,.cls-4{stroke-linejoin:round;}.cls-6{opacity:.1;}</style></defs><circle class="cls-6" cx="24.99" cy="25" r="25"/><polyline class="cls-4" points="27.1 39 14.99 39 14.99 14 34.99 14 34.99 30.53"/><rect class="cls-3" x="19.99" y="14" width="10" height="4"/><path class="cls-5" d="m24.99,11c-1.66,0-3,1.34-3,3h6c0-1.66-1.34-3-3-3Z"/><circle class="cls-5" cx="25" cy="24.81" r="2.46"/><path class="cls-1" d="m25,28.09c-2.04,0-3.69,1.65-3.69,3.69,0,.23.18.41.41.41h6.56c.23,0,.41-.18.41-.41,0-2.04-1.65-3.69-3.69-3.69Z"/><line class="cls-2" x1="29.99" y1="36.5" x2="34.99" y2="36.5"/><line class="cls-2" x1="32.49" y1="34" x2="32.49" y2="39"/></svg>