<?xml version="1.0" encoding="UTF-8"?><svg id="_圖層_1" xmlns="http://www.w3.org/2000/svg" viewBox="0 0 50 50"><defs><style>.cls-1{fill:#005798;}.cls-2{opacity:.1;}.cls-2,.cls-3{fill:#4d98d1;}</style></defs><circle class="cls-2" cx="24.99" cy="25" r="25"/><path class="cls-3" d="m32.99,13h-16c-2.21,0-4,1.79-4,4v12c0,2.21,1.79,4,4,4h2.9l4.45,3.76c.37.32.92.32,1.29,0l4.46-3.76h2.9c2.21,0,4-1.79,4-4v-12c0-2.21-1.79-4-4-4Zm2,16c0,1.1-.9,2-2,2h-2.9c-.47,0-.93.17-1.29.47l-3.81,3.22-3.81-3.22h0c-.36-.31-.82-.47-1.29-.47h-2.9c-1.1,0-2-.9-2-2v-12c0-1.1.9-2,2-2h16c1.1,0,2,.9,2,2v12Z"/><path class="cls-1" d="m19.99,20h5c.55,0,1-.45,1-1s-.45-1-1-1h-5c-.55,0-1,.45-1,1s.45,1,1,1Z"/><path class="cls-1" d="m29.99,22h-10c-.55,0-1,.45-1,1s.45,1,1,1h10c.55,0,1-.45,1-1s-.45-1-1-1Z"/><path class="cls-1" d="m29.99,26h-10c-.55,0-1,.45-1,1s.45,1,1,1h10c.55,0,1-.45,1-1s-.45-1-1-1Z"/></svg>