<?xml version="1.0" encoding="UTF-8"?><svg id="_圖層_1" xmlns="http://www.w3.org/2000/svg" viewBox="0 0 24 24"><defs><style>.cls-1{fill:#4d98d1;}</style></defs><g id="email"><g id="Group_147"><g id="Group_146"><path id="Path_154" class="cls-1" d="m18.23,7.93c-.18-.19-.47-.2-.66-.02-.19.18-.2.47-.02.66,0,0,.01.01.02.02h0c.18.18.48.18.66,0,0,0,0,0,0,0,.18-.18.18-.48,0-.66Z"/></g></g><g id="Group_149"><g id="Group_148"><path id="Path_155" class="cls-1" d="m23.86,13.57l-4.35-4.35c-.19-.18-.49-.17-.66.02-.17.18-.17.46,0,.64l3.46,3.46h-8.24c-.68,0-1.24-.56-1.24-1.24V3.85l3.34,3.34c.19.18.49.17.66-.02.17-.18.17-.46,0-.64l-4.23-4.23c-.18-.18-.48-.18-.66,0l-7.47,7.47c-.18.18-.18.48,0,.66l11.28,11.28c.18.18.48.18.66,0l7.47-7.47c.18-.18.18-.48,0-.66h0ZM11.88,3.66v5.97h-5.97l5.97-5.97Zm3.71,16.58L5.91,10.57h5.97v1.53c0,1.2.98,2.18,2.18,2.18h1.53v5.97Zm.94,0v-5.97h5.97l-5.97,5.97Z"/></g></g><g id="Group_151"><g id="Group_150"><path id="Path_156" class="cls-1" d="m3.22,11.91H.47c-.26,0-.47.21-.47.47s.21.47.47.47h2.75c.26-.01.46-.23.45-.49-.01-.24-.2-.44-.45-.45h0Z"/></g></g><g id="Group_153"><g id="Group_152"><path id="Path_157" class="cls-1" d="m4.61,11.91h0c-.26,0-.47.21-.47.47s.21.47.47.47h0c.26-.01.46-.23.45-.49-.01-.24-.2-.44-.45-.45h0Z"/></g></g><g id="Group_155"><g id="Group_154"><path id="Path_158" class="cls-1" d="m1.97,6.98H.47C.21,6.98,0,7.19,0,7.45s.21.47.47.47h1.5c.26-.01.46-.23.45-.49-.01-.24-.2-.44-.45-.45h0Z"/></g></g><g id="Group_157"><g id="Group_156"><path id="Path_159" class="cls-1" d="m5.27,6.98h-1.77c-.26,0-.47.21-.47.47s.21.47.47.47h1.77c.26-.01.46-.23.45-.49-.01-.24-.2-.44-.45-.45h0Z"/></g></g><g id="Group_159"><g id="Group_158"><path id="Path_160" class="cls-1" d="m6.29,14.49h-2.62c-.26,0-.47.21-.47.47,0,.26.21.47.47.47h2.62c.26-.01.46-.23.45-.49-.01-.24-.2-.44-.45-.45h0Z"/></g></g><g id="Group_161"><g id="Group_160"><path id="Path_161" class="cls-1" d="m8.34,17.49H1.73c-.26,0-.47.21-.47.47,0,.26.21.47.47.47h6.61c.26-.01.46-.23.45-.49-.01-.24-.2-.44-.45-.45h0Z"/></g></g></g></svg>