<?xml version="1.0" encoding="UTF-8"?><svg id="_圖層_1" xmlns="http://www.w3.org/2000/svg" xmlns:xlink="http://www.w3.org/1999/xlink" viewBox="0 0 50 50"><defs><style>.cls-1{clip-path:url(#clippath);}.cls-2{fill:#00c300;}.cls-3{fill:none;}.cls-4{fill:#4d98d1;opacity:.1;}</style><clipPath id="clippath"><rect class="cls-3" x="12.99" y="13" width="24" height="24"/></clipPath></defs><circle class="cls-4" cx="24.99" cy="25" r="25"/><g id="g1670"><g class="cls-1"><g id="g1672"><g id="g1678"><g id="path1680"><path d="m18.31,26.14c-.22,0-.43-.11-.43-.31v-4.9c0-.21.24-.3.49-.3s.49.09.49.3v4.35h1.84c.2,0,.29.21.29.43s-.1.43-.29.43h-2.39Z"/></g></g><g id="g1682"><g id="path1684"><path class="cls-2" d="m20.7,26.36h-2.39c-.37,0-.64-.22-.64-.52v-4.9c0-.31.28-.51.7-.51s.7.21.7.51v4.13h1.63c.3,0,.5.26.5.64s-.21.64-.5.64Z"/><path class="cls-2" d="m18.37,20.85c-.16,0-.28.05-.28.09v4.9c0,.06.11.1.22.1h2.39s.08-.09.08-.22-.04-.22-.08-.22h-2.05v-4.56s-.11-.09-.28-.09Z"/></g></g><g id="g1686"><g id="path1688"><path d="m21.76,20.94c0-.21.24-.3.49-.3s.49.09.49.3v4.9c0,.2-.25.31-.49.31s-.49-.11-.49-.31v-4.9Z"/></g></g><g id="g1690"><g id="path1692"><path class="cls-2" d="m22.25,26.35c-.41,0-.7-.21-.7-.52v-4.9c0-.31.28-.51.7-.51s.7.21.7.51v4.9c0,.3-.29.52-.7.52Z"/><path class="cls-2" d="m22.25,20.85c-.16,0-.28.05-.28.09v4.9s.11.1.28.1c.16,0,.28-.06.28-.1v-4.9s-.11-.09-.28-.09Z"/></g></g><g id="g1694"><g id="path1696"><path d="m26.48,25.84l-1.62-3.03v3.03c0,.2-.25.31-.49.31s-.49-.11-.49-.31v-4.89c0-.21.24-.31.49-.31.35,0,.5.08.73.52l1.45,2.81v-3.03c0-.21.24-.3.49-.3s.49.09.49.3v4.9c0,.2-.25.31-.49.31s-.44-.08-.56-.31"/></g></g><g id="g1698"><g id="path1700"><path class="cls-2" d="m27.04,26.36c-.35,0-.6-.14-.75-.42h0s-1.22-2.29-1.22-2.29v2.19c0,.3-.29.52-.7.52s-.7-.21-.7-.52v-4.89c0-.31.28-.52.7-.52.45,0,.66.14.92.63l1.06,2.04v-2.16c0-.31.28-.51.7-.51s.7.21.7.51v4.9c0,.3-.29.52-.7.52Z"/><path class="cls-2" d="m26.67,25.73c.08.14.19.2.38.2.16,0,.28-.06.28-.1v-4.9s-.11-.09-.28-.09-.28.05-.28.09v3.89l-1.85-3.58c-.2-.39-.28-.41-.54-.41-.16,0-.28.05-.28.1v4.89s.11.1.28.1c.16,0,.28-.06.28-.1v-3.87l2.02,3.77Z"/></g></g><g id="g1702"><g id="path1704"><path d="m29.65,23h1.14c.2,0,.31.19.31.39,0,.17-.1.38-.31.38h-1.14v1.51h2.13c.2,0,.31.2.31.44,0,.2-.1.42-.31.42h-2.68c-.22,0-.43-.11-.43-.31v-4.89c0-.2.21-.31.43-.31h2.68c.21,0,.31.22.31.42,0,.23-.11.44-.31.44h-2.13v1.51Z"/></g></g><g id="g1706"><g id="path1708"><path class="cls-2" d="m31.78,26.36h-2.68c-.37,0-.64-.22-.64-.52v-4.89c0-.3.27-.52.64-.52h2.68c.3,0,.52.27.52.63s-.22.65-.52.65h-1.92v1.08h.93c.3,0,.52.26.52.6,0,.28-.18.59-.52.59h-.93v1.09h1.92c.3,0,.52.27.52.65s-.22.63-.52.63Z"/><path class="cls-2" d="m29.1,20.85c-.11,0-.22.04-.22.1v4.89c0,.06.11.1.22.1h2.68c.07,0,.1-.13.1-.21,0-.12-.05-.23-.1-.23h-2.34v-1.94h1.36c.08,0,.1-.13.1-.17,0-.08-.03-.18-.1-.18h-1.36v-1.93h2.34c.05,0,.1-.11.1-.23,0-.09-.03-.21-.1-.21h-2.68Z"/></g></g><path id="g1710" class="cls-2" d="m23.96,36.48c-.39,0-.7-.31-.7-.7v-2.62c-2.7-.32-5.18-1.39-7.06-3.04-2.07-1.83-3.21-4.22-3.21-6.73,0-1.35.33-2.66.97-3.89.61-1.18,1.49-2.23,2.6-3.14,2.26-1.83,5.25-2.84,8.43-2.84s6.17,1.01,8.43,2.84c1.11.9,1.99,1.96,2.6,3.14.64,1.23.97,2.54.97,3.89,0,1.81-.6,3.61-1.78,5.37-.96,1.43-2.29,2.8-3.95,4.08-2.78,2.14-6.07,3.63-7.29,3.63Zm1.03-21.56c-5.84,0-10.59,3.8-10.59,8.47,0,4.33,4.22,8.03,9.62,8.43.37.03.65.33.65.7v2.4c.4-.13.97-.34,1.7-.7,1.36-.65,2.79-1.54,4.02-2.49,2.37-1.82,5.19-4.75,5.19-8.34,0-4.67-4.75-8.47-10.59-8.47Z"/></g></g></g></svg>