<?xml version="1.0" encoding="UTF-8"?><svg id="_圖層_1" xmlns="http://www.w3.org/2000/svg" viewBox="0 0 24 24"><defs><style>.cls-1{fill:#fff;}</style></defs><g id="user"><path id="Path_61" class="cls-1" d="m12,12c3.31,0,6-2.69,6-6S15.31,0,12,0s-6,2.69-6,6,2.69,6,6,6Zm0-10c2.21,0,4,1.79,4,4s-1.79,4-4,4-4-1.79-4-4,1.79-4,4-4Z"/><path id="Path_62" class="cls-1" d="m12,14c-4.97,0-8.99,4.03-9,9,0,.55.45,1,1,1s1-.45,1-1c0-3.87,3.13-7,7-7s7,3.13,7,7c0,.55.45,1,1,1s1-.45,1-1c0-4.97-4.03-8.99-9-9Z"/></g></svg>