<?xml version="1.0" encoding="UTF-8"?><svg id="_圖層_1" xmlns="http://www.w3.org/2000/svg" viewBox="0 0 50 50"><defs><style>.cls-1,.cls-2,.cls-3,.cls-4{stroke-width:1.5px;}.cls-1,.cls-2,.cls-4{stroke:#005798;}.cls-1,.cls-5{fill:#4d98d1;}.cls-1,.cls-4{stroke-miterlimit:10;}.cls-2,.cls-3{stroke-linejoin:round;}.cls-2,.cls-3,.cls-4{fill:none;}.cls-3{stroke:#4d98d1;}.cls-5{opacity:.1;}</style></defs><circle class="cls-5" cx="24.99" cy="25" r="25"/><rect class="cls-3" x="15" y="14" width="20" height="25"/><rect class="cls-2" x="19.99" y="14" width="10" height="4"/><path class="cls-4" d="m24.99,11c-1.66,0-3,1.34-3,3h6c0-1.66-1.34-3-3-3Z"/><path class="cls-1" d="m28.78,24.24c-.62-.07-1.23-.2-1.81-.41-.54-.19-1.05-.44-1.54-.74-.26-.16-.58-.16-.84,0-.49.3-1,.55-1.54.74-.59.21-1.2.34-1.81.41-.41.04-.72.39-.72.8v2.4c0,1.8.98,3.46,2.55,4.34l1.56.86c.12.07.26.1.39.1.14,0,.27-.04.39-.1l1.56-.86c1.57-.88,2.55-2.54,2.55-4.34v-2.4c0-.41-.31-.76-.72-.8Z"/></svg>