<?xml version="1.0" encoding="UTF-8"?><svg id="_圖層_1" xmlns="http://www.w3.org/2000/svg" viewBox="0 0 50 50"><defs><style>.cls-1{fill:none;stroke:#4d98d1;stroke-miterlimit:10;stroke-width:1.5px;}.cls-2{fill:#005798;}.cls-3{fill:#4d98d1;opacity:.1;}</style></defs><circle class="cls-3" cx="25" cy="25" r="25"/><rect class="cls-1" x="15" y="15" width="20" height="20" rx="1" ry="1"/><line class="cls-1" x1="25" y1="15" x2="25" y2="35"/><path class="cls-2" d="m21.1,28.11c-.36,0-.6-.24-.6-.6v-1.8h-1.8v1.8c0,.36-.24.6-.6.6s-.6-.24-.6-.6v-3.3c0-.54.24-1.08.6-1.5.78-.78,2.22-.78,3,0,.42.42.6.9.6,1.5v3.3c0,.36-.24.6-.6.6Zm-2.4-3.6h1.8v-.3c0-.24-.12-.48-.24-.66-.36-.3-.96-.3-1.32,0-.12.18-.24.42-.24.66v.3Z"/><path class="cls-2" d="m30.7,28.11h-1.8c-.36,0-.6-.24-.6-.6v-4.8c0-.36.24-.6.6-.6h1.8c.48,0,.96.18,1.26.54.36.3.54.78.54,1.26,0,.42-.18.84-.48,1.2.3.36.48.78.48,1.2,0,.48-.18.96-.54,1.26s-.78.54-1.26.54Zm-1.2-1.2h1.2c.18,0,.3-.06.42-.18s.18-.24.18-.42-.06-.3-.18-.42-.24-.18-.42-.18h-1.2v1.2Zm1.2-2.4c.18,0,.3-.06.42-.18s.18-.24.18-.42-.06-.3-.18-.42-.24-.18-.42-.18h-1.2v1.2h1.2Z"/></svg>