<?xml version="1.0" encoding="UTF-8"?><svg id="_圖層_1" xmlns="http://www.w3.org/2000/svg" viewBox="0 0 24 24"><defs><style>.cls-1{fill:#005798;stroke-width:0px;}</style></defs><path class="cls-1" d="m18.7,2.23h-1.4v-.28c0-1.08-.88-1.95-1.95-1.95h-6.7c-1.08,0-1.95.88-1.95,1.95v.28h-1.4c-1.69,0-3.07,1.38-3.07,3.07v15.63c0,1.69,1.38,3.07,3.07,3.07h13.4c1.69,0,3.07-1.38,3.07-3.07V5.3c0-1.69-1.38-3.07-3.07-3.07Zm-10.33-.28c0-.15.13-.28.28-.28h6.7c.15,0,.28.13.28.28v2.23c0,.15-.13.28-.28.28h-6.7c-.15,0-.28-.13-.28-.28V1.95Zm11.72,18.98c0,.77-.63,1.4-1.4,1.4H5.3c-.77,0-1.4-.63-1.4-1.4V5.3c0-.77.63-1.4,1.4-1.4h1.4v.28c0,1.08.88,1.95,1.95,1.95h6.7c1.08,0,1.95-.88,1.95-1.95v-.28h1.4c.77,0,1.4.63,1.4,1.4v15.63Z"/><path class="cls-1" d="m16.47,13.4H7.53c-.46,0-.84.37-.84.84s.37.84.84.84h8.93c.46,0,.84-.37.84-.84s-.37-.84-.84-.84Z"/><path class="cls-1" d="m16.47,8.93H7.53c-.46,0-.84.37-.84.84s.37.84.84.84h8.93c.46,0,.84-.37.84-.84s-.37-.84-.84-.84Z"/><path class="cls-1" d="m16.47,17.86H7.53c-.46,0-.84.37-.84.84s.37.84.84.84h8.93c.46,0,.84-.37.84-.84s-.37-.84-.84-.84Z"/></svg>