<?xml version="1.0" encoding="UTF-8"?><svg id="_圖層_1" xmlns="http://www.w3.org/2000/svg" viewBox="0 0 40 40"><defs><style>.cls-1{fill:#aea8e6;}</style></defs><path class="cls-1" d="m19.23,33.18c-4.43,0-8.47-2.26-10.79-6.04-.33-.54-.16-1.25.38-1.58.54-.33,1.25-.16,1.58.38,1.9,3.1,5.2,4.95,8.83,4.95,5.71,0,10.35-4.64,10.35-10.35s-4.64-10.35-10.35-10.35c-3.63,0-6.93,1.85-8.83,4.95-.33.54-1.04.71-1.58.38-.54-.33-.71-1.04-.38-1.58,2.32-3.79,6.36-6.04,10.79-6.04,6.98,0,12.65,5.67,12.65,12.65s-5.67,12.65-12.65,12.65Z"/><path class="cls-1" d="m20.23,21.68H7.23c-.63,0-1.15-.52-1.15-1.15s.52-1.15,1.15-1.15h10.22l-1.04-1.04c-.45-.45-.45-1.18,0-1.63s1.18-.45,1.63,0l3,3c.33.33.43.82.25,1.25s-.6.71-1.06.71Z"/></svg>