<?xml version="1.0" encoding="utf-8"?>
<!-- Generator: Adobe Illustrator 28.0.0, SVG Export Plug-In . SVG Version: 6.00 Build 0)  -->
<svg version="1.1" id="_圖層_1" xmlns="http://www.w3.org/2000/svg" xmlns:xlink="http://www.w3.org/1999/xlink" x="0px" y="0px"
	 viewBox="0 0 24 24" style="enable-background:new 0 0 24 24;" xml:space="preserve">
<style type="text/css">
	.st0{opacity:0.1;fill:#005798;enable-background:new    ;}
	.st1{fill:#005798;}
</style>
<g id="Group_15">
	<circle id="Ellipse_19" class="st0" cx="12" cy="12" r="12"/>
	<path id="arrow-small-left" class="st1" d="M13,18V8l3.3,3.3c0.4,0.4,1,0.4,1.4,0c0.4-0.4,0.4-1,0-1.4l-4.3-4.3C13,5.2,12.5,5,12,5
		l0,0c-0.5,0-1,0.2-1.4,0.6L6.3,9.9c-0.4,0.4-0.4,1,0,1.4c0.4,0.4,1,0.4,1.4,0l0,0L11,8v10c0,0.5,0.4,1,1,1S13,18.5,13,18L13,18z"/>
</g>
</svg>
