<?xml version="1.0" encoding="UTF-8"?><svg id="_圖層_1" xmlns="http://www.w3.org/2000/svg" viewBox="0 0 24 24"><defs><style>.cls-1{fill:#fff;}</style></defs><path class="cls-1" d="m17,14c0,.55-.45,1-1,1h-8c-.55,0-1-.45-1-1s.45-1,1-1h8c.55,0,1,.45,1,1Zm-4,3h-5c-.55,0-1,.45-1,1s.45,1,1,1h5c.55,0,1-.45,1-1s-.45-1-1-1Zm9-6.51v8.51c0,2.76-2.24,5-5,5H7c-2.76,0-5-2.24-5-5V5C2,2.24,4.24,0,7,0h4.51c1.86,0,3.64.73,4.95,2.05l3.48,3.49c1.32,1.31,2.06,3.09,2.05,4.95Zm-6.95-7.02c-.31-.3-.67-.57-1.05-.78v4.32c0,.55.45,1,1,1h4.32c-.21-.38-.48-.74-.78-1.05l-3.48-3.49Zm4.95,7.02c0-.16-.03-.32-.05-.48h-4.95c-1.66,0-3-1.34-3-3V2.05c-.16-.02-.32-.05-.48-.05h-4.51c-1.66,0-3,1.34-3,3v14c0,1.66,1.34,3,3,3h10c1.66,0,3-1.34,3-3v-8.51Z"/></svg>