<?xml version="1.0" encoding="utf-8"?>
<!-- Generator: Adobe Illustrator 28.0.0, SVG Export Plug-In . SVG Version: 6.00 Build 0)  -->
<svg version="1.1" id="_圖層_1" xmlns="http://www.w3.org/2000/svg" xmlns:xlink="http://www.w3.org/1999/xlink" x="0px" y="0px"
	 viewBox="0 0 24 24" style="enable-background:new 0 0 24 24;" xml:space="preserve">
<style type="text/css">
	.st0{opacity:0.1;fill:#005798;enable-background:new    ;}
	.st1{fill:#005798;}
</style>
<g id="Group_15">
	<circle id="Ellipse_19" class="st0" cx="12" cy="12" r="12"/>
	<path id="arrow-small-left" class="st1" d="M11,6v10l-3.3-3.3c-0.4-0.4-1-0.4-1.4,0s-0.4,1,0,1.4l4.3,4.3C11,18.8,11.5,19,12,19
		l0,0c0.5,0,1-0.2,1.4-0.6l4.3-4.3c0.4-0.4,0.4-1,0-1.4c-0.4-0.4-1-0.4-1.4,0l0,0L13,16V6c0-0.6-0.4-1-1-1S11,5.4,11,6L11,6z"/>
</g>
</svg>
