<?xml version="1.0" encoding="UTF-8"?><svg id="_圖層_1" xmlns="http://www.w3.org/2000/svg" viewBox="0 0 50 50"><defs><style>.cls-1{stroke:#4d98d1;}.cls-1,.cls-2,.cls-3{fill:none;stroke-miterlimit:10;stroke-width:1.5px;}.cls-2{stroke-linecap:round;}.cls-2,.cls-3{stroke:#005798;}.cls-4{opacity:.1;}.cls-4,.cls-5{fill:#4d98d1;}</style></defs><circle class="cls-4" cx="25" cy="25" r="25"/><circle class="cls-1" cx="31.79" cy="24.27" r="4.59"/><line class="cls-2" x1="19.38" y1="16" x2="25.38" y2="16"/><circle class="cls-3" cx="31.79" cy="24.27" r="4.59"/><path class="cls-5" d="m32.62,30.48v5.02c0,.41-.34.75-.75.75H15.88c-.41,0-.75-.34-.75-.75v-12c0-.41.34-.75.75-.75h6.05c.11,0,.2.07.24.17l.41,1.17c.32.9,1.17,1.5,2.12,1.5h.97c-.11-.49-.15-1-.14-1.5h-.83c-.08,0-.16-.01-.23-.04-.15-.05-.27-.14-.37-.26-.05-.06-.08-.13-.11-.2l-.41-1.17c-.25-.7-.91-1.17-1.65-1.17h-4.8v-6.75c0-.41.34-.75.75-.75h12c.41,0,.75.34.75.75v3.61c.49-.09,1-.12,1.5-.09v-3.52c0-1.24-1.01-2.25-2.25-2.25h-12c-1.24,0-2.25,1.01-2.25,2.25v6.78c-1.12.13-2,1.07-2,2.22v12c0,1.24,1.01,2.25,2.25,2.25h16c1.24,0,2.25-1.01,2.25-2.25v-5.41c-.48.19-.99.32-1.5.39Z"/><line class="cls-2" x1="28.54" y1="27.51" x2="24.38" y2="31.68"/></svg>