<?xml version="1.0" encoding="UTF-8"?><svg id="_圖層_1" xmlns="http://www.w3.org/2000/svg" viewBox="0 0 24 24"><defs><style>.cls-1{isolation:isolate;opacity:.1;}.cls-1,.cls-2{fill:#005798;}</style></defs><g id="Group_15"><circle id="Ellipse_19" class="cls-1" cx="12" cy="12" r="12"/><path id="arrow-small-left" class="cls-2" d="m18,11h-10l3.29-3.29c.39-.39.39-1.02,0-1.41s-1.02-.39-1.41,0l-4.29,4.3c-.38.37-.59.88-.59,1.41h0c0,.53.22,1.03.59,1.4l4.29,4.3c.39.39,1.03.39,1.41,0,.39-.39.39-1.03,0-1.41h0l-3.29-3.28h10c.55,0,1-.45,1-1s-.45-1-1-1Z"/></g></svg>