<?xml version="1.0" encoding="UTF-8"?><svg id="_圖層_1" xmlns="http://www.w3.org/2000/svg" viewBox="0 0 24 24"><defs><style>.cls-1{fill:#005798;}</style></defs><path class="cls-1" d="m17,24H7c-2.76,0-5-2.24-5-5V5C2,2.24,4.24,0,7,0h10c2.76,0,5,2.24,5,5v14c0,2.76-2.24,5-5,5ZM7,2c-1.65,0-3,1.35-3,3v14c0,1.65,1.35,3,3,3h10c1.65,0,3-1.35,3-3V5c0-1.65-1.35-3-3-3H7Zm11,4c0-.55-.45-1-1-1h-4c-.55,0-1,.45-1,1s.45,1,1,1h4c.55,0,1-.45,1-1Zm0,6c0-.55-.45-1-1-1h-4c-.55,0-1,.45-1,1s.45,1,1,1h4c.55,0,1-.45,1-1Zm0,6c0-.55-.45-1-1-1h-4c-.55,0-1,.45-1,1s.45,1,1,1h4c.55,0,1-.45,1-1ZM10,7v-2c0-.55-.45-1-1-1h-2c-.55,0-1,.45-1,1v2c0,.55.45,1,1,1h2c.55,0,1-.45,1-1Zm0,6v-2c0-.55-.45-1-1-1h-2c-.55,0-1,.45-1,1v2c0,.55.45,1,1,1h2c.55,0,1-.45,1-1Zm0,6v-2c0-.55-.45-1-1-1h-2c-.55,0-1,.45-1,1v2c0,.55.45,1,1,1h2c.55,0,1-.45,1-1Z"/></svg>