<?xml version="1.0" encoding="UTF-8"?><svg id="_圖層_1" xmlns="http://www.w3.org/2000/svg" viewBox="0 0 24 24"><defs><style>.cls-1{fill:#5d5d5d;}</style></defs><path class="cls-1" d="m15,23.13h-6c-2.76,0-5-2.08-5-4.64V5.51C4,2.95,6.24.87,9,.87h6c2.76,0,5,2.08,5,4.64v12.98c0,2.56-2.24,4.64-5,4.64ZM9,2.73c-1.65,0-3,1.25-3,2.78v12.98c0,1.53,1.35,2.78,3,2.78h6c1.65,0,3-1.25,3-2.78V5.51c0-1.53-1.35-2.78-3-2.78h-6Zm5,15.77h0c0-.51-.45-.93-1-.93h-2c-.55,0-1,.42-1,.93h0c0,.51.45.93,1,.93h2c.55,0,1-.42,1-.93Z"/></svg>