<svg xmlns="http://www.w3.org/2000/svg" width="18" height="18" viewBox="0 0 18 18">
  <path id="icon-out-link" d="M15,8.25v6A3.754,3.754,0,0,1,11.25,18H3.75A3.754,3.754,0,0,1,0,14.25V6.75A3.754,3.754,0,0,1,3.75,3h6a.75.75,0,0,1,0,1.5h-6A2.253,2.253,0,0,0,1.5,6.75v7.5A2.253,2.253,0,0,0,3.75,16.5h7.5a2.253,2.253,0,0,0,2.25-2.25v-6a.75.75,0,0,1,1.5,0ZM15.75,0H10.5a.75.75,0,0,0,0,1.5h4.94L6.22,10.72a.75.75,0,1,0,1.06,1.06l9.22-9.22V7.5a.75.75,0,0,0,1.5,0V2.25A2.253,2.253,0,0,0,15.75,0Z" fill="#005798"/>
</svg>
