<?xml version="1.0" encoding="UTF-8"?><svg id="_圖層_1" xmlns="http://www.w3.org/2000/svg" viewBox="0 0 60 60"><defs><style>.cls-1{fill:#fde9ab;}.cls-1,.cls-2,.cls-3,.cls-4,.cls-5,.cls-6{stroke-width:0px;}.cls-2{fill:#0686d8;}.cls-3{fill:#fff;}.cls-4{fill:#e86a6a;}.cls-5{fill:#fcc557;}.cls-6{fill:#414042;}</style></defs><polygon class="cls-4" points="47.32 16.66 40.65 10.69 40.65 2.87 47.32 2.87 47.32 16.66"/><path class="cls-6" d="m48.35,13.68h-2.06V3.9h-4.61v3.81h-2.06V3.62c0-.98.8-1.78,1.78-1.78h5.16c.98,0,1.78.8,1.78,1.78v10.06Z"/><path class="cls-3" d="m50.57,57.13H8.76c-1.1,0-2-.89-2-2V22.43L30.2,2.87l22.36,17.96v34.31c0,1.1-.89,2-2,2Z"/><path class="cls-6" d="m51.03,58.16H8.3c-1.42,0-2.57-1.15-2.57-2.57v-30.18h2.06v30.18c0,.28.23.5.51.5h42.73c.28,0,.51-.23.51-.5v-30.18h2.06v30.18c0,1.41-1.15,2.57-2.57,2.57Z"/><path class="cls-6" d="m1.28,27.09l-1.28-1.62L29.05,2.46c.68-.54,1.63-.53,2.3,0l28.65,23-1.29,1.61L30.19,4.19,1.28,27.09Z"/><rect class="cls-2" x="34.26" y="48.22" width="1.93" height="2.78" transform="translate(-14.71 84.38) rotate(-89.48)"/><rect class="cls-2" x="36.1" y="41.6" width="1.93" height="2.78" transform="translate(-18.81 53.01) rotate(-59.4)"/><rect class="cls-2" x="41.01" y="36.79" width="1.93" height="2.78" transform="translate(-13.33 25.48) rotate(-29.35)"/><path class="cls-1" d="m29.69,20.93c-8.59.17-15.41,7.27-15.24,15.86.17,8.59,7.27,15.41,15.86,15.24,8.59-.17,15.41-7.27,15.24-15.86-.17-8.59-7.27-15.41-15.86-15.24Z"/><path class="cls-5" d="m29.78,25.44c-6.1.12-10.94,5.16-10.82,11.26.12,6.1,5.16,10.94,11.26,10.82,6.1-.12,10.94-5.16,10.82-11.26-.12-6.1-5.16-10.94-11.26-10.82Z"/><path class="cls-6" d="m30,53c-8.96,0-16.33-7.19-16.51-16.19-.05-2.63.5-5.16,1.64-7.51l1.74.84c-1,2.08-1.49,4.31-1.44,6.63.16,8.04,6.84,14.5,14.88,14.3,3.9-.08,7.53-1.67,10.23-4.48,2.7-2.81,4.14-6.5,4.07-10.4-.16-8.04-6.85-14.49-14.88-14.3-1.93.04-3.8.45-5.55,1.22l-.77-1.77c1.99-.87,4.1-1.33,6.29-1.38,9.05-.18,16.66,7.08,16.85,16.19.09,4.41-1.55,8.59-4.6,11.78-3.06,3.18-7.17,4.98-11.58,5.07-.11,0-.22,0-.33,0Z"/><path class="cls-6" d="m17.69,28.65l-1.63-1.04c.54-.85,1.17-1.66,1.86-2.4l1.41,1.32c-.61.65-1.16,1.36-1.64,2.12Z"/><path class="cls-6" d="m20.38,25.51l-1.27-1.45c.9-.79,1.9-1.49,2.95-2.07l.93,1.69c-.93.51-1.81,1.13-2.61,1.83Z"/><path class="cls-6" d="m31.7,43.34h-7.93v-1.93h7.93c1.09,0,1.98-.89,1.98-1.98s-.89-1.98-1.98-1.98h-3.17c-2.16,0-3.91-1.75-3.91-3.91s1.75-3.91,3.91-3.91h7.7v1.93h-7.7c-1.09,0-1.98.89-1.98,1.98s.89,1.98,1.98,1.98h3.17c2.16,0,3.91,1.75,3.91,3.91s-1.75,3.91-3.91,3.91Z"/><rect class="cls-6" x="29.04" y="25.72" width="1.93" height="21.52"/></svg>