<?xml version="1.0" encoding="UTF-8"?><svg id="_圖層_1" xmlns="http://www.w3.org/2000/svg" viewBox="0 0 24 24"><defs><style>.cls-1{fill:#fff;}</style></defs><path id="usd-circle" class="cls-1" d="m12,0C5.37,0,0,5.37,0,12s5.37,12,12,12,12-5.37,12-12C23.99,5.38,18.62,0,12,0Zm0,22c-5.52,0-10-4.48-10-10S6.48,2,12,2s10,4.48,10,10c0,5.52-4.48,9.99-10,10Zm4-8c0,1.66-1.34,3-3,3v1c0,.55-.45,1-1,1s-1-.45-1-1v-1h-.27c-1.07,0-2.06-.57-2.6-1.5-.26-.49-.07-1.09.42-1.35.46-.24,1.03-.09,1.31.35.18.31.51.5.87.5h2.27c.55,0,1-.45,1-1,0-.38-.27-.7-.64-.76l-3.04-.51c-1.34-.22-2.32-1.38-2.32-2.73,0-1.66,1.34-3,3-3v-1c0-.55.45-1,1-1s1,.45,1,1v1h.27c1.07,0,2.06.57,2.6,1.5.3.47.16,1.08-.31,1.38-.47.3-1.08.16-1.38-.31-.02-.02-.03-.05-.04-.07-.18-.31-.51-.5-.87-.5h-2.27c-.55,0-1,.45-1,1,0,.38.27.7.64.76l3.04.51c1.34.22,2.32,1.38,2.32,2.73Z"/></svg>