<svg xmlns="http://www.w3.org/2000/svg" version="1.1" xmlns:xlink="http://www.w3.org/1999/xlink" xmlns:svgjs="http://svgjs.com/svgjs" width="512" height="512" x="0" y="0" viewBox="0 0 24 24" style="enable-background:new 0 0 512 512" xml:space="preserve"><g><g fill="#000" fill-rule="evenodd" clip-rule="evenodd"><path d="M3.879 1.879A3 3 0 0 1 6 1h8.5a1 1 0 0 1 .707.293l5.5 5.5A1 1 0 0 1 21 7.5V20a3 3 0 0 1-3 3H4a1 1 0 1 1 0-2h14a1 1 0 0 0 1-1V7.914L14.086 3H6a1 1 0 0 0-1 1v4a1 1 0 0 1-2 0V4a3 3 0 0 1 .879-2.121z" fill="#005798" data-original="#000000" opacity="1"></path><path d="M14 1a1 1 0 0 1 1 1v5h5a1 1 0 1 1 0 2h-6a1 1 0 0 1-1-1V2a1 1 0 0 1 1-1zM1 15a1 1 0 0 1 1-1h10a1 1 0 1 1 0 2H2a1 1 0 0 1-1-1z" fill="#005798" data-original="#000000" opacity="1"></path><path d="M8.293 11.293a1 1 0 0 1 1.414 0l3 3a1 1 0 0 1 0 1.414l-3 3a1 1 0 0 1-1.414-1.414L10.586 15l-2.293-2.293a1 1 0 0 1 0-1.414z" fill="#005798" data-original="#000000" opacity="1"></path></g></g></svg>