<svg height="511pt" viewBox="0 -41 511.99974 511" width="511pt" xmlns="http://www.w3.org/2000/svg" xmlns:xlink="http://www.w3.org/1999/xlink"><linearGradient id="a" gradientUnits="userSpaceOnUse" x1="284.0786488102" x2="284.0786488102" y1="35.201455332" y2="59.891411039"><stop offset="0" stop-color="#ff6e3a"/><stop offset=".1596" stop-color="#ff6440"/><stop offset=".4266" stop-color="#ff4b52"/><stop offset=".7662" stop-color="#ff216e"/><stop offset="1" stop-color="#ff0084"/></linearGradient><linearGradient id="b" gradientUnits="userSpaceOnUse" x1="211.3192010758" x2="129.9362641458" y1="91.3920739862" y2="10.0091370562"><stop offset="0" stop-color="#ff0084" stop-opacity="0"/><stop offset=".0737" stop-color="#f4087e" stop-opacity=".07451"/><stop offset=".3347" stop-color="#d2216b" stop-opacity=".333333"/><stop offset=".583" stop-color="#ba335e" stop-opacity=".584314"/><stop offset=".8111" stop-color="#ab3d56" stop-opacity=".811765"/><stop offset="1" stop-color="#a64153"/></linearGradient><linearGradient id="c"><stop offset="0" stop-color="#8be1e2"/><stop offset=".1873" stop-color="#87e1e1"/><stop offset=".3558" stop-color="#7ce2dd"/><stop offset=".5172" stop-color="#6ae2d7"/><stop offset=".6741" stop-color="#50e4ce"/><stop offset=".8278" stop-color="#2fe5c2"/><stop offset=".9772" stop-color="#07e7b4"/><stop offset="1" stop-color="#00e7b2"/></linearGradient><linearGradient id="d" gradientUnits="userSpaceOnUse" x1="147.3632457516" x2="475.229312906" xlink:href="#c" y1="118.6482551096" y2="446.5142218718"/><linearGradient id="e"><stop offset=".0029" stop-color="#00e7b2" stop-opacity="0"/><stop offset=".4308" stop-color="#1bc4b7" stop-opacity=".427451"/><stop offset="1" stop-color="#3b9abe"/></linearGradient><linearGradient id="f" gradientUnits="userSpaceOnUse" x1="407.6420713156" x2="114.0897569446" xlink:href="#e" y1="409.7528068602" y2="116.2004924892"/><linearGradient id="g" gradientUnits="userSpaceOnUse" x1="253.5052082222" x2="253.5052082222" xlink:href="#e" y1="54.0955685486" y2="148.9798508878"/><linearGradient id="h" gradientUnits="userSpaceOnUse" x1="201.690183605" x2="388.8254608774" y1="153.8084145312" y2="490.6520541706"><stop offset="0" stop-color="#ecf7ff"/><stop offset="1" stop-color="#c2e0ff"/></linearGradient><linearGradient id="i" gradientUnits="userSpaceOnUse" x1="511.089406746" x2="325.5713474234" y1="274.9178500998" y2="267.6221481414"><stop offset=".0029" stop-color="#c2e0ff" stop-opacity="0"/><stop offset=".0763" stop-color="#bfdcfd" stop-opacity=".07451"/><stop offset="1" stop-color="#9eb2e7"/></linearGradient><linearGradient id="j" gradientUnits="userSpaceOnUse" x1="147.9149008906" x2="258.3919993416" xlink:href="#c" y1="26.929138052" y2="382.3316813522"/><linearGradient id="k" gradientUnits="userSpaceOnUse" x1="250.998816557" x2="250.998816557" xlink:href="#e" y1="391.5326264822" y2="450.525492615"/><linearGradient id="l" gradientUnits="userSpaceOnUse" x1="380.3489458626" x2="143.4138166036" xlink:href="#e" y1="395.443806202" y2="254.3944718694"/><linearGradient id="m"><stop offset="0" stop-color="#ffc738"/><stop offset=".4286" stop-color="#ffbb23"/><stop offset="1" stop-color="#ffa700"/></linearGradient><linearGradient id="n" gradientUnits="userSpaceOnUse" x1="147.77204279" x2="298.5383381606" xlink:href="#m" y1="291.6489129752" y2="381.9382443204"/><linearGradient id="o" gradientUnits="userSpaceOnUse" x1="204.5461409106" x2="204.5461409106" xlink:href="#m" y1="240.8139170144" y2="261.5404890576"/><linearGradient id="p"><stop offset="0" stop-color="#ffa700" stop-opacity="0"/><stop offset=".0206" stop-color="#fea600" stop-opacity=".019608"/><stop offset=".6348" stop-color="#ec8c00" stop-opacity=".635294"/><stop offset="1" stop-color="#e58200"/></linearGradient><linearGradient id="q" gradientUnits="userSpaceOnUse" x1="251.9528436336" x2="179.1439025446" xlink:href="#p" y1="315.3103505932" y2="192.33432285"/><linearGradient id="r" gradientUnits="userSpaceOnUse" x1="289.0525803592" x2="253.9085840818" xlink:href="#p" y1="276.2515604768" y2="240.3350462204"/><linearGradient id="s" gradientUnits="userSpaceOnUse" x1="242.550310966" x2="188.9972965824" xlink:href="#p" y1="369.2788882926" y2="315.725873909"/><linearGradient id="t"><stop offset="0" stop-color="#3b395f"/><stop offset=".0633" stop-color="#37355a"/><stop offset=".4033" stop-color="#232543"/><stop offset=".7232" stop-color="#171b35"/><stop offset="1" stop-color="#131830"/></linearGradient><linearGradient id="u" gradientUnits="userSpaceOnUse" x1="197.5420782932" x2="224.6058075692" xlink:href="#t" y1="313.1214994566" y2="363.2095774494"/><linearGradient id="v" gradientUnits="userSpaceOnUse" x1="204.5461409106" x2="204.5461409106" xlink:href="#t" y1="227.9420306992" y2="267.5350077118"/><linearGradient id="w" gradientUnits="userSpaceOnUse" x1="204.5461409106" x2="204.5461409106" xlink:href="#p" y1="385.5158207596" y2="415.3461582832"/><path d="m395.140625 58.121094v31.292968h-222.125v-54.890624c0-18.785157 15.234375-34.023438 34.023437-34.023438h78.265626c12.492187 0 23.96875 6.839844 29.914062 17.816406l10.710938 19.757813c6.699218 12.355469 19.621093 20.046875 33.664062 20.046875zm0 0" fill="url(#a)"/><path d="m232.371094 76.121094-56.109375-56.109375c-2.078125 4.402343-3.246094 9.320312-3.246094 14.511719v54.890624h72.644531zm0 0" fill="url(#b)"/><path d="m185.960938 38.074219-10.707032-19.757813c-5.949218-10.976562-17.429687-17.816406-29.914062-17.816406h-78.273438c-18.789062 0-34.023437 15.234375-34.023437 34.023438v360.945312c0 18.789062 15.234375 34.019531 34.023437 34.019531h410.914063c18.789062 0 34.019531-15.230469 34.019531-34.019531v-303.324219c0-18.789062-15.230469-34.019531-34.019531-34.019531h-258.351563c-14.050781 0-26.972656-7.695312-33.667968-20.050781zm0 0" fill="url(#d)"/><path d="m67.066406 429.488281h410.914063c18.789062 0 34.019531-15.230469 34.019531-34.019531v-255.761719l-48.054688-48.054687-148.582031-1.089844c-5.796875 10.695312-16.984375 17.359375-29.152343 17.359375h-223.707032c-16.269531 0-29.460937 13.191406-29.460937 29.460937v258.085938c0 18.789062 15.234375 34.019531 34.023437 34.019531zm0 0" fill="url(#f)"/><path d="m473.964844 151.265625c0-51.441406-41.699219-93.140625-93.136719-93.140625h-161.199219c-14.050781 0-26.972656-7.695312-33.667968-20.050781l-10.710938-19.761719c-5.945312-10.976562-17.425781-17.8125-29.910156-17.8125h-78.273438c-18.789062 0-34.023437 15.230469-34.023437 34.019531v116.742188h440.921875zm0 0" fill="url(#g)"/><path d="m474.332031 109.570312v299.765626c0 8.964843-5.847656 16.5625-13.945312 19.179687-1.960938.632813-4.042969.976563-6.210938.976563h-387.589843c-11.128907 0-20.15625-9.023438-20.15625-20.15625v-299.765626c0-11.132812 9.027343-20.15625 20.15625-20.15625h387.589843c11.128907 0 20.15625 9.023438 20.15625 20.15625zm0 0" fill="url(#h)"/><path d="m474.332031 190.058594v219.277344c0 8.964843-5.847656 16.5625-13.945312 19.179687l-148.101563-148.101563c-19.492187-18.804687-33.09375-138.015624-37.769531-165.90625h113.53125c7.980469 0 15.203125 3.585938 20.050781 9.308594zm0 0" fill="url(#i)"/><path d="m477.976562 429.492188h-415.46875c-16.277343 0-29.460937-13.195313-29.460937-29.460938l-32.828125-255.914062c-2.015625-15.703126 10.21875-29.609376 26.050781-29.609376h361.773438c13.210937 0 24.367187 9.8125 26.050781 22.917969l33.679688 261.855469c0 16.6875 13.523437 30.210938 30.203124 30.210938zm0 0" fill="url(#j)"/><path d="m24.019531 325.597656 9.023438 74.433594c0 16.269531 13.191406 29.457031 29.460937 29.457031h415.476563c-16.683594 0-30.207031-13.523437-30.207031-30.203125l-9.027344-73.683594h-414.726563zm0 0" fill="url(#k)"/><path d="m204.546875 132.464844c-34.210937 0-62.042969 27.835937-62.042969 62.042968v50.882813c-4.15625.941406-8.304687 1.96875-12.445312 3.097656-5.449219 1.488281-9.222656 6.460938-9.222656 12.109375v130.097656c0 3.988282 1.882812 7.625 4.898437 9.953126l28.84375 28.84375h323.398437c-16.679687 0-30.203124-13.527344-30.203124-30.214844l-7.261719-56.449219-190.984375-190.984375c-11.3125-11.921875-27.289063-19.378906-44.980469-19.378906zm0 0" fill="url(#l)"/><path d="m279.03125 402.808594c-49.335938 13.46875-99.636719 13.46875-148.972656 0-5.449219-1.488282-9.222656-6.460938-9.222656-12.109375v-130.097657c0-5.652343 3.773437-10.625 9.222656-12.113281 49.335937-13.46875 99.636718-13.46875 148.976562 0 5.449219 1.488281 9.222656 6.460938 9.222656 12.113281v130.097657c0 5.648437-3.773437 10.621093-9.226562 12.109375zm0 0" fill="url(#n)"/><path d="m276.476562 247.8125c-1.011718-.265625-2.019531-.527344-3.027343-.78125-.675781-.171875-1.355469-.335938-2.03125-.503906-.980469-.242188-1.960938-.476563-2.941407-.703125-.6875-.160157-1.375-.320313-2.0625-.472657-.980468-.222656-1.964843-.4375-2.945312-.648437-.679688-.148437-1.355469-.292969-2.035156-.433594-1.011719-.210937-2.027344-.410156-3.042969-.609375-.640625-.128906-1.285156-.257812-1.929687-.378906-1.109376-.210938-2.222657-.410156-3.335938-.605469-.542969-.097656-1.085938-.199219-1.628906-.289062-1.652344-.28125-3.308594-.554688-4.960938-.804688-.03125-.003906-.0625-.007812-.089844-.011719-1.625-.25-3.253906-.480468-4.878906-.699218-.546875-.074219-1.09375-.140625-1.640625-.210938-1.113281-.140625-2.222656-.28125-3.335937-.410156-.648438-.074219-1.292969-.144531-1.941406-.214844-1.015626-.109375-2.03125-.21875-3.050782-.320312-.679687-.066406-1.359375-.128906-2.042968-.1875-.984376-.089844-1.972657-.175782-2.960938-.253906-.695312-.054688-1.386719-.109376-2.078125-.160157-.984375-.070312-1.96875-.136719-2.957031-.195312-.683594-.042969-1.367188-.085938-2.050782-.121094-1.019531-.054687-2.035156-.101563-3.054687-.144531-.644531-.03125-1.292969-.058594-1.9375-.082032-1.121094-.042968-2.238281-.070312-3.355469-.097656-.542968-.011718-1.089844-.03125-1.632812-.039062-1.660156-.03125-3.320313-.046875-4.980469-.046875h-.003906c-1.65625 0-3.316407.015625-4.976563.046875-.546875.007812-1.09375.027344-1.640625.039062-1.117187.027344-2.230469.054688-3.347656.097656-.648437.023438-1.292969.050782-1.941406.082032-1.015625.042968-2.035157.089844-3.050781.144531-.683594.035156-1.367188.078125-2.050782.121094-.988281.058593-1.972656.125-2.960937.195312-.691407.050781-1.382813.105469-2.074219.160157-.988281.078124-1.976562.164062-2.964844.253906-.679687.058594-1.359375.121094-2.042968.1875-1.015626.101562-2.03125.210937-3.050782.320312-.644531.070313-1.292968.140625-1.9375.214844-1.113281.128906-2.226562.269531-3.339844.410156-.546874.070313-1.089843.136719-1.640624.210938-1.625.21875-3.246094.449218-4.871094.695312-.035156.007813-.066406.011719-.097656.015625-1.652344.25-3.304688.523438-4.957032.804688-.542968.089843-1.085937.195312-1.632812.289062-1.113282.195313-2.222656.394531-3.335938.605469-.644531.121094-1.285156.25-1.925781.375-1.015625.199219-2.03125.402344-3.046875.613281-.675781.140625-1.355469.285157-2.035156.429688-.980469.210937-1.960938.425781-2.941406.648437-.6875.15625-1.378907.316406-2.066407.476563-.980469.226562-1.957031.460937-2.9375.703125-.679687.164062-1.355469.328125-2.035156.5-1.007813.253906-2.015625.519531-3.023437.785156-.644532.167969-1.285157.335938-1.929688.507812-.28125.078126-.566406.160157-.847656.238282-3.023438.886718-5.511719 2.84375-7.101563 5.394531 54.113281 16.269531 109.5 16.269531 163.613281 0-1.589843-2.550781-4.074218-4.507813-7.097656-5.394531-.285156-.078125-.566406-.160156-.851562-.238282-.640625-.171874-1.285156-.335937-1.925782-.507812zm0 0" fill="url(#o)"/><path d="m279.03125 248.488281c-45.195312-12.339843-91.199219-13.363281-136.527344-3.097656v1.585937c0 3.738282 1.90625 7.023438 4.796875 8.949219l139.871094 139.871094c.699219-1.570313 1.085937-3.300781 1.085937-5.101563v-130.097656c0-5.648437-3.773437-10.621094-9.226562-12.109375zm0 0" fill="url(#q)"/><path d="m288.257812 260.601562c0-5.652343-3.773437-10.625-9.226562-12.113281-11.25-3.070312-22.550781-5.441406-33.878906-7.109375v5.601563c0 3.734375 1.910156 7.019531 4.800781 8.945312l38.304687 38.304688zm0 0" fill="url(#r)"/><path d="m273.730469 359.683594-52.945313-52.945313c-4.398437-4.675781-10.792968-7.460937-17.828125-6.972656-10.96875.761719-19.859375 9.632813-20.644531 20.601563-.5 7.058593 2.289062 13.46875 6.988281 17.878906l5.289063 5.289062c1.710937 2.609375 2.632812 5.714844 2.632812 8.902344v9.128906c0 2.363282 1.089844 4.527344 2.804688 5.933594l42.757812 42.757812c7.710938-1.070312 15.410156-2.464843 23.09375-4.1875.039063-4.769531 2.183594-9.347656 6.011719-12.207031 5.433594-4.066406 8.949219-10.546875 8.949219-17.855469 0-6.449218-2.734375-12.253906-7.109375-16.324218zm0 0" fill="url(#s)"/><path d="m226.835938 322c0-12.835938-10.847657-23.136719-23.878907-22.234375-10.96875.761719-19.863281 9.632813-20.644531 20.601563-.5625 7.910156 3.007812 15.023437 8.769531 19.394531 3.933594 2.988281 6.140625 7.734375 6.140625 12.675781v9.125c0 4.035156 3.152344 7.492188 7.1875 7.566406 4.105469.078125 7.460938-3.230468 7.460938-7.320312v-9.613282c0-4.820312 2.152344-9.453124 6.011718-12.335937 5.4375-4.066406 8.953126-10.550781 8.953126-17.859375zm0 0" fill="url(#u)"/><path d="m255.84375 257.722656c-5.933594 0-10.742188-4.808594-10.742188-10.742187v-52.472657c0-22.359374-18.195312-40.550781-40.554687-40.550781-22.363281 0-40.554687 18.191407-40.554687 40.550781v52.472657c0 5.933593-4.808594 10.742187-10.742188 10.742187-5.9375 0-10.746094-4.808594-10.746094-10.742187v-52.472657c0-34.207031 27.832032-62.042968 62.042969-62.042968s62.042969 27.835937 62.042969 62.042968v52.472657c0 5.933593-4.808594 10.742187-10.746094 10.742187zm0 0" fill="url(#v)"/><path d="m120.835938 354.984375v35.714844c0 5.648437 3.773437 10.621093 9.222656 12.109375 49.335937 13.46875 99.636718 13.46875 148.972656 0 5.453125-1.488282 9.222656-6.460938 9.222656-12.109375v-35.714844zm0 0" fill="url(#w)"/></svg>