<?xml version="1.0" encoding="UTF-8"?><svg id="_圖層_1" xmlns="http://www.w3.org/2000/svg" xmlns:xlink="http://www.w3.org/1999/xlink" viewBox="0 0 40 40"><defs><style>.cls-1{fill:url(#_未命名漸層_2);}</style><linearGradient id="_未命名漸層_2" x1="-994.71" y1="519.1" x2="-993.63" y2="520.19" gradientTransform="translate(27855.88 14570.02) scale(28 -28)" gradientUnits="userSpaceOnUse"><stop offset="0" stop-color="#0e5dd8"/><stop offset="1" stop-color="#eb55ff"/></linearGradient></defs><path id="party-popper" class="cls-1" d="m23.18,7.98c-.25.04-.5.11-.74.22.46.71,1.42,1.61.83,2.78-.52,1.05-1.62.99-2.56,1.02.58.79,1.25,1.6.74,2.64-.5.79-1.34,1.28-2.27,1.34-.54.1-1.07-.26-1.17-.8-.1-.54.26-1.07.8-1.17.25-.04.5-.11.74-.22-.46-.7-1.42-1.61-.84-2.78.52-1.05,1.61-.99,2.56-1.02-.58-.8-1.25-1.59-.74-2.64.5-.79,1.34-1.28,2.27-1.34.54-.1,1.07.26,1.17.8s-.26,1.07-.8,1.17Zm5.8,13.3c-1.22.61-2.23-.48-2.78-.84-.1.24-.17.49-.22.74-.1.54-.62.9-1.17.8-.54-.1-.9-.62-.8-1.17.06-.93.56-1.77,1.34-2.27,1.04-.52,1.81.13,2.64.73.03-.96-.02-2.04,1.02-2.56,1.22-.61,2.2.46,2.78.84.1-.24.17-.49.22-.74.1-.54.62-.9,1.17-.8.54.1.9.62.8,1.17-.06.93-.56,1.77-1.34,2.27-1.04.52-1.81-.13-2.64-.73-.03.91.04,2.03-1.02,2.56Zm-21.63,12.65l16.3-6.06s0,0,.01,0c.28-.09.54-.25.75-.46,1.69-1.69-.6-5.53-3.45-8.38s-6.69-5.14-8.38-3.45c-.21.21-.37.47-.46.76h0s-6.06,16.31-6.06,16.31c-.19.52.07,1.09.59,1.29.23.08.47.08.7,0h0Zm6.65-16.92s.1-.02.15-.02c.7,0,2.81.85,5.41,3.45,2.88,2.88,3.62,5.16,3.48,5.53-.42.19-2.7-.55-5.58-3.43-2.73-2.73-3.52-4.89-3.48-5.43,0-.01-.02.04.03-.1Zm-1.09,2.93c.85,1.47,1.9,2.83,3.12,4.02,1.15,1.17,2.45,2.19,3.87,3.02-2.24-.06-7.28-.53-8.31-3.49l1.32-3.55Zm-2.21,5.95c1.44,1.44,3.31,2.38,5.32,2.68l-7.32,2.72,2-5.4Zm23.3-14.9c0,.55-.45,1-1,1-3.59,0-7.33,2.79-9.17,5.56-.31.46-.93.58-1.39.28-.46-.31-.58-.93-.28-1.39,2.07-3.1,6.34-6.45,10.83-6.45.55,0,1,.45,1,1Zm-2-4c0,.55-.45,1-1,1s-1-.45-1-1,.45-1,1-1,1,.45,1,1Zm-2,17c0,.55-.45,1-1,1s-1-.45-1-1,.45-1,1-1,1,.45,1,1Zm-13-16c0,.55-.45,1-1,1s-1-.45-1-1,.45-1,1-1,1,.45,1,1Z"/></svg>