<?xml version="1.0" encoding="UTF-8"?><svg id="_圖層_1" xmlns="http://www.w3.org/2000/svg" viewBox="0 0 50 50"><defs><style>.cls-1{fill:#005798;}.cls-2,.cls-3{stroke-linejoin:round;}.cls-2,.cls-3,.cls-4{fill:none;stroke-width:1.5px;}.cls-2,.cls-4{stroke:#005798;}.cls-3{stroke:#4d98d1;}.cls-5{opacity:.1;}.cls-5,.cls-6{fill:#4d98d1;}.cls-4{stroke-miterlimit:10;}</style></defs><circle class="cls-5" cx="24.99" cy="25" r="25"/><rect class="cls-3" x="14.99" y="14" width="20" height="25"/><rect class="cls-2" x="19.99" y="14" width="10" height="4"/><path class="cls-4" d="m24.99,11c-1.66,0-3,1.34-3,3h6c0-1.66-1.34-3-3-3Z"/><path class="cls-1" d="m30.49,32.33c0,.25-.21.46-.46.46-.71,0-1.05-.51-1.3-.89-.23-.34-.34-.48-.54-.48-.23,0-.41.2-.69.53-.32.38-.72.85-1.39.85s-1.06-.47-1.38-.86c-.27-.32-.44-.52-.67-.52-.18,0-.29.11-.53.42-.33.4-.78.96-1.76.96-1.26,0-2.29-1.03-2.29-2.29s1.03-2.29,2.29-2.29c.25,0,.46.21.46.46s-.21.46-.46.46c-.76,0-1.38.62-1.38,1.38s.62,1.38,1.38,1.38c.54,0,.77-.28,1.05-.62.27-.33.61-.75,1.24-.75.67,0,1.06.47,1.38.86.27.32.44.52.67.52s.41-.2.69-.53c.32-.38.72-.85,1.39-.85s1.05.51,1.3.89c.23.34.34.48.54.48.25,0,.46.21.46.46Z"/><path class="cls-6" d="m23.61,29.12h.43c.49,0,.95-.19,1.3-.54l3.54-3.54-1.65-1.65-3.54,3.54c-.34.34-.54.81-.54,1.3v.43c0,.25.2.45.45.45h0Z"/><path class="cls-6" d="m30.15,23.77c.22-.22.34-.51.34-.82s-.12-.61-.34-.82c-.45-.45-1.19-.45-1.65,0l-.62.62,1.65,1.65.62-.62h0Z"/></svg>