<?xml version="1.0" encoding="utf-8"?>
<!-- Generator: Adobe Illustrator 27.5.0, SVG Export Plug-In . SVG Version: 6.00 Build 0)  -->
<svg version="1.1" id="圖層_1" xmlns="http://www.w3.org/2000/svg" xmlns:xlink="http://www.w3.org/1999/xlink" x="0px" y="0px"
	 viewBox="0 0 14 7.2" style="enable-background:new 0 0 14 7.2;" xml:space="preserve">
<style type="text/css">
	.st0{fill:#FFFFFF;}
</style>
<path id="angle-small-down_1_" class="st0" d="M13.7,0.3c-0.4-0.4-1-0.4-1.4,0c0,0,0,0,0,0L7.7,4.9c-0.4,0.4-1,0.4-1.4,0
	c0,0,0,0,0,0L1.7,0.3c-0.4-0.4-1-0.4-1.4,0c-0.4,0.4-0.4,1,0,1.4l4.6,4.6c1.2,1.2,3.1,1.2,4.2,0l4.6-4.6C14.1,1.3,14.1,0.7,13.7,0.3
	z"/>
</svg>
