<svg xmlns="http://www.w3.org/2000/svg" xmlns:xlink="http://www.w3.org/1999/xlink" width="50" height="50" viewBox="0 0 50 50">
  <defs>
    <clipPath id="clip-path">
      <rect id="Rectangle_66" data-name="Rectangle 66" width="50" height="50" rx="25" transform="translate(942 542)" fill="#8fc4ef"/>
    </clipPath>
  </defs>
  <g id="img-male" transform="translate(-942 -542)" clip-path="url(#clip-path)">
    <rect id="Rectangle_64" data-name="Rectangle 64" width="50" height="50" rx="25" transform="translate(942 542)" fill="#8fc4ef"/>
    <path id="Path_28" data-name="Path 28" d="M32.47,225.482a20.852,20.852,0,0,0-2.263-7.421A47.472,47.472,0,0,0,24.734,210L22,209.765,19.257,210a47.49,47.49,0,0,0-5.473,8.061,20.864,20.864,0,0,0-2.263,7.421,177.969,177.969,0,0,0-1.161,18.106H33.631A178.133,178.133,0,0,0,32.47,225.482Z" transform="translate(945.64 370.21)" fill="#ffe1eb"/>
    <path id="Path_29" data-name="Path 29" d="M48.734,216.86A47.982,47.982,0,0,0,43.921,210l-2.739-.235L38.444,210s-.486.56-1.222,1.513C37.895,212.988,40.589,217.342,48.734,216.86Z" transform="translate(926.453 370.211)" fill="#f2b8d0"/>
    <path id="Path_30" data-name="Path 30" d="M44.238,191.794H41.5v5.37a2.788,2.788,0,0,0,1.047,2.177l.135.108a2.491,2.491,0,0,0,3.114,0l.135-.108a2.789,2.789,0,0,0,1.047-2.177v-5.37Z" transform="translate(923.397 383.046)" fill="#ffd6bb"/>
    <path id="Path_31" data-name="Path 31" d="M46.977,256.649l-1.238-19.192a1.5,1.5,0,0,0-3,0L41.5,256.649l2.739,2.281Z" transform="translate(923.397 351.435)" fill="#e271a0"/>
    <path id="Path_33" data-name="Path 33" d="M41.5,191.794v3.363a12.411,12.411,0,0,0,5.477,1.375v-4.738Z" transform="translate(923.397 383.046)" fill="#f4a28c"/>
    <path id="Path_34" data-name="Path 34" d="M23.078,113.949H15.155a23.323,23.323,0,0,0-1.893-3.631,8.446,8.446,0,0,1-1.359-5.3,14.526,14.526,0,0,1,2.971-8.1L18.3,101.09s1.549-2.534,3.848-3.051a7.378,7.378,0,0,0,3.714,4.46,9.835,9.835,0,0,0,1.738.737,10.366,10.366,0,0,1,4.236,2.595,5.477,5.477,0,0,1,1.033,5.823A4.514,4.514,0,0,1,31,113.834Z" transform="translate(944.557 450.818)" fill="#4f4c5b"/>
    <path id="Path_35" data-name="Path 35" d="M29.419,135.754a3.3,3.3,0,0,1-3.809.108l-.272-.181a1.279,1.279,0,0,0-1.986,1.065v9.235a7.923,7.923,0,0,0,15.847,0v-4.95a4.551,4.551,0,0,0-2.58-4.1l-3.253-1.563A3.823,3.823,0,0,0,29.419,135.754Z" transform="translate(936.36 423.62)" fill="#ffd6bb"/>
    <circle id="Ellipse_20" data-name="Ellipse 20" cx="1.143" cy="1.143" r="1.143" transform="translate(964.006 564.026)" fill="#4f4c5b"/>
    <circle id="Ellipse_21" data-name="Ellipse 21" cx="1.143" cy="1.143" r="1.143" transform="translate(968.978 564.027)" fill="#4f4c5b"/>
  </g>
</svg>
