<?xml version="1.0" encoding="UTF-8"?>
<svg id="_圖層_1" data-name="圖層 1" xmlns="http://www.w3.org/2000/svg" viewBox="0 0 24 24">
  <defs>
    <style>
      .cls-1 {
        fill: #005798;
        stroke-width: 0px;
      }
    </style>
  </defs>
  <path class="cls-1" d="M20.01,10h-.11c.5-1.64-.43-3.37-2.07-3.87-.27-.08-.54-.13-.82-.13H3.01c-5.45.37-2,8.65-.59,10.91,1.29,1.95,3.47,3.11,5.8,3.09h3.57c2.29.02,4.45-1.1,5.74-3h2.48c4.81-.09,5.76-7.18,0-7ZM11.8,18h-3.57c-1.66.02-3.21-.8-4.13-2.18-.54-.52-3.59-7.82-1.08-7.82h14c.28,0,.54.12.73.32.2.22.29.51.26.8-.56,4.26-1.62,8.69-6.21,8.88ZM20.01,15h-1.41c.41-.97.73-1.97.95-3,1.21-.08,2.55.22,2.46,1.14-.07,1.05-.95,1.87-2,1.86ZM9.04,3V1c0-.55.45-1,1-1s1,.45,1,1v2c0,.55-.45,1-1,1s-1-.45-1-1ZM13.04,3V1c0-.55.45-1,1-1s1,.45,1,1v2c0,.55-.45,1-1,1s-1-.45-1-1ZM5.04,3V1c0-.55.45-1,1-1s1,.45,1,1v2c0,.55-.45,1-1,1-.55,0-1-.45-1-1h0ZM20.01,23c0,.55-.45,1-1,1H1.01c-.55,0-1-.45-1-1s.45-1,1-1h18c.55,0,1,.45,1,1Z"/>
</svg>