<svg id="Capa_1" enable-background="new 0 0 512 512" height="512" viewBox="0 0 512 512" width="512" xmlns="http://www.w3.org/2000/svg" xmlns:xlink="http://www.w3.org/1999/xlink"><linearGradient id="SVGID_1_" gradientUnits="userSpaceOnUse" x1="256" x2="256" y1="512" y2="0"><stop offset="0" stop-color="#fd3a84"/><stop offset="1" stop-color="#ffa68d"/></linearGradient><linearGradient id="SVGID_2_" gradientUnits="userSpaceOnUse" x1="256" x2="256" y1="391" y2="91"><stop offset="0" stop-color="#ffc2cc"/><stop offset="1" stop-color="#fff2f4"/></linearGradient><g id="Sad_2_"><g><g><circle cx="256" cy="256" fill="url(#SVGID_1_)" r="256"/></g></g><g><g><path d="m136 181c41.367 0 75-33.647 75-75 0-8.291-6.709-15-15-15s-15 6.709-15 15c0 24.814-20.186 45-45 45-8.291 0-15 6.709-15 15s6.709 15 15 15zm240 0c8.291 0 15-6.709 15-15s-6.709-15-15-15c-24.814 0-45-20.186-45-45 0-8.291-6.709-15-15-15s-15 6.709-15 15c0 41.353 33.633 75 75 75zm-172.705 87.96c9.23-5.159 10.468-18.953.831-25.272-4.044-2.687-39.365-19.966-61.417-31.106-7.412-3.662-16.377-.688-20.127 6.709-3.691 7.412-.703 16.421 6.709 20.127l33.164 16.582-33.164 16.582c-7.412 3.706-10.4 12.715-6.709 20.127 3.654 7.288 12.542 10.45 20.127 6.709 6.195-3.113-22.452 11.26 60.586-30.458zm186.123-49.669c-3.721-7.427-12.715-10.4-20.127-6.709-28.519 14.412-57.109 28.223-61.481 31.157-9.665 6.399-8.069 20.21.896 25.221 3.005 1.68 63.59 32.188 60.586 30.458 7.58 3.739 16.469.586 20.127-6.709 3.691-7.412.703-16.421-6.709-20.127l-33.165-16.582 33.164-16.582c7.412-3.706 10.4-12.715 6.709-20.127zm-73.418 141.709h-120c-8.291 0-15 6.709-15 15s6.709 15 15 15h120c8.291 0 15-6.709 15-15s-6.709-15-15-15z" fill="url(#SVGID_2_)"/></g></g></g></svg>