<svg id="Capa_1" enable-background="new 0 0 512 512" height="512" viewBox="0 0 512 512" width="512" xmlns="http://www.w3.org/2000/svg" xmlns:xlink="http://www.w3.org/1999/xlink"><linearGradient id="SVGID_1_" gradientUnits="userSpaceOnUse" x1="256" x2="256" y1="512" y2="0"><stop offset="0" stop-color="#00b59c"/><stop offset="1" stop-color="#9cffac"/></linearGradient><linearGradient id="SVGID_2_" gradientUnits="userSpaceOnUse" x1="256" x2="256" y1="391" y2="121"><stop offset="0" stop-color="#c3ffe8"/><stop offset=".9973" stop-color="#f0fff4"/></linearGradient><g id="Winking_2_"><g><g><circle cx="256" cy="256" fill="url(#SVGID_1_)" r="256"/></g></g><g><g><path d="m376 241c-8.291 0-15 6.709-15 15 0 57.891-47.109 105-105 105-27.979 0-54.346-10.942-74.209-30.791-5.859-5.859-15.352-5.859-21.211 0s-5.859 15.366 0 21.211c25.547 25.532 59.414 39.58 95.42 39.58 74.443 0 135-60.557 135-135 0-8.291-6.709-15-15-15zm-90-30h90c8.291 0 15-6.709 15-15s-6.709-15-15-15h-53.789l34.395-34.395c5.859-5.859 5.859-15.352 0-21.211s-15.352-5.859-21.211 0l-59.982 59.982c-4.14 4.129-5.647 10.577-3.259 16.351 2.336 5.648 7.873 9.273 13.846 9.273zm-75-15c0-24.814-20.186-45-45-45s-45 20.186-45 45 20.186 45 45 45 45-20.186 45-45z" fill="url(#SVGID_2_)"/></g></g></g></svg>